<svg width="24" height="24" viewBox="0 0 24 24" fill="none" xmlns="http://www.w3.org/2000/svg">
<g opacity="0.4">
<rect x="1" y="1" width="22" height="22" stroke="#A5A5A5" stroke-width="2"/>
<path d="M11.008 9.468H13.192V17H11.008V9.468ZM12.1 8.418C11.6987 8.418 11.372 8.30133 11.12 8.068C10.868 7.83467 10.742 7.54533 10.742 7.2C10.742 6.85467 10.868 6.56533 11.12 6.332C11.372 6.09867 11.6987 5.982 12.1 5.982C12.5013 5.982 12.828 6.094 13.08 6.318C13.332 6.542 13.458 6.822 13.458 7.158C13.458 7.522 13.332 7.82533 13.08 8.068C12.828 8.30133 12.5013 8.418 12.1 8.418Z" fill="#A5A5A5"/>
<path d="M0 0V-1H-1V0H0ZM24 0H25V-1H24V0ZM24 24V25H25V24H24ZM0 24H-1V25H0V24ZM0 1H24V-1H0V1ZM23 0V24H25V0H23ZM24 23H0V25H24V23ZM1 24V0H-1V24H1Z" fill="#A5A5A5"/>
</g>
</svg>
