<svg width="146" height="36" viewBox="0 0 146 36" fill="none" xmlns="http://www.w3.org/2000/svg">
<path fill-rule="evenodd" clip-rule="evenodd" d="M31.5865 31.1296H13.8389V22.1944H22.7054V13.328H31.5865V31.1296ZM13.8389 17.7607H18.2716V13.328H13.8389V17.7607ZM4.99167 17.7607V4.43269H18.2719V8.89477H9.40599V17.7607H4.99167ZM22.7058 8.89477V0H0.558594V22.1944H9.40613V35.5628H36.0201V8.89477H22.7058Z" fill="#2B2B2B"/>
<path fill-rule="evenodd" clip-rule="evenodd" d="M53.7692 16.9953H58.7278V13.0654H53.7692V16.9953ZM53.7699 21.0774V26.6196H49.4868V8.98438H63.0116V21.0774H53.7699Z" fill="#2B2B2B"/>
<path fill-rule="evenodd" clip-rule="evenodd" d="M73.7703 13.0654H70.6717V16.7439H73.7703C75.2566 16.7439 75.9625 16.1393 75.9625 14.9296C75.9625 13.6952 75.2067 13.0654 73.7703 13.0654ZM72.0084 20.4975H70.6733V26.6196H66.3901V8.98438H74.2505C77.9794 8.98438 80.297 11.2007 80.297 14.8792C80.297 17.7012 78.9367 19.3891 76.7702 20.095L81.4054 26.6196H76.1656L72.0084 20.4975Z" fill="#2B2B2B"/>
<path fill-rule="evenodd" clip-rule="evenodd" d="M91.5971 20.9762V26.6196H87.3145V21.0265L81.1924 8.98438H86.004L89.4558 16.164L92.907 8.98438H97.694L91.5971 20.9762Z" fill="#2B2B2B"/>
<path fill-rule="evenodd" clip-rule="evenodd" d="M112.952 13.0654H108.14V26.6196H103.857V13.0654H99.0698V8.98438H112.952V13.0654Z" fill="#2B2B2B"/>
<path fill-rule="evenodd" clip-rule="evenodd" d="M119.146 13.0654V15.6854H126.301V19.7669H119.146V22.5386H127.007V26.6196H114.863V8.98438H127.007V13.0654H119.146Z" fill="#2B2B2B"/>
<path fill-rule="evenodd" clip-rule="evenodd" d="M140.218 26.6196L134.322 18.6333V26.6196H130.039V8.98438H134.322V16.4915L139.839 8.98438H145.105L138.756 17.4992L145.559 26.6196H140.218Z" fill="#2B2B2B"/>
</svg>
