<svg width="34" height="30" viewBox="0 0 34 30" fill="none" xmlns="http://www.w3.org/2000/svg">
<path fill-rule="evenodd" clip-rule="evenodd" d="M22.3731 3.17224L33.0403 20.577C34.8448 23.5211 33.8731 27.3418 30.87 29.1108C27.9809 30.8127 24.2642 29.9955 22.3796 27.3095C21.8815 28.0191 21.2242 28.6382 20.4219 29.1108C17.432 30.872 13.5557 29.9355 11.741 27.0216C9.94716 29.9243 6.09499 30.8602 3.1251 29.1108L3.07733 29.0826C0.0930183 27.3247 -0.888349 23.5372 0.878403 20.596L4.31457 14.8758C5.52486 16.5975 7.48847 17.55 9.50328 17.5616C10.6033 17.5553 11.7159 17.2682 12.7271 16.6725C13.5459 16.1902 14.2136 15.5554 14.7153 14.8274L11.403 9.42299C10.0905 7.28159 10.2468 4.67641 11.5851 2.73431L11.4381 2.49441C11.3925 2.42007 11.3456 2.34699 11.2974 2.2752C11.4085 2.40823 11.5146 2.54671 11.6155 2.69055C12.1137 1.98088 12.771 1.36183 13.5733 0.889216C16.4717 -0.818126 20.203 0.0097506 22.0818 2.71643C22.1859 2.86458 22.283 3.01669 22.3731 3.17224Z" fill="#D6DEF2"/>
</svg>
