<svg width="28" height="12" viewBox="0 0 28 12" fill="none" xmlns="http://www.w3.org/2000/svg">
<path fill-rule="evenodd" clip-rule="evenodd" d="M21.9831 0C21.5765 0.000106978 21.2106 0.246258 21.0576 0.622511C20.9047 0.998764 20.9951 1.43009 21.2865 1.71333L24.5762 4.99965H1.01326C0.65297 4.99456 0.317851 5.18365 0.136222 5.49452C-0.0454073 5.80539 -0.0454073 6.18987 0.136222 6.50074C0.317851 6.81161 0.65297 7.0007 1.01326 6.99561H24.5762L21.2865 10.2819C21.0255 10.5322 20.9203 10.9039 21.0116 11.2537C21.1029 11.6034 21.3763 11.8765 21.7264 11.9677C22.0765 12.0589 22.4486 11.9538 22.6992 11.6931L27.6065 6.79095C27.8538 6.60269 27.9992 6.31015 28 5.99957C28.0008 5.68898 27.8567 5.39573 27.6104 5.20626C27.6084 5.20495 27.6065 5.20366 27.6045 5.20236L22.6992 0.302123C22.5111 0.108981 22.2528 1.56535e-05 21.9831 0Z" fill="#323232"/>
</svg>
