<svg width="34" height="34" viewBox="0 0 34 34" fill="none" xmlns="http://www.w3.org/2000/svg">
<path fill-rule="evenodd" clip-rule="evenodd" d="M8.48542 8.54415C13.1714 3.85815 20.77 3.85815 25.456 8.54415C30.142 13.2301 30.142 20.8287 25.456 25.5147C20.77 30.2007 13.1714 30.2007 8.48542 25.5147C3.79943 20.8287 3.79943 13.2301 8.48542 8.54415ZM16.9707 18.4436L20.5062 21.9792C20.8966 22.3695 21.5294 22.3702 21.9205 21.9792C22.3115 21.5881 22.3108 20.9553 21.9205 20.565L18.3849 17.0294L21.9205 13.4939C22.3115 13.1029 22.3108 12.47 21.9205 12.0797C21.5301 11.6894 20.8973 11.6887 20.5062 12.0797L16.9707 15.6152L13.4352 12.0797C13.0448 11.6894 12.412 11.6887 12.021 12.0797C11.6299 12.4707 11.6306 13.1036 12.021 13.4939L15.5565 17.0294L12.021 20.565C11.6299 20.956 11.6306 21.5889 12.021 21.9792C12.4113 22.3695 13.0441 22.3702 13.4352 21.9792L16.9707 18.4436Z" fill="#323232"/>
</svg>
