<svg width="1442" height="605" viewBox="0 0 1442 605" fill="none" xmlns="http://www.w3.org/2000/svg">
<mask id="mask0" mask-type="alpha" maskUnits="userSpaceOnUse" x="0" y="0" width="1442" height="605">
<rect width="1442" height="605" fill="#C4C4C4"/>
</mask>
<g mask="url(#mask0)">
<rect y="-2" width="1440" height="607" fill="white"/>
<path fill-rule="evenodd" clip-rule="evenodd" d="M553.192 2C278.449 2 9.71449 60.6925 0.202637 62.7994V437.428H1442V49.1546C1096.47 101.025 832.84 2 553.192 2Z" fill="url(#paint0_linear)"/>
<path fill-rule="evenodd" clip-rule="evenodd" d="M803.004 196.438C467.586 137.344 187.937 125.304 -0.998047 155.403V436.726H1440.8V166.239C1244.35 183.194 1138.62 255.531 803.004 196.438Z" fill="url(#paint1_linear)"/>
<path fill-rule="evenodd" clip-rule="evenodd" d="M1436.09 218.811C1266.18 161.122 1091.66 103.934 800.6 196.438L707.484 317.735L1442 339.708L1436.09 218.811Z" fill="url(#paint2_linear)"/>
<path fill-rule="evenodd" clip-rule="evenodd" d="M1203 272.186L1164.65 285.229C1133.21 280.513 1133.82 294.66 1097.77 292.051C1051.61 288.64 1002.15 287.436 949.786 289.543C860.175 293.054 771.464 306.599 682.453 322.049C648.511 327.969 614.568 334.189 580.526 340.209C392.892 373.618 202.655 403.115 0.202637 356.161V612H1442V234.562C1442 234.562 1352.49 294.86 1203 272.186Z" fill="url(#paint3_linear)"/>
<path fill-rule="evenodd" clip-rule="evenodd" d="M922.453 444.451C921.952 438.832 887.009 437.126 844.255 440.839C801.502 444.451 767.36 451.975 767.76 457.694C768.261 463.312 803.204 465.018 845.958 461.306C888.711 457.694 922.954 450.169 922.453 444.451Z" fill="url(#paint4_linear)"/>
<path fill-rule="evenodd" clip-rule="evenodd" d="M767.059 457.393C767.059 457.393 766.158 450.47 773.767 442.645C781.377 434.819 883.904 410.439 901.727 416.559C919.549 422.679 924.054 443.146 921.752 446.156C919.649 449.567 787.184 460.002 767.059 457.393Z" fill="url(#paint5_linear)"/>
<path fill-rule="evenodd" clip-rule="evenodd" d="M767.559 455.988C767.559 455.988 767.259 454.082 768.661 450.571C770.163 447.159 841.051 446.357 903.929 417.462C910.337 414.553 923.153 435.321 921.852 437.026C921.151 438.331 774.368 456.59 767.559 455.988Z" fill="url(#paint6_linear)"/>
<g opacity="0.75">
<path fill-rule="evenodd" clip-rule="evenodd" d="M921.751 439.183C913.441 440.889 906.332 440.889 906.232 440.889C905.331 440.889 904.63 441.591 904.63 442.494C904.63 443.397 905.331 444.099 906.132 444.099H906.232C906.532 444.099 913.541 444.2 921.952 442.494C921.952 441.491 921.852 440.387 921.751 439.183Z" fill="url(#paint7_linear)"/>
</g>
<path fill-rule="evenodd" clip-rule="evenodd" d="M695.67 182.592C694.268 183.295 673.842 185.703 634.193 181.99C631.99 181.79 629.888 181.589 627.785 181.288C592.141 177.476 573.417 171.757 572.816 171.155C572.216 170.553 575.42 166.138 577.923 165.938C584.331 165.235 605.858 166.54 628.586 168.446C655.52 170.754 684.456 174.064 692.866 176.372C694.468 176.974 697.071 181.89 695.67 182.592Z" fill="url(#paint8_linear)"/>
<path fill-rule="evenodd" clip-rule="evenodd" d="M632.291 99.9213C630.989 96.2092 630.889 92.8983 632.09 92.3967C633.292 91.9954 635.394 94.6039 636.696 98.3161C637.998 102.028 638.098 105.339 636.896 105.841C635.695 106.242 633.692 103.634 632.291 99.9213Z" fill="url(#paint9_linear)"/>
<path opacity="0.6" fill-rule="evenodd" clip-rule="evenodd" d="M620.276 106.643C620.276 106.643 627.785 105.138 635.394 104.436C635.495 99.5199 631.69 94.5034 631.69 94.5034C631.69 94.5034 624.281 100.623 619.475 103.533C619.875 105.841 620.276 106.643 620.276 106.643Z" fill="url(#paint10_linear)"/>
<path fill-rule="evenodd" clip-rule="evenodd" d="M665.132 169.951C669.737 170.553 673.242 172.66 672.941 174.666C672.641 176.673 668.736 177.777 664.13 177.275C659.525 176.673 656.02 174.566 656.321 172.56C656.521 170.553 660.526 169.449 665.132 169.951Z" fill="url(#paint11_linear)"/>
<path fill-rule="evenodd" clip-rule="evenodd" d="M664.431 174.867C658.523 174.064 655.219 166.74 655.019 162.627C655.82 156.707 661.227 152.393 667.234 153.196C669.938 153.497 672.341 155.002 674.043 157.109C675.645 159.216 677.247 162.928 676.546 165.536C676.446 165.938 676.245 166.239 676.145 166.64C673.542 171.656 670.438 175.669 664.431 174.867Z" fill="url(#paint12_linear)"/>
<path fill-rule="evenodd" clip-rule="evenodd" d="M672.841 126.809L675.344 127.913L687.56 123.799L688.661 119.084L685.958 116.275C685.958 116.275 680.951 114.77 680.651 114.87" fill="url(#paint13_linear)"/>
<path fill-rule="evenodd" clip-rule="evenodd" d="M689.161 134.033C689.161 134.033 686.959 139.15 684.556 139.752C682.153 140.454 674.543 128.214 674.543 128.214C674.543 128.214 689.061 130.521 689.161 132.227" fill="url(#paint14_linear)"/>
<path fill-rule="evenodd" clip-rule="evenodd" d="M679.349 143.765C679.249 143.263 679.049 142.661 678.749 142.26C678.448 141.759 677.948 141.458 677.547 141.157C675.244 139.652 672.341 139.05 669.637 139.351C669.137 139.451 668.736 139.551 668.436 139.852C668.135 140.254 668.135 140.856 668.336 141.257C668.736 142.06 669.437 142.661 670.238 143.163C672.741 144.869 675.244 146.675 677.847 148.38C678.749 148.982 679.95 149.283 680.15 147.879C680.351 146.474 679.149 145.069 679.349 143.765Z" fill="url(#paint15_linear)"/>
<path fill-rule="evenodd" clip-rule="evenodd" d="M666.834 152.694C671.439 153.296 674.944 155.403 674.643 157.41C674.343 159.416 670.438 160.52 665.832 160.018C661.227 159.516 657.722 157.309 658.023 155.303C658.323 153.296 662.228 152.092 666.834 152.694Z" fill="url(#paint16_linear)"/>
<path fill-rule="evenodd" clip-rule="evenodd" d="M661.527 138.447C660.826 141.357 660.326 144.367 659.825 147.377C659.625 148.982 659.424 150.688 660.125 152.092C660.826 153.497 662.328 154.4 663.73 155.002C666.834 156.306 670.538 156.808 673.542 155.403C675.144 154.701 676.446 153.597 677.747 152.493C678.648 151.691 679.549 150.888 679.95 149.785C680.05 149.484 680.15 149.082 679.95 148.781C679.85 148.581 679.65 148.48 679.449 148.38C676.145 146.072 672.841 143.765 669.537 141.558C667.935 140.454 666.233 139.35 664.631 138.247C663.53 137.344 662.028 136.441 661.527 138.447Z" fill="url(#paint17_linear)"/>
<path fill-rule="evenodd" clip-rule="evenodd" d="M638.298 134.434C638.198 134.735 638.098 135.137 638.298 135.337C638.398 135.538 638.698 135.638 638.899 135.739C640.401 136.341 641.902 136.842 643.504 137.043C643.705 137.043 643.905 137.143 644.105 137.043C644.305 137.043 644.506 136.842 644.606 136.742C645.307 136.24 646.008 135.538 646.008 134.635C644.406 134.434 642.703 133.832 641.502 132.628C641.001 132.127 640 130.321 639.399 130.822C638.698 131.324 638.398 133.732 638.298 134.434Z" fill="url(#paint18_linear)"/>
<path fill-rule="evenodd" clip-rule="evenodd" d="M650.013 132.729C649.512 133.23 648.911 133.732 648.311 134.033C645.707 135.538 642.203 134.635 640.301 132.327C640 131.926 639.7 131.525 639.5 131.023C639.4 130.622 639.299 130.12 639.4 129.719C639.5 128.515 639.9 127.411 640.401 126.308C641.302 124.1 642.403 121.994 643.404 119.887C643.505 119.586 643.805 119.285 644.105 119.285C644.306 119.285 644.406 119.385 644.506 119.485C647.309 121.793 650.113 123.9 653.217 125.806C654.919 126.91 655.82 125.906 653.717 128.916C652.716 130.421 651.314 131.525 650.013 132.729Z" fill="url(#paint19_linear)"/>
<path fill-rule="evenodd" clip-rule="evenodd" d="M648.21 125.004C647.209 124.301 646.208 123.298 645.407 122.395C644.506 121.492 643.505 120.79 643.705 119.485C643.705 119.285 644.105 118.382 644.706 117.981C645.207 117.68 645.908 117.479 646.008 117.479C647.61 117.278 648.411 117.579 649.812 118.181C650.413 118.482 650.914 118.884 651.414 119.184C653.417 120.689 655.52 123.298 655.119 126.107C654.518 129.819 649.412 125.806 648.21 125.004Z" fill="url(#paint20_linear)"/>
<path fill-rule="evenodd" clip-rule="evenodd" d="M649.812 121.09C650.113 121.793 650.413 122.595 651.014 123.197C651.715 124 652.716 124.401 653.617 124.803C657.021 126.107 660.826 126.508 664.431 125.806C665.132 125.706 665.933 125.505 666.633 125.204C668.336 124.401 669.537 122.696 670.138 120.89C670.739 119.084 670.638 117.178 670.338 115.271C670.238 114.469 670.038 113.566 669.437 112.964C669.036 112.562 668.436 112.261 667.935 112.061C663.129 109.954 657.622 109.753 652.616 111.258C652.115 111.358 651.715 111.559 651.314 111.86C650.413 112.562 649.612 114.469 649.312 115.572C648.811 117.278 649.212 119.485 649.812 121.09Z" fill="url(#paint21_linear)"/>
<path fill-rule="evenodd" clip-rule="evenodd" d="M663.429 136.742C663.229 135.237 663.029 133.632 663.73 132.227C664.531 130.622 666.333 129.819 668.035 129.217C668.636 129.017 669.237 128.816 669.837 128.816C670.739 128.816 671.64 129.117 672.541 129.117C673.442 129.117 674.343 128.716 675.144 128.816C676.145 128.916 676.946 129.619 677.747 130.321C680.25 132.428 682.653 134.635 684.856 137.143C685.357 137.745 685.957 138.648 685.557 139.35C685.257 139.952 684.556 140.253 683.955 140.354C680.651 141.357 677.247 142.36 673.842 141.859C673.142 141.758 672.441 141.558 671.64 141.357C669.137 140.755 666.433 139.952 664.531 138.147C663.73 137.344 663.029 136.341 663.229 135.237" fill="url(#paint22_linear)"/>
<path fill-rule="evenodd" clip-rule="evenodd" d="M681.952 124C683.054 123.098 684.055 121.894 684.656 120.589C685.056 119.887 685.257 119.285 685.557 118.583C685.657 118.181 685.757 117.88 685.857 117.479C685.857 117.278 685.957 117.178 685.957 116.977C685.957 116.777 685.957 116.576 686.058 116.375C686.058 116.074 686.959 116.576 687.159 116.576C688.461 117.178 689.762 117.78 690.663 118.884C691.264 119.586 691.564 120.489 691.865 121.392C692.165 122.596 692.566 123.9 692.566 125.104C692.566 126.007 692.365 126.91 692.065 127.813C691.665 129.117 691.164 130.321 690.663 131.525C690.163 132.729 689.562 133.933 688.761 135.037C688.561 135.338 688.461 135.639 688.06 135.538C687.76 135.438 687.159 134.936 686.658 134.535C683.054 131.324 680.451 129.017 676.345 129.519C675.645 129.619 674.844 129.719 674.443 129.218C674.043 128.716 673.542 127.412 674.143 126.91C674.643 126.408 676.145 126.609 676.846 126.509C678.648 126.107 680.35 125.204 681.952 124Z" fill="url(#paint23_linear)"/>
<path fill-rule="evenodd" clip-rule="evenodd" d="M681.152 115.171C681.452 115.472 681.752 116.074 681.752 116.476C681.953 118.583 681.352 120.79 679.95 122.495C678.548 124.201 676.546 125.405 674.543 126.308C674.043 126.509 673.542 126.709 672.941 126.81C672.941 126.609 673.041 126.308 673.041 126.107C674.744 125.706 676.045 124.502 676.946 122.997C677.847 121.492 678.148 119.686 678.448 117.981C678.548 117.278 678.448 115.773 678.949 115.272C679.349 114.469 680.351 114.569 681.152 115.171Z" fill="url(#paint24_linear)"/>
<path fill-rule="evenodd" clip-rule="evenodd" d="M667.835 111.96C667.835 111.96 663.329 115.673 664.731 119.886C666.133 124.1 666.633 125.104 666.934 125.003C667.134 124.903 670.739 121.492 670.739 121.492L669.337 112.964C669.337 112.964 668.636 112.362 667.835 111.96Z" fill="url(#paint25_linear)"/>
<path fill-rule="evenodd" clip-rule="evenodd" d="M675.044 111.86C675.344 111.961 675.745 112.161 675.845 112.462C675.945 112.563 675.845 112.864 675.745 113.064C675.544 113.767 674.743 113.566 674.043 113.666C673.342 113.767 672.641 113.867 671.94 113.967C670.538 114.268 669.337 115.472 668.836 116.776C668.335 118.081 668.536 119.686 668.636 121.091C668.736 122.495 669.337 123.9 670.438 124.702C670.939 125.104 671.64 125.605 671.339 126.207C670.138 126.508 668.936 125.806 668.135 124.903C667.234 123.9 666.934 122.897 666.633 121.291C666.533 120.388 666.633 119.385 666.633 118.482C666.733 117.077 666.934 115.372 667.835 114.168C668.636 113.064 669.837 112.362 671.039 112.061C672.441 111.66 673.742 111.66 675.044 111.86Z" fill="url(#paint26_linear)"/>
<path d="M674.143 127.913C674.143 127.913 678.248 127.511 679.75 127.712C681.352 127.913 685.557 129.618 686.558 130.32C687.56 131.023 689.662 132.929 689.662 132.929" stroke="url(#paint27_linear)" stroke-width="0.5" stroke-linecap="square"/>
<path d="M665.332 155.503C665.332 155.503 663.83 146.374 667.635 140.655" stroke="url(#paint28_linear)" stroke-width="0.5" stroke-linecap="square"/>
<path d="M667.835 140.153C667.835 140.153 668.836 136.943 671.339 135.538C673.842 134.033 674.543 133.832 675.444 133.531C676.346 133.331 678.949 133.933 679.55 133.732C680.15 133.531 680.551 133.23 680.551 133.23" stroke="url(#paint29_linear)" stroke-width="0.5" stroke-linecap="square"/>
<path d="M666.133 120.188C666.133 120.188 654.518 118.382 649.913 121.291" stroke="url(#paint30_linear)" stroke-width="0.5" stroke-linecap="square"/>
<path fill-rule="evenodd" clip-rule="evenodd" d="M679.85 119.486C679.549 120.79 678.548 122.897 677.547 123.8C675.945 125.305 674.143 126.509 672.24 126.107C670.338 125.706 669.036 124.101 668.536 121.894C668.336 120.79 668.235 119.586 668.536 118.282C668.836 116.576 669.637 115.071 670.739 114.068C671.94 112.864 673.442 112.262 674.944 112.563C676.346 112.864 678.248 113.767 678.949 115.172C679.75 116.576 680.15 117.68 679.85 119.486Z" fill="url(#paint31_linear)"/>
<path fill-rule="evenodd" clip-rule="evenodd" d="M602.053 166.138C597.447 165.938 593.642 167.342 593.542 169.449C593.442 171.456 597.147 173.262 601.753 173.462C606.358 173.663 610.163 172.258 610.263 170.151C610.363 168.145 606.659 166.339 602.053 166.138Z" fill="url(#paint32_linear)"/>
<path fill-rule="evenodd" clip-rule="evenodd" d="M601.853 171.055C607.86 171.356 612.266 164.634 613.267 160.621C613.567 154.601 608.861 149.484 602.854 149.183C600.151 149.083 597.447 150.086 595.445 151.892C593.542 153.698 591.239 157.109 591.54 159.818C591.54 160.219 591.64 160.621 591.84 160.922C593.342 166.44 595.845 170.854 601.853 171.055Z" fill="url(#paint33_linear)"/>
<path fill-rule="evenodd" clip-rule="evenodd" d="M584.531 126.609C584.531 126.609 585.833 132.027 588.035 133.03C590.338 134.134 599.85 123.398 599.85 123.398C599.85 123.398 585.132 123.198 584.831 124.903" fill="url(#paint34_linear)"/>
<path fill-rule="evenodd" clip-rule="evenodd" d="M592.541 137.946C592.741 137.444 592.942 136.943 593.342 136.541C593.743 136.14 594.243 135.839 594.744 135.638C597.247 134.535 600.151 134.434 602.854 135.237C603.254 135.337 603.755 135.538 603.955 135.939C604.156 136.341 604.055 136.943 603.755 137.344C603.254 138.147 602.353 138.548 601.552 138.849C598.749 140.153 595.945 141.457 593.142 142.661C592.141 143.063 590.939 143.163 590.939 141.758C591.039 140.454 592.441 139.25 592.541 137.946Z" fill="url(#paint35_linear)"/>
<path fill-rule="evenodd" clip-rule="evenodd" d="M603.355 148.882C598.749 148.681 594.944 150.086 594.844 152.193C594.744 154.199 598.448 156.005 603.054 156.206C607.66 156.407 611.465 155.002 611.565 152.895C611.565 150.888 607.96 149.082 603.355 148.882Z" fill="url(#paint36_linear)"/>
<path fill-rule="evenodd" clip-rule="evenodd" d="M610.864 135.639C611.064 138.649 611.064 141.658 610.964 144.668C610.964 146.274 610.764 147.979 609.863 149.283C608.961 150.588 607.359 151.19 605.858 151.491C602.553 152.293 598.849 152.093 596.045 150.186C594.644 149.183 593.542 147.879 592.441 146.574C591.64 145.672 590.939 144.668 590.739 143.464C590.639 143.163 590.739 142.762 590.939 142.461C591.039 142.26 591.239 142.16 591.44 142.06C595.044 140.354 598.749 138.649 602.353 137.043C604.155 136.241 605.958 135.438 607.76 134.635C609.062 134.234 610.764 133.632 610.864 135.639Z" fill="url(#paint37_linear)"/>
<path fill-rule="evenodd" clip-rule="evenodd" d="M609.262 133.732C609.762 132.328 610.163 130.722 609.762 129.217C609.262 127.512 607.56 126.408 606.058 125.505C605.557 125.204 604.957 124.903 604.356 124.803C603.455 124.602 602.554 124.803 601.652 124.703C600.751 124.502 599.95 124 599.049 124C598.048 123.9 597.147 124.502 596.246 125.004C593.442 126.709 590.639 128.415 588.136 130.522C587.535 131.023 586.834 131.826 587.034 132.629C587.234 133.231 587.835 133.632 588.436 133.933C591.54 135.538 594.744 137.043 598.148 137.143C598.849 137.143 599.65 137.143 600.351 137.043C602.954 136.842 605.657 136.541 607.96 135.137C608.861 134.535 609.762 133.532 609.762 132.428" fill="url(#paint38_linear)"/>
<path fill-rule="evenodd" clip-rule="evenodd" d="M593.242 117.98C592.241 116.877 591.54 115.472 591.139 114.168C590.939 113.466 590.739 112.763 590.639 111.961C590.539 111.559 590.539 111.258 590.539 110.857C590.539 110.656 590.539 110.456 590.539 110.355C590.539 110.155 590.639 109.954 590.539 109.753C590.639 109.452 589.537 109.753 589.437 109.753C588.035 110.155 586.634 110.556 585.532 111.459C584.831 112.061 584.331 112.864 583.93 113.666C583.43 114.77 582.829 115.974 582.629 117.178C582.529 118.081 582.529 118.984 582.629 119.887C582.829 121.191 583.029 122.495 583.33 123.799C583.63 125.104 584.03 126.408 584.631 127.612C584.831 128.013 584.831 128.214 585.232 128.214C585.532 128.214 586.233 127.813 586.734 127.512C590.839 125.003 593.743 123.197 597.748 124.401C598.448 124.602 599.149 124.803 599.75 124.401C600.251 124 600.952 122.796 600.451 122.194C600.05 121.693 598.549 121.592 597.848 121.291C596.146 120.589 594.644 119.485 593.242 117.98Z" fill="url(#paint39_linear)"/>
<path d="M600.351 123.198C600.351 123.198 596.446 122.094 594.844 121.994C593.242 121.994 588.836 122.897 587.635 123.398C586.433 123.8 584.131 125.405 584.131 125.405" stroke="url(#paint40_linear)" stroke-width="0.5" stroke-linecap="square"/>
<path d="M604.256 151.792C604.256 151.792 607.261 143.063 604.556 136.742" stroke="url(#paint41_linear)" stroke-width="0.5" stroke-linecap="square"/>
<path d="M604.356 136.34C604.356 136.34 603.855 133.03 601.652 131.123C599.45 129.217 598.849 128.916 597.948 128.515C597.047 128.113 594.443 128.314 593.843 128.013C593.242 127.712 592.942 127.411 592.942 127.411" stroke="url(#paint42_linear)" stroke-width="0.5" stroke-linecap="square"/>
<path fill-rule="evenodd" clip-rule="evenodd" d="M620.876 105.038C622.078 111.058 613.968 115.372 608.461 116.877C608.361 116.977 608.161 116.977 608.06 116.977C606.559 117.378 605.257 117.579 604.456 117.479C601.953 117.278 598.248 112.562 598.248 111.258C598.248 110.255 600.05 106.643 602.453 104.636C602.554 104.536 602.654 104.436 602.854 104.335C603.254 104.034 603.655 103.733 604.055 103.633C606.659 102.429 619.675 98.717 620.876 105.038Z" fill="url(#paint43_linear)"/>
<path fill-rule="evenodd" clip-rule="evenodd" d="M602.654 104.436C606.258 106.744 608.161 113.666 608.361 116.877C608.261 116.977 608.06 116.977 607.96 116.977C607.86 113.967 605.858 106.844 602.353 104.737L602.654 104.436Z" fill="url(#paint44_linear)"/>
<path fill-rule="evenodd" clip-rule="evenodd" d="M599.249 108.549C598.148 108.047 588.236 108.95 588.336 110.154C588.336 110.756 589.037 115.472 591.84 118.181C594.544 120.789 599.35 121.492 600.05 121.893C601.452 122.595 602.954 118.783 603.655 117.478C604.356 115.973 602.654 112.161 599.249 108.549Z" fill="url(#paint45_linear)"/>
<path fill-rule="evenodd" clip-rule="evenodd" d="M595.545 111.158C597.047 111.258 598.148 112.161 598.148 113.164C598.148 114.268 596.846 115.071 595.345 114.97C593.843 114.87 592.741 113.967 592.741 112.964C592.841 111.86 594.143 111.058 595.545 111.158Z" fill="url(#paint46_linear)"/>
<path fill-rule="evenodd" clip-rule="evenodd" d="M322.605 488.796C322.605 500.234 255.721 525.517 175.922 525.517C96.1223 525.517 30.5405 500.234 30.5405 488.796" fill="url(#paint47_linear)"/>
<path fill-rule="evenodd" clip-rule="evenodd" d="M277.549 494.214H80.5029C73.8947 494.214 57.8747 472.643 57.8747 466.021V424.285C57.2739 396.794 63.1813 410.138 69.8897 412.245H283.256C289.864 412.245 295.271 412.747 295.271 419.368V472.643C295.271 479.265 284.157 494.214 277.549 494.214Z" fill="url(#paint48_linear)"/>
<path fill-rule="evenodd" clip-rule="evenodd" d="M322.605 399.303C322.605 404.018 280.052 432.311 175.521 434.017C67.3865 435.722 30.5405 403.416 30.5405 398.701C30.5405 393.985 95.922 393.785 175.521 393.785C255.12 393.785 322.605 394.587 322.605 399.303Z" fill="url(#paint49_linear)"/>
<path fill-rule="evenodd" clip-rule="evenodd" d="M176.523 423.281C257.201 423.281 322.605 411.423 322.605 396.794C322.605 382.166 257.201 370.308 176.523 370.308C95.8436 370.308 30.4404 382.166 30.4404 396.794C30.4404 411.423 95.8436 423.281 176.523 423.281Z" fill="url(#paint50_linear)"/>
<path fill-rule="evenodd" clip-rule="evenodd" d="M273.944 396.293C279.751 385.357 228.087 347.934 175.221 347.934C122.355 347.934 70.6906 385.256 76.3977 396.192C81.5041 405.824 123.056 414.252 175.922 414.252C228.788 414.252 267.436 408.432 273.944 396.293Z" fill="url(#paint51_linear)"/>
<path fill-rule="evenodd" clip-rule="evenodd" d="M204.858 359.773C213.669 374.421 200.452 381.645 172.217 392.179C143.982 402.714 99.1261 395.59 96.8232 389.27C94.4202 382.949 105.634 369.103 133.97 358.569C162.105 348.135 199.151 350.342 204.858 359.773Z" fill="url(#paint52_linear)"/>
<path fill-rule="evenodd" clip-rule="evenodd" d="M322.605 488.796C322.605 500.233 252.818 514.48 173.018 514.48C93.2187 514.48 30.5405 500.233 30.5405 488.796C30.5405 477.358 96.8232 462.51 176.623 462.51C256.422 462.51 322.605 477.258 322.605 488.796Z" fill="url(#paint53_linear)"/>
<path fill-rule="evenodd" clip-rule="evenodd" d="M293.568 477.76C292.867 479.165 291.966 480.469 291.065 481.873C290.565 482.576 289.964 483.278 289.463 483.88C286.46 487.492 282.855 490.803 278.55 493.712C275.746 495.619 272.742 497.324 269.438 498.929C264.432 501.337 258.725 503.444 252.517 505.35C251.416 505.651 250.415 505.952 249.213 506.253C248.412 506.454 247.511 506.655 246.71 506.956C246.71 502.642 247.01 498.528 247.411 494.816C247.711 492.508 248.112 490.201 248.612 488.094C257.624 448.765 293.869 447.762 293.568 477.76Z" fill="url(#paint54_linear)"/>
<path fill-rule="evenodd" clip-rule="evenodd" d="M135.672 369.606L124.558 311.616C124.458 311.014 124.858 310.512 125.559 310.311C126.26 310.211 126.861 310.612 126.961 311.114L141.078 368.603C141.379 369.907 136.072 370.91 135.672 369.606V369.606Z" fill="url(#paint55_linear)"/>
<path fill-rule="evenodd" clip-rule="evenodd" d="M1244.45 284.225L1403.05 274.794C1408.36 274.493 1420.77 264.762 1420.47 259.444L1417.97 217.406C1417.17 195.234 1412.96 206.27 1407.76 208.276L1236.14 218.51C1230.84 218.811 1226.53 219.513 1226.83 224.831L1229.33 267.671C1229.54 273.089 1239.15 284.526 1244.45 284.225Z" fill="url(#paint56_linear)"/>
<path fill-rule="evenodd" clip-rule="evenodd" d="M1225.33 220.617C1218.92 208.979 1266.68 164.934 1318.05 161.824C1369.41 158.814 1421.87 196.739 1416.97 209.079C1412.66 219.915 1372.81 231.553 1321.55 234.663C1270.29 237.773 1232.44 233.559 1225.33 220.617Z" fill="url(#paint57_linear)"/>
<path fill-rule="evenodd" clip-rule="evenodd" d="M1290.01 176.572C1282.4 193.227 1295.72 200.35 1323.85 210.283C1351.99 220.215 1394.94 209.881 1396.84 202.758C1398.75 195.635 1386.93 181.187 1358.8 171.255C1330.66 161.322 1294.92 165.837 1290.01 176.572Z" fill="url(#paint58_linear)"/>
<path fill-rule="evenodd" clip-rule="evenodd" d="M1230.14 283.924C1230.64 293.155 1277.9 301.783 1331.06 298.673C1384.23 295.563 1421.87 284.627 1421.37 275.397C1421.27 273.892 1421.37 260.147 1418.97 258.642C1406.96 251.217 1370.51 254.428 1326.26 257.036C1281.8 259.645 1228.23 249.913 1229.03 263.859C1229.13 266.367 1230.14 282.42 1230.14 283.924Z" fill="url(#paint59_linear)"/>
<path fill-rule="evenodd" clip-rule="evenodd" d="M1266.18 280.614C1266.68 282.319 1267.08 284.125 1267.48 285.931C1268.08 288.941 1268.48 292.151 1268.68 295.663C1268.78 297.068 1267.38 296.967 1266.68 296.767C1265.98 296.767 1265.18 296.666 1264.28 296.466C1259.17 295.262 1255.17 295.462 1250.46 293.957C1247.06 292.954 1245.45 292.854 1242.25 291.75C1237.65 289.844 1238.25 290.245 1233.64 288.138C1232.64 287.336 1230.64 286.433 1230.14 283.924C1229.33 281.617 1229.84 276.199 1229.54 274.293C1227.83 250.214 1257.17 249.211 1266.18 280.614Z" fill="url(#paint60_linear)"/>
<path fill-rule="evenodd" clip-rule="evenodd" d="M1329.06 170.854C1329.06 170.854 1340.57 154.601 1347.78 155.002C1354.99 155.303 1352.39 172.259 1352.39 172.259C1333.66 176.372 1329.06 170.854 1329.06 170.854Z" fill="url(#paint61_linear)"/>
<path fill-rule="evenodd" clip-rule="evenodd" d="M1414.37 424.285C1413.76 426.492 1412.96 428.599 1411.86 430.505C1410.76 432.412 1409.56 434.017 1408.36 435.722C1403.05 442.143 1396.04 446.759 1388.83 449.969C1381.52 453.079 1374.02 455.086 1366.41 456.39C1358.8 457.795 1351.29 458.497 1343.78 458.999C1328.66 459.902 1313.64 459.601 1298.72 458.798C1268.78 457.293 1239.15 454.183 1209.61 451.173C1150.44 445.153 1091.36 439.033 1032.19 437.93C1032.19 437.93 1027.88 441.04 1024.28 442.846C1020.67 444.551 1017.07 446.157 1013.37 447.762C1006.06 450.872 998.747 453.681 991.338 456.39C976.52 461.708 961.501 466.323 946.282 470.336C931.163 474.449 915.744 477.961 900.425 481.071L888.91 483.379L877.396 485.385C873.491 486.088 869.686 486.79 865.882 487.392L854.167 488.997C822.928 493.01 791.689 494.515 760.45 495.418C729.211 496.522 698.073 496.622 666.834 496.722C604.456 496.622 542.078 495.418 479.8 494.315L386.284 492.709C363.656 492.509 335.621 492.208 310.089 492.509C302.179 492.609 284.657 494.515 277.448 494.716C280.252 492.509 285.558 488.897 286.76 486.89C296.472 486.589 307.285 485.486 318.099 485.385C341.428 485.185 366.059 485.285 386.384 485.385L479.901 486.489C542.278 487.292 604.456 488.195 666.834 487.994C697.972 487.793 729.111 487.492 760.15 486.288C791.289 485.285 822.227 483.479 852.865 479.466L864.28 477.861C868.084 477.259 871.989 476.456 875.694 475.754L887.108 473.647L898.522 471.239C913.641 468.129 928.66 464.316 943.679 460.203C958.597 456.089 973.416 451.976 987.934 446.658C995.243 444.05 1002.35 441.14 1009.36 438.03C1012.86 436.425 1016.37 434.92 1019.77 433.214C1023.18 431.609 1032.49 426.191 1032.49 426.191C1032.49 426.191 1092.36 429.101 1122.1 431.709C1151.84 434.318 1181.48 437.629 1210.91 440.94C1240.55 444.15 1269.99 447.561 1299.52 449.267C1314.24 450.069 1329.06 450.571 1343.58 449.869C1350.89 449.468 1358.1 448.866 1365.3 447.561C1372.41 446.357 1379.32 444.652 1385.83 441.943C1392.24 439.234 1398.05 435.421 1402.35 430.305C1403.35 429 1404.35 427.696 1405.15 426.292C1405.95 424.987 1406.46 423.583 1406.86 422.178C1407.66 419.268 1407.66 416.058 1407.06 412.747C1405.85 406.226 1402.45 399.805 1398.45 393.986C1394.34 388.066 1389.33 382.648 1384.13 377.732C1373.51 367.699 1361.5 359.171 1348.78 351.546C1336.17 343.921 1322.85 337.3 1309.33 331.481C1282.1 319.842 1253.56 311.415 1224.63 305.194C1195.59 298.974 1166.16 295.061 1136.52 293.255L1136.62 290.747C1196.09 293.255 1255.77 303.589 1311.54 326.163C1325.45 331.882 1338.97 338.403 1352.09 345.928C1365.2 353.553 1377.72 362.081 1389.03 372.515C1394.64 377.732 1399.95 383.351 1404.55 389.671C1409.16 395.992 1413.16 403.116 1414.87 411.443C1415.37 415.356 1415.37 419.87 1414.37 424.285Z" fill="url(#paint62_linear)"/>
<path opacity="0.4" fill-rule="evenodd" clip-rule="evenodd" d="M1190.69 277.604L1195.39 296.265L1201.3 296.064L1204.3 277.002" fill="url(#paint63_linear)"/>
<path fill-rule="evenodd" clip-rule="evenodd" d="M1204.5 274.193C1204.71 280.212 1201.9 288.138 1198 288.239C1194.09 288.339 1190.59 280.714 1190.39 274.694C1190.19 268.675 1193.09 263.758 1197 263.558C1200.9 263.457 1204.2 268.173 1204.5 274.193Z" fill="url(#paint64_linear)"/>
<path fill-rule="evenodd" clip-rule="evenodd" d="M1204.2 267.671C1204.4 272.086 1201.2 275.798 1196.99 275.898C1192.89 276.099 1189.39 272.587 1189.18 268.173C1188.98 263.759 1192.19 260.046 1196.39 259.946C1200.6 259.846 1204 263.257 1204.2 267.671Z" fill="url(#paint65_linear)"/>
<path fill-rule="evenodd" clip-rule="evenodd" d="M1201 280.714C1200.3 282.821 1199.3 285.53 1198.8 285.43C1198.4 285.329 1198.7 282.921 1198.6 280.714C1198.5 277.203 1200 277.102 1200.4 277.203C1200.9 277.303 1201.9 277.905 1201 280.714Z" fill="url(#paint66_linear)"/>
<path fill-rule="evenodd" clip-rule="evenodd" d="M1194.29 269.878C1194.39 271.584 1193.59 272.988 1192.49 273.089C1191.49 273.089 1190.59 271.784 1190.49 270.079C1190.39 268.373 1191.19 266.969 1192.29 266.868C1193.29 266.768 1194.19 268.173 1194.29 269.878Z" fill="url(#paint67_linear)"/>
<path fill-rule="evenodd" clip-rule="evenodd" d="M1192.46 270.888C1192.9 270.871 1193.24 270.408 1193.22 269.854C1193.2 269.301 1192.83 268.866 1192.38 268.882C1191.94 268.899 1191.6 269.362 1191.62 269.916C1191.64 270.469 1192.02 270.905 1192.46 270.888Z" fill="white"/>
<path fill-rule="evenodd" clip-rule="evenodd" d="M1201.3 296.064C1201.3 296.566 1200 296.967 1198.4 297.068C1196.79 297.168 1195.49 296.767 1195.39 296.365C1195.39 295.864 1196.69 295.462 1198.3 295.362C1199.9 295.262 1201.3 295.563 1201.3 296.064Z" fill="url(#paint68_linear)"/>
<path opacity="0.52" fill-rule="evenodd" clip-rule="evenodd" d="M932.265 484.883C932.165 482.476 894.518 482.175 848.06 484.081C801.702 486.087 764.155 489.699 764.255 492.107C764.355 494.515 802.002 494.816 848.46 492.91C894.818 490.803 932.365 487.291 932.265 484.883Z" fill="url(#paint69_radial)"/>
<path fill-rule="evenodd" clip-rule="evenodd" d="M663.83 573.976C663.53 568.357 688.06 564.043 718.398 564.444C748.836 564.846 773.667 569.762 773.967 575.481C774.268 581.099 749.737 585.413 719.399 585.012C688.961 584.61 664.03 579.694 663.83 573.976Z" fill="url(#paint70_linear)"/>
<path fill-rule="evenodd" clip-rule="evenodd" d="M664.432 575.481C662.529 572.571 663.531 551.903 675.445 544.579C687.36 537.155 762.053 553.709 768.161 560.933C774.369 568.157 774.469 575.18 774.469 575.18C760.551 579.293 666.334 578.792 664.432 575.481Z" fill="url(#paint71_linear)"/>
<path fill-rule="evenodd" clip-rule="evenodd" d="M663.429 566.651C662.328 565.146 669.137 543.475 673.942 545.883C721.201 569.862 771.164 565.347 772.565 568.658C773.967 571.969 773.967 573.875 773.967 573.875C769.261 574.979 664.03 567.755 663.429 566.651Z" fill="url(#paint72_linear)"/>
<g opacity="0.75">
<path fill-rule="evenodd" clip-rule="evenodd" d="M663.93 572.019C670.038 573.122 674.944 572.521 675.144 572.521H675.244C675.845 572.42 676.245 571.618 676.145 570.715C676.045 569.812 675.444 569.21 674.844 569.31C674.744 569.31 669.737 569.812 663.83 568.708C663.83 569.912 663.83 571.016 663.93 572.019Z" fill="url(#paint73_linear)"/>
</g>
<path fill-rule="evenodd" clip-rule="evenodd" d="M1220.82 510.166C1221.12 504.548 1240.25 501.638 1263.78 503.745C1287.21 505.852 1306.03 512.173 1305.73 517.892C1305.43 523.51 1286.31 526.42 1262.78 524.313C1239.35 522.206 1220.52 515.885 1220.82 510.166Z" fill="url(#paint74_linear)"/>
<path fill-rule="evenodd" clip-rule="evenodd" d="M1221.02 511.571C1219.62 508.661 1220.52 488.094 1229.84 481.272C1239.15 474.449 1296.62 494.716 1301.32 502.24C1306.03 509.765 1306.03 516.688 1306.03 516.688C1295.22 520.099 1222.43 514.982 1221.02 511.571Z" fill="url(#paint75_linear)"/>
<path fill-rule="evenodd" clip-rule="evenodd" d="M1220.12 503.043C1219.02 501.437 1224.93 480.469 1230.24 481.372C1257.17 485.886 1253.87 492.709 1252.66 496.12C1251.36 499.932 1249.26 503.745 1249.26 503.745C1237.65 504.748 1220.22 504.247 1220.12 503.043Z" fill="url(#paint76_linear)"/>
<g opacity="0.75">
<path fill-rule="evenodd" clip-rule="evenodd" d="M1220.72 508.009C1226.73 509.313 1231.74 508.912 1231.94 508.812H1232.04C1232.64 508.711 1233.04 508.009 1232.94 507.106C1232.84 506.203 1232.34 505.601 1231.64 505.601C1231.54 505.601 1226.53 506.003 1220.62 504.698C1220.62 505.902 1220.72 507.006 1220.72 508.009Z" fill="url(#paint77_linear)"/>
</g>
<path fill-rule="evenodd" clip-rule="evenodd" d="M1442 537.155V545.783C1402.35 542.472 1362.4 541.369 1322.55 541.469C1279.7 541.77 1236.94 543.777 1194.49 548.492C1173.26 550.9 1152.14 554.01 1131.21 557.923L1115.49 561.033L1099.97 564.545C1089.46 566.953 1078.95 569.461 1068.33 571.568C1026.08 580.497 983.328 587.018 940.475 592.135C897.621 597.252 854.668 600.563 811.714 603.272C798.898 604.074 786.283 604.777 773.467 605.479H522.053C532.566 604.676 543.079 603.874 553.593 603.171C596.546 600.362 639.5 598.054 682.353 595.847C768.16 591.734 853.967 587.821 939.073 578.29C981.526 573.474 1023.98 567.254 1065.83 558.726C1076.34 556.719 1086.66 554.311 1097.17 551.903L1113.09 548.392L1129.11 545.281C1150.44 541.469 1171.96 538.559 1193.39 536.453C1236.44 532.138 1279.6 530.533 1322.75 530.834C1344.28 531.135 1365.91 531.837 1387.43 533.041C1405.55 533.944 1423.78 535.349 1442 537.155Z" fill="url(#paint78_linear)"/>
<path opacity="0.4" fill-rule="evenodd" clip-rule="evenodd" d="M418.224 470.436L415.02 485.284H410.414L407.41 470.436" fill="url(#paint79_linear)"/>
<path fill-rule="evenodd" clip-rule="evenodd" d="M407.21 468.128C407.21 472.844 409.713 479.064 412.817 479.064C415.921 479.064 418.424 472.844 418.424 468.128C418.424 463.413 415.921 459.6 412.817 459.6C409.713 459.6 407.21 463.413 407.21 468.128Z" fill="url(#paint80_linear)"/>
<path fill-rule="evenodd" clip-rule="evenodd" d="M413.117 469.333C416.38 469.333 419.025 466.503 419.025 463.012C419.025 459.521 416.38 456.691 413.117 456.691C409.855 456.691 407.21 459.521 407.21 463.012C407.21 466.503 409.855 469.333 413.117 469.333Z" fill="url(#paint81_linear)"/>
<path fill-rule="evenodd" clip-rule="evenodd" d="M410.114 473.245C410.714 474.85 411.616 476.957 412.016 476.957C412.417 476.957 412.016 474.95 412.016 473.245C412.016 470.536 410.815 470.436 410.514 470.536C410.214 470.536 409.313 471.038 410.114 473.245Z" fill="url(#paint82_linear)"/>
<path fill-rule="evenodd" clip-rule="evenodd" d="M416.622 466.824C417.451 466.824 418.124 465.746 418.124 464.416C418.124 463.086 417.451 462.008 416.622 462.008C415.792 462.008 415.12 463.086 415.12 464.416C415.12 465.746 415.792 466.824 416.622 466.824Z" fill="url(#paint83_linear)"/>
<path fill-rule="evenodd" clip-rule="evenodd" d="M416.622 465.219C416.954 465.219 417.223 464.86 417.223 464.416C417.223 463.973 416.954 463.614 416.622 463.614C416.29 463.614 416.021 463.973 416.021 464.416C416.021 464.86 416.29 465.219 416.622 465.219Z" fill="white"/>
<path fill-rule="evenodd" clip-rule="evenodd" d="M412.717 485.987C413.989 485.987 415.02 485.672 415.02 485.284C415.02 484.896 413.989 484.582 412.717 484.582C411.445 484.582 410.414 484.896 410.414 485.284C410.414 485.672 411.445 485.987 412.717 485.987Z" fill="url(#paint84_linear)"/>
<path opacity="0.75" fill-rule="evenodd" clip-rule="evenodd" d="M609.562 292.352C580.826 285.128 551.69 279.811 522.354 275.798C493.017 271.784 463.48 269.377 433.843 268.373C404.306 267.37 374.569 267.571 345.032 269.577L322.905 271.483L300.777 274.092C286.159 275.998 271.441 277.202 256.823 277.503C227.386 277.904 197.849 274.995 168.613 270.781C139.376 266.668 110.34 261.049 81.0034 256.936C66.285 254.929 51.5667 253.123 36.6481 252.622C29.2388 252.22 21.7295 252.421 14.3202 252.822C9.61437 253.123 4.9085 253.625 0.202637 254.327V257.538C4.9085 256.735 9.71449 256.233 14.5205 255.932C21.9297 255.531 29.1387 255.431 36.5479 255.732C51.2663 256.233 65.8845 258.039 80.6029 259.946C109.839 263.959 138.875 269.577 168.212 273.691C197.549 277.904 227.186 280.814 256.823 280.312C271.741 280.112 286.459 278.908 301.178 276.901L323.105 274.293L345.133 272.386C374.569 270.38 404.206 270.079 433.643 271.082C463.18 272.085 492.616 274.493 521.853 278.406C551.189 282.319 580.226 287.636 608.861 294.86C637.497 302.084 665.732 311.214 692.466 323.554L693.467 321.247C666.633 308.806 638.298 299.576 609.562 292.352Z" fill="url(#paint85_linear)"/>
<path fill-rule="evenodd" clip-rule="evenodd" d="M790.788 600.663C789.286 601.566 767.559 606.281 724.205 606.582C721.802 606.582 719.499 606.582 717.196 606.582C678.148 606.181 657.322 602.068 656.621 601.466C655.92 600.864 658.924 595.747 661.627 595.345C668.536 593.941 691.865 593.038 716.696 592.737C746.133 592.336 777.772 592.938 787.084 594.443C788.886 594.744 792.29 599.76 790.788 600.663Z" fill="url(#paint86_linear)"/>
<path opacity="0.4" fill-rule="evenodd" clip-rule="evenodd" d="M254.119 251.518L248.412 270.179L241.403 269.978L237.698 251.016" fill="url(#paint87_linear)"/>
<path fill-rule="evenodd" clip-rule="evenodd" d="M237.599 248.107C237.298 254.127 240.803 262.053 245.408 262.153C250.014 262.254 254.219 254.628 254.52 248.609C254.82 242.589 251.216 237.673 246.51 237.472C241.904 237.372 237.799 242.188 237.599 248.107Z" fill="url(#paint88_linear)"/>
<path fill-rule="evenodd" clip-rule="evenodd" d="M237.9 241.686C237.7 246.1 241.504 249.812 246.511 249.913C251.417 250.113 255.622 246.602 255.822 242.187C256.022 237.773 252.218 234.061 247.211 233.96C242.205 233.76 238.1 237.271 237.9 241.686Z" fill="url(#paint89_linear)"/>
<path fill-rule="evenodd" clip-rule="evenodd" d="M241.704 254.628C242.505 256.735 243.806 259.444 244.307 259.344C244.808 259.243 244.407 256.835 244.507 254.628C244.707 251.117 242.905 251.016 242.304 251.117C241.904 251.217 240.602 251.819 241.704 254.628Z" fill="url(#paint90_linear)"/>
<path fill-rule="evenodd" clip-rule="evenodd" d="M249.814 243.793C249.714 245.498 250.715 246.903 251.917 247.003C253.118 247.103 254.219 245.699 254.32 243.993C254.42 242.288 253.418 240.883 252.217 240.783C250.915 240.783 249.914 242.087 249.814 243.793Z" fill="url(#paint91_linear)"/>
<path fill-rule="evenodd" clip-rule="evenodd" d="M253.011 244.032C253.105 243.486 252.739 242.967 252.194 242.872C251.65 242.778 251.132 243.144 251.037 243.69C250.943 244.236 251.309 244.755 251.853 244.85C252.398 244.944 252.916 244.578 253.011 244.032Z" fill="white"/>
<path fill-rule="evenodd" clip-rule="evenodd" d="M241.403 269.978C241.403 270.48 242.905 270.881 244.908 270.982C246.81 271.082 248.412 270.681 248.412 270.279C248.412 269.778 246.91 269.376 244.908 269.276C243.005 269.176 241.403 269.477 241.403 269.978Z" fill="url(#paint92_linear)"/>
<path fill-rule="evenodd" clip-rule="evenodd" d="M1312.04 542.071C1310.94 542.774 1295.02 546.185 1263.38 545.884C1261.58 545.884 1259.97 545.783 1258.27 545.783C1229.84 545.081 1214.72 541.57 1214.22 541.168C1213.72 540.767 1216.02 536.754 1217.92 536.453C1223.03 535.45 1240.05 534.948 1258.07 535.048C1279.5 535.048 1302.53 535.851 1309.33 537.155C1310.84 537.456 1313.14 541.369 1312.04 542.071Z" fill="url(#paint93_linear)"/>
<path opacity="0.43" fill-rule="evenodd" clip-rule="evenodd" d="M802.002 365.09C466.584 305.896 186.936 293.857 -2 323.956V605.278H1439.8V334.891C1243.35 351.847 1137.62 424.284 802.002 365.09Z" fill="url(#paint94_linear)"/>
</g>
<defs>
<linearGradient id="paint0_linear" x1="-152.989" y1="20.2539" x2="-152.989" y2="548.276" gradientUnits="userSpaceOnUse">
<stop stop-color="#FAFCFF"/>
<stop offset="1" stop-color="#B8DDFE"/>
</linearGradient>
<linearGradient id="paint1_linear" x1="-626.324" y1="89.6603" x2="-624.768" y2="638.874" gradientUnits="userSpaceOnUse">
<stop stop-color="#FAFCFF"/>
<stop offset="0.36" stop-color="#E2F1FF"/>
<stop offset="1" stop-color="#B8DDFE"/>
</linearGradient>
<linearGradient id="paint2_linear" x1="-76.4658" y1="94.3401" x2="-70.7169" y2="681.769" gradientUnits="userSpaceOnUse">
<stop stop-color="#FAFCFF"/>
<stop offset="1" stop-color="#BFE0FE"/>
</linearGradient>
<linearGradient id="paint3_linear" x1="-861.61" y1="137.772" x2="-852.673" y2="942.087" gradientUnits="userSpaceOnUse">
<stop stop-color="#FAFCFF"/>
<stop offset="1" stop-color="#B8DDFE"/>
</linearGradient>
<linearGradient id="paint4_linear" x1="1025.09" y1="495.781" x2="1028.08" y2="417.457" gradientUnits="userSpaceOnUse">
<stop stop-color="#C1DBF8" stop-opacity="0.5"/>
<stop offset="1" stop-color="#85B4F1"/>
</linearGradient>
<linearGradient id="paint5_linear" x1="781.805" y1="461.608" x2="888.569" y2="385.526" gradientUnits="userSpaceOnUse">
<stop stop-color="#DFF0FF"/>
<stop offset="1" stop-color="#C8E1FF"/>
</linearGradient>
<linearGradient id="paint6_linear" x1="798.034" y1="462.146" x2="850.556" y2="382.571" gradientUnits="userSpaceOnUse">
<stop stop-color="#C1DBF8" stop-opacity="0.5"/>
<stop offset="1" stop-color="#85B4F1"/>
</linearGradient>
<linearGradient id="paint7_linear" x1="872.977" y1="422.436" x2="867.084" y2="464.02" gradientUnits="userSpaceOnUse">
<stop stop-color="#C1DBF8" stop-opacity="0.718"/>
<stop offset="1" stop-color="#7EB0F1"/>
</linearGradient>
<linearGradient id="paint8_linear" x1="586.929" y1="168.802" x2="586.899" y2="183.082" gradientUnits="userSpaceOnUse">
<stop offset="0.001" stop-color="#E7F3FF"/>
<stop offset="0.209" stop-color="#EBF7FF"/>
<stop offset="0.746" stop-color="#DFEDFF"/>
<stop offset="1" stop-color="#EAF6FF"/>
</linearGradient>
<linearGradient id="paint9_linear" x1="638.822" y1="102.697" x2="631.458" y2="94.0452" gradientUnits="userSpaceOnUse">
<stop stop-color="#D6E6F9"/>
<stop offset="1" stop-color="#BAD0EF"/>
</linearGradient>
<linearGradient id="paint10_linear" x1="636.555" y1="104.865" x2="632.423" y2="95.4743" gradientUnits="userSpaceOnUse">
<stop stop-color="#5AB3FB" stop-opacity="0.6"/>
<stop offset="0.48" stop-color="#75CBFD" stop-opacity="0.504"/>
<stop offset="1" stop-color="#8FE2FF" stop-opacity="0.4"/>
</linearGradient>
<linearGradient id="paint11_linear" x1="654.002" y1="176.346" x2="667.002" y2="184.354" gradientUnits="userSpaceOnUse">
<stop offset="0.001" stop-color="#E3EEFD"/>
<stop offset="1" stop-color="#D1E0F9"/>
</linearGradient>
<linearGradient id="paint12_linear" x1="653.693" y1="173.547" x2="675.224" y2="176.24" gradientUnits="userSpaceOnUse">
<stop stop-color="#D6E6F9"/>
<stop offset="1" stop-color="#BAD0EF"/>
</linearGradient>
<linearGradient id="paint13_linear" x1="672.514" y1="126.903" x2="687.029" y2="129.614" gradientUnits="userSpaceOnUse">
<stop stop-color="#EAF6FF"/>
<stop offset="0.254" stop-color="#DFEDFF"/>
<stop offset="0.791" stop-color="#EBF7FF"/>
<stop offset="0.999" stop-color="#E7F3FF"/>
</linearGradient>
<linearGradient id="paint14_linear" x1="672.656" y1="139.366" x2="687.541" y2="142.387" gradientUnits="userSpaceOnUse">
<stop stop-color="#D6E6F9"/>
<stop offset="1" stop-color="#BAD0EF"/>
</linearGradient>
<linearGradient id="paint15_linear" x1="666.819" y1="148.253" x2="679.364" y2="150.729" gradientUnits="userSpaceOnUse">
<stop stop-color="#D6E6F9"/>
<stop offset="1" stop-color="#BAD0EF"/>
</linearGradient>
<linearGradient id="paint16_linear" x1="655.722" y1="159.068" x2="668.779" y2="167.037" gradientUnits="userSpaceOnUse">
<stop offset="0.001" stop-color="#E3EEFD"/>
<stop offset="1" stop-color="#D1E0F9"/>
</linearGradient>
<linearGradient id="paint17_linear" x1="658.664" y1="155.395" x2="678.789" y2="158.35" gradientUnits="userSpaceOnUse">
<stop offset="0.001" stop-color="#E7F3FF"/>
<stop offset="0.209" stop-color="#EBF7FF"/>
<stop offset="0.746" stop-color="#DFEDFF"/>
<stop offset="1" stop-color="#EAF6FF"/>
</linearGradient>
<linearGradient id="paint18_linear" x1="637.739" y1="136.648" x2="645.255" y2="138.097" gradientUnits="userSpaceOnUse">
<stop offset="0.001" stop-color="#E3EEFD"/>
<stop offset="1" stop-color="#D1E0F9"/>
</linearGradient>
<linearGradient id="paint19_linear" x1="638.845" y1="133.903" x2="653.801" y2="135.827" gradientUnits="userSpaceOnUse">
<stop offset="0.001" stop-color="#E3EEFD"/>
<stop offset="1" stop-color="#D1E0F9"/>
</linearGradient>
<linearGradient id="paint20_linear" x1="642.584" y1="127.096" x2="654.574" y2="129.013" gradientUnits="userSpaceOnUse">
<stop offset="0.001" stop-color="#E7F3FF"/>
<stop offset="0.746" stop-color="#DFEDFF"/>
<stop offset="1" stop-color="#EAF6FF"/>
</linearGradient>
<linearGradient id="paint21_linear" x1="647.235" y1="124.673" x2="668.086" y2="129.532" gradientUnits="userSpaceOnUse">
<stop offset="0.001" stop-color="#E7F3FF"/>
<stop offset="0.209" stop-color="#EBF7FF"/>
<stop offset="0.746" stop-color="#DFEDFF"/>
<stop offset="1" stop-color="#EAF6FF"/>
</linearGradient>
<linearGradient id="paint22_linear" x1="660.867" y1="140.633" x2="681.757" y2="148.349" gradientUnits="userSpaceOnUse">
<stop offset="0.001" stop-color="#E7F3FF"/>
<stop offset="0.209" stop-color="#EBF7FF"/>
<stop offset="0.746" stop-color="#DFEDFF"/>
<stop offset="1" stop-color="#EAF6FF"/>
</linearGradient>
<linearGradient id="paint23_linear" x1="673.123" y1="133.607" x2="691.223" y2="135.771" gradientUnits="userSpaceOnUse">
<stop offset="0.001" stop-color="#E7F3FF"/>
<stop offset="0.209" stop-color="#EBF7FF"/>
<stop offset="0.746" stop-color="#DFEDFF"/>
<stop offset="1" stop-color="#EAF6FF"/>
</linearGradient>
<linearGradient id="paint24_linear" x1="673.343" y1="125.65" x2="681.029" y2="126.171" gradientUnits="userSpaceOnUse">
<stop stop-color="#D6E6F9"/>
<stop offset="1" stop-color="#BAD0EF"/>
</linearGradient>
<linearGradient id="paint25_linear" x1="664.257" y1="125.058" x2="670.903" y2="125.254" gradientUnits="userSpaceOnUse">
<stop offset="0.001" stop-color="#E7F3FF"/>
<stop offset="0.209" stop-color="#EBF7FF"/>
<stop offset="0.746" stop-color="#DFEDFF"/>
<stop offset="1" stop-color="#EAF6FF"/>
</linearGradient>
<linearGradient id="paint26_linear" x1="666.416" y1="124.786" x2="674.754" y2="125.219" gradientUnits="userSpaceOnUse">
<stop stop-color="#D6E6F9"/>
<stop offset="1" stop-color="#BAD0EF"/>
</linearGradient>
<linearGradient id="paint27_linear" x1="670.572" y1="131.83" x2="679.141" y2="141.26" gradientUnits="userSpaceOnUse">
<stop offset="0.001" stop-color="#E3EEFD"/>
<stop offset="1" stop-color="#D1E0F9"/>
</linearGradient>
<linearGradient id="paint28_linear" x1="665.034" y1="153.573" x2="667.035" y2="153.58" gradientUnits="userSpaceOnUse">
<stop offset="0.001" stop-color="#E3EEFD"/>
<stop offset="1" stop-color="#D1E0F9"/>
</linearGradient>
<linearGradient id="paint29_linear" x1="666.697" y1="139.319" x2="677.745" y2="144.055" gradientUnits="userSpaceOnUse">
<stop stop-color="#D1E0F9"/>
<stop offset="0.999" stop-color="#E3EEFD"/>
</linearGradient>
<linearGradient id="paint30_linear" x1="639.483" y1="120.558" x2="639.764" y2="123.977" gradientUnits="userSpaceOnUse">
<stop stop-color="#D1E0F9"/>
<stop offset="0.999" stop-color="#E3EEFD"/>
</linearGradient>
<linearGradient id="paint31_linear" x1="667.584" y1="124.791" x2="678.734" y2="126.428" gradientUnits="userSpaceOnUse">
<stop offset="0.001" stop-color="#E7F3FF"/>
<stop offset="0.209" stop-color="#EBF7FF"/>
<stop offset="0.746" stop-color="#DFEDFF"/>
<stop offset="1" stop-color="#EAF6FF"/>
</linearGradient>
<linearGradient id="paint32_linear" x1="611.113" y1="166.514" x2="595.062" y2="162.771" gradientUnits="userSpaceOnUse">
<stop offset="0.001" stop-color="#E3EEFD"/>
<stop offset="1" stop-color="#D1E0F9"/>
</linearGradient>
<linearGradient id="paint33_linear" x1="591.051" y1="170.611" x2="612.727" y2="171.58" gradientUnits="userSpaceOnUse">
<stop stop-color="#D6E6F9"/>
<stop offset="1" stop-color="#BAD0EF"/>
</linearGradient>
<linearGradient id="paint34_linear" x1="583.896" y1="132.738" x2="598.997" y2="134.434" gradientUnits="userSpaceOnUse">
<stop stop-color="#D6E6F9"/>
<stop offset="1" stop-color="#BAD0EF"/>
</linearGradient>
<linearGradient id="paint35_linear" x1="604.387" y1="135.246" x2="591.687" y2="133.781" gradientUnits="userSpaceOnUse">
<stop offset="0.001" stop-color="#E3EEFD"/>
<stop offset="1" stop-color="#D1E0F9"/>
</linearGradient>
<linearGradient id="paint36_linear" x1="612.369" y1="149.18" x2="596.318" y2="145.438" gradientUnits="userSpaceOnUse">
<stop offset="0.001" stop-color="#E3EEFD"/>
<stop offset="1" stop-color="#D1E0F9"/>
</linearGradient>
<linearGradient id="paint37_linear" x1="611.637" y1="134.544" x2="591.331" y2="133.334" gradientUnits="userSpaceOnUse">
<stop offset="0.001" stop-color="#E7F3FF"/>
<stop offset="0.209" stop-color="#EBF7FF"/>
<stop offset="0.746" stop-color="#DFEDFF"/>
<stop offset="1" stop-color="#EAF6FF"/>
</linearGradient>
<linearGradient id="paint38_linear" x1="610.82" y1="124.436" x2="588.269" y2="121.34" gradientUnits="userSpaceOnUse">
<stop offset="0.001" stop-color="#E7F3FF"/>
<stop offset="0.209" stop-color="#EBF7FF"/>
<stop offset="0.746" stop-color="#DFEDFF"/>
<stop offset="1" stop-color="#EAF6FF"/>
</linearGradient>
<linearGradient id="paint39_linear" x1="601.215" y1="110.197" x2="583.003" y2="109.42" gradientUnits="userSpaceOnUse">
<stop offset="0.001" stop-color="#E7F3FF"/>
<stop offset="0.209" stop-color="#EBF7FF"/>
<stop offset="0.746" stop-color="#DFEDFF"/>
<stop offset="1" stop-color="#EAF6FF"/>
</linearGradient>
<linearGradient id="paint40_linear" x1="602.36" y1="122.554" x2="593.793" y2="113.802" gradientUnits="userSpaceOnUse">
<stop offset="0.001" stop-color="#E3EEFD"/>
<stop offset="1" stop-color="#D1E0F9"/>
</linearGradient>
<linearGradient id="paint41_linear" x1="605.862" y1="133.741" x2="603.846" y2="133.74" gradientUnits="userSpaceOnUse">
<stop offset="0.001" stop-color="#E3EEFD"/>
<stop offset="1" stop-color="#D1E0F9"/>
</linearGradient>
<linearGradient id="paint42_linear" x1="605.197" y1="127.209" x2="592.735" y2="126.288" gradientUnits="userSpaceOnUse">
<stop stop-color="#D1E0F9"/>
<stop offset="0.999" stop-color="#E3EEFD"/>
</linearGradient>
<linearGradient id="paint43_linear" x1="620.589" y1="114.356" x2="619.248" y2="100.564" gradientUnits="userSpaceOnUse">
<stop offset="0.001" stop-color="#E7F3FF"/>
<stop offset="0.209" stop-color="#EBF7FF"/>
<stop offset="0.746" stop-color="#DFEDFF"/>
<stop offset="1" stop-color="#EAF6FF"/>
</linearGradient>
<linearGradient id="paint44_linear" x1="608.206" y1="117.085" x2="608.994" y2="104.675" gradientUnits="userSpaceOnUse">
<stop offset="0.001" stop-color="#E2EFFD"/>
<stop offset="1" stop-color="#CEE2F9"/>
</linearGradient>
<linearGradient id="paint45_linear" x1="585.127" y1="118.922" x2="600.777" y2="124.714" gradientUnits="userSpaceOnUse">
<stop offset="0.001" stop-color="#E3EEFD"/>
<stop offset="1" stop-color="#D1E0F9"/>
</linearGradient>
<linearGradient id="paint46_linear" x1="586.996" y1="113.358" x2="592.991" y2="121.533" gradientUnits="userSpaceOnUse">
<stop offset="0.001" stop-color="#E7F3FF"/>
<stop offset="0.209" stop-color="#EBF7FF"/>
<stop offset="0.746" stop-color="#DFEDFF"/>
<stop offset="1" stop-color="#EAF6FF"/>
</linearGradient>
<linearGradient id="paint47_linear" x1="273.308" y1="522.778" x2="273.308" y2="498.453" gradientUnits="userSpaceOnUse">
<stop stop-color="#E0EEFE" stop-opacity="0.6"/>
<stop offset="0.502" stop-color="#B7D4F3"/>
<stop offset="1" stop-color="#7BADEE"/>
</linearGradient>
<linearGradient id="paint48_linear" x1="74.9676" y1="479.516" x2="232.418" y2="479.516" gradientUnits="userSpaceOnUse">
<stop offset="0.001" stop-color="#DCEFFE"/>
<stop offset="0.2376" stop-color="#E2F0FE"/>
<stop offset="1" stop-color="#DFECFD"/>
</linearGradient>
<linearGradient id="paint49_linear" x1="438.221" y1="443.127" x2="437.743" y2="375.443" gradientUnits="userSpaceOnUse">
<stop offset="0.001" stop-color="#CFE4FD"/>
<stop offset="0.209" stop-color="#D9EAFD"/>
<stop offset="0.746" stop-color="#C3DBF9"/>
<stop offset="1" stop-color="#D5E8FD"/>
</linearGradient>
<linearGradient id="paint50_linear" x1="273.578" y1="419.447" x2="273.578" y2="384.269" gradientUnits="userSpaceOnUse">
<stop stop-color="#E0EEFE" stop-opacity="0.6"/>
<stop offset="1" stop-color="#B7D4F3"/>
</linearGradient>
<linearGradient id="paint51_linear" x1="240.961" y1="409.458" x2="240.961" y2="365.485" gradientUnits="userSpaceOnUse">
<stop offset="0.001" stop-color="#CFE4FD"/>
<stop offset="0.209" stop-color="#D9EAFD"/>
<stop offset="0.746" stop-color="#C3DBF9"/>
<stop offset="1" stop-color="#D5E8FD"/>
</linearGradient>
<linearGradient id="paint52_linear" x1="191.955" y1="391.855" x2="190.153" y2="363.434" gradientUnits="userSpaceOnUse">
<stop stop-color="#E0EEFE" stop-opacity="0.6"/>
<stop offset="1" stop-color="#B7D4F3"/>
</linearGradient>
<linearGradient id="paint53_linear" x1="385.896" y1="530.622" x2="385.085" y2="461.669" gradientUnits="userSpaceOnUse">
<stop offset="0.001" stop-color="#CFE4FD"/>
<stop offset="0.209" stop-color="#D9EAFD"/>
<stop offset="0.746" stop-color="#BDD5F5"/>
<stop offset="1" stop-color="#CAE0FA"/>
</linearGradient>
<linearGradient id="paint54_linear" x1="295.045" y1="531.638" x2="311.395" y2="462.723" gradientUnits="userSpaceOnUse">
<stop stop-color="#E0EEFE" stop-opacity="0.6"/>
<stop offset="0.502" stop-color="#B7D4F3"/>
<stop offset="1" stop-color="#8AB6EE"/>
</linearGradient>
<linearGradient id="paint55_linear" x1="103.157" y1="358.765" x2="137.89" y2="363.034" gradientUnits="userSpaceOnUse">
<stop offset="0.001" stop-color="#CFE4FD"/>
<stop offset="0.209" stop-color="#D9EAFD"/>
<stop offset="0.746" stop-color="#C3DBF9"/>
<stop offset="1" stop-color="#D5E8FD"/>
</linearGradient>
<linearGradient id="paint56_linear" x1="1396.31" y1="213.254" x2="1280.73" y2="252.986" gradientUnits="userSpaceOnUse">
<stop offset="0.001" stop-color="#DCEFFE"/>
<stop offset="0.2376" stop-color="#E2F0FE"/>
<stop offset="1" stop-color="#DFECFD"/>
</linearGradient>
<linearGradient id="paint57_linear" x1="1384.75" y1="228.749" x2="1384.33" y2="180.509" gradientUnits="userSpaceOnUse">
<stop offset="0.001" stop-color="#CFE4FD"/>
<stop offset="0.209" stop-color="#D9EAFD"/>
<stop offset="0.746" stop-color="#C3DBF9"/>
<stop offset="1" stop-color="#D5E8FD"/>
</linearGradient>
<linearGradient id="paint58_linear" x1="1370.77" y1="212.734" x2="1372.63" y2="182.037" gradientUnits="userSpaceOnUse">
<stop stop-color="#E0EEFE" stop-opacity="0.6"/>
<stop offset="1" stop-color="#B7D4F3"/>
</linearGradient>
<linearGradient id="paint59_linear" x1="1426.86" y1="309.283" x2="1427.77" y2="255.716" gradientUnits="userSpaceOnUse">
<stop offset="0.001" stop-color="#CFE4FD"/>
<stop offset="0.209" stop-color="#D9EAFD"/>
<stop offset="0.746" stop-color="#BDD5F5"/>
<stop offset="1" stop-color="#CAE0FA"/>
</linearGradient>
<linearGradient id="paint60_linear" x1="1283.41" y1="303.523" x2="1267.51" y2="247.496" gradientUnits="userSpaceOnUse">
<stop stop-color="#E0EEFE" stop-opacity="0.6"/>
<stop offset="0.502" stop-color="#B7D4F3"/>
<stop offset="1" stop-color="#8AB6EE"/>
</linearGradient>
<linearGradient id="paint61_linear" x1="1365.18" y1="116.382" x2="1302.45" y2="164.836" gradientUnits="userSpaceOnUse">
<stop offset="0.001" stop-color="#CFE4FD"/>
<stop offset="0.209" stop-color="#D9EAFD"/>
<stop offset="0.746" stop-color="#C3DBF9"/>
<stop offset="1" stop-color="#D5E8FD"/>
</linearGradient>
<linearGradient id="paint62_linear" x1="803.584" y1="223.982" x2="739.582" y2="634.103" gradientUnits="userSpaceOnUse">
<stop stop-color="#EBF5FF" stop-opacity="0.275"/>
<stop offset="0.585" stop-color="#FAFCFF" stop-opacity="0.8"/>
<stop offset="0.945" stop-color="#ECF5FF" stop-opacity="0.279"/>
<stop offset="0.999" stop-color="#E9F4FF" stop-opacity="0.2"/>
</linearGradient>
<linearGradient id="paint63_linear" x1="1191.23" y1="296.682" x2="1204.94" y2="296.42" gradientUnits="userSpaceOnUse">
<stop offset="0.001" stop-color="#E3EEFD"/>
<stop offset="1" stop-color="#D1E0F9"/>
</linearGradient>
<linearGradient id="paint64_linear" x1="1190.58" y1="288.548" x2="1204.72" y2="288.371" gradientUnits="userSpaceOnUse">
<stop offset="0.001" stop-color="#E3EEFD"/>
<stop offset="1" stop-color="#D1E0F9"/>
</linearGradient>
<linearGradient id="paint65_linear" x1="1189.55" y1="276.209" x2="1204.52" y2="275.702" gradientUnits="userSpaceOnUse">
<stop offset="0.001" stop-color="#E7F3FF"/>
<stop offset="0.209" stop-color="#EBF7FF"/>
<stop offset="0.746" stop-color="#DFEDFF"/>
<stop offset="1" stop-color="#EAF6FF"/>
</linearGradient>
<linearGradient id="paint66_linear" x1="1198.45" y1="285.042" x2="1201.08" y2="285.078" gradientUnits="userSpaceOnUse">
<stop offset="0.001" stop-color="#E7F3FF"/>
<stop offset="0.209" stop-color="#EBF7FF"/>
<stop offset="0.746" stop-color="#DFEDFF"/>
<stop offset="1" stop-color="#EAF6FF"/>
</linearGradient>
<linearGradient id="paint67_linear" x1="1190.58" y1="273.052" x2="1194.33" y2="272.998" gradientUnits="userSpaceOnUse">
<stop stop-color="#D6E6F9"/>
<stop offset="1" stop-color="#BAD0EF"/>
</linearGradient>
<linearGradient id="paint68_linear" x1="1195.85" y1="297.121" x2="1200.83" y2="294.926" gradientUnits="userSpaceOnUse">
<stop offset="0.001" stop-color="#E3EEFD"/>
<stop offset="1" stop-color="#D1E0F9"/>
</linearGradient>
<radialGradient id="paint69_radial" cx="0" cy="0" r="1" gradientUnits="userSpaceOnUse" gradientTransform="translate(848.253 488.448) rotate(-2.46523) scale(59.9518 5.67705)">
<stop stop-color="#DBDFF2"/>
<stop offset="0.525" stop-color="#DEE4F6" stop-opacity="0.475"/>
<stop offset="1" stop-color="#E4EEFF" stop-opacity="0.01"/>
</radialGradient>
<linearGradient id="paint70_linear" x1="880.289" y1="588.118" x2="876.824" y2="537.7" gradientUnits="userSpaceOnUse">
<stop stop-color="#C1DBF8" stop-opacity="0.5"/>
<stop offset="1" stop-color="#85B4F1"/>
</linearGradient>
<linearGradient id="paint71_linear" x1="766.587" y1="538.518" x2="673.663" y2="587.389" gradientUnits="userSpaceOnUse">
<stop stop-color="#DFF0FF"/>
<stop offset="1" stop-color="#C8E1FF"/>
</linearGradient>
<linearGradient id="paint72_linear" x1="772.263" y1="544.716" x2="661.404" y2="563.094" gradientUnits="userSpaceOnUse">
<stop stop-color="#C1DBF8" stop-opacity="0.5"/>
<stop offset="1" stop-color="#85B4F1"/>
</linearGradient>
<linearGradient id="paint73_linear" x1="612.757" y1="571.937" x2="621.466" y2="608.425" gradientUnits="userSpaceOnUse">
<stop stop-color="#C1DBF8" stop-opacity="0.718"/>
<stop offset="1" stop-color="#7EB0F1"/>
</linearGradient>
<linearGradient id="paint74_linear" x1="1389.76" y1="529.617" x2="1385.05" y2="475.054" gradientUnits="userSpaceOnUse">
<stop stop-color="#C1DBF8" stop-opacity="0.5"/>
<stop offset="1" stop-color="#85B4F1"/>
</linearGradient>
<linearGradient id="paint75_linear" x1="1308.26" y1="477.122" x2="1215.01" y2="486.449" gradientUnits="userSpaceOnUse">
<stop stop-color="#DFF0FF"/>
<stop offset="1" stop-color="#C8E1FF"/>
</linearGradient>
<linearGradient id="paint76_linear" x1="1254.16" y1="481.969" x2="1221.11" y2="480.342" gradientUnits="userSpaceOnUse">
<stop stop-color="#C1DBF8" stop-opacity="0.5"/>
<stop offset="1" stop-color="#85B4F1"/>
</linearGradient>
<linearGradient id="paint77_linear" x1="1169.54" y1="507.999" x2="1179.13" y2="546.491" gradientUnits="userSpaceOnUse">
<stop stop-color="#C1DBF8" stop-opacity="0.718"/>
<stop offset="1" stop-color="#7EB0F1"/>
</linearGradient>
<linearGradient id="paint78_linear" x1="522.045" y1="605.356" x2="1442.02" y2="605.356" gradientUnits="userSpaceOnUse">
<stop stop-color="#FAFCFF" stop-opacity="0.8"/>
<stop offset="0.868" stop-color="#ECF5FF" stop-opacity="0.279"/>
<stop offset="0.999" stop-color="#E9F4FF" stop-opacity="0.2"/>
</linearGradient>
<linearGradient id="paint79_linear" x1="418.228" y1="470.44" x2="407.4" y2="470.44" gradientUnits="userSpaceOnUse">
<stop offset="0.001" stop-color="#E3EEFD"/>
<stop offset="1" stop-color="#D1E0F9"/>
</linearGradient>
<linearGradient id="paint80_linear" x1="418.399" y1="459.656" x2="407.229" y2="459.656" gradientUnits="userSpaceOnUse">
<stop offset="0.001" stop-color="#E3EEFD"/>
<stop offset="1" stop-color="#D1E0F9"/>
</linearGradient>
<linearGradient id="paint81_linear" x1="419.056" y1="456.721" x2="407.229" y2="456.721" gradientUnits="userSpaceOnUse">
<stop offset="0.001" stop-color="#E7F3FF"/>
<stop offset="0.209" stop-color="#EBF7FF"/>
<stop offset="0.746" stop-color="#DFEDFF"/>
<stop offset="1" stop-color="#EAF6FF"/>
</linearGradient>
<linearGradient id="paint82_linear" x1="412.078" y1="470.764" x2="410.008" y2="470.81" gradientUnits="userSpaceOnUse">
<stop offset="0.001" stop-color="#E7F3FF"/>
<stop offset="0.209" stop-color="#EBF7FF"/>
<stop offset="0.746" stop-color="#DFEDFF"/>
<stop offset="1" stop-color="#EAF6FF"/>
</linearGradient>
<linearGradient id="paint83_linear" x1="418.118" y1="462.088" x2="415.161" y2="462.088" gradientUnits="userSpaceOnUse">
<stop stop-color="#D6E6F9"/>
<stop offset="1" stop-color="#BAD0EF"/>
</linearGradient>
<linearGradient id="paint84_linear" x1="415.014" y1="484.618" x2="410.391" y2="484.618" gradientUnits="userSpaceOnUse">
<stop offset="0.001" stop-color="#E3EEFD"/>
<stop offset="1" stop-color="#D1E0F9"/>
</linearGradient>
<linearGradient id="paint85_linear" x1="0.278634" y1="323.635" x2="693.618" y2="323.635" gradientUnits="userSpaceOnUse">
<stop stop-color="#EBF5FF" stop-opacity="0.275"/>
<stop offset="0.585" stop-color="#FAFCFF" stop-opacity="0.8"/>
<stop offset="0.945" stop-color="#ECF5FF" stop-opacity="0.279"/>
<stop offset="0.999" stop-color="#E9F4FF" stop-opacity="0.2"/>
</linearGradient>
<linearGradient id="paint86_linear" x1="648.642" y1="592.242" x2="648.642" y2="607.834" gradientUnits="userSpaceOnUse">
<stop offset="0.001" stop-color="#E7F3FF"/>
<stop offset="0.209" stop-color="#EBF7FF"/>
<stop offset="0.746" stop-color="#DFEDFF"/>
<stop offset="1" stop-color="#EAF6FF"/>
</linearGradient>
<linearGradient id="paint87_linear" x1="253.847" y1="251.372" x2="237.436" y2="250.987" gradientUnits="userSpaceOnUse">
<stop offset="0.001" stop-color="#E3EEFD"/>
<stop offset="1" stop-color="#D1E0F9"/>
</linearGradient>
<linearGradient id="paint88_linear" x1="254.56" y1="237.846" x2="237.63" y2="237.591" gradientUnits="userSpaceOnUse">
<stop offset="0.001" stop-color="#E3EEFD"/>
<stop offset="1" stop-color="#D1E0F9"/>
</linearGradient>
<linearGradient id="paint89_linear" x1="256.056" y1="234.245" x2="238.141" y2="233.523" gradientUnits="userSpaceOnUse">
<stop offset="0.001" stop-color="#E7F3FF"/>
<stop offset="0.209" stop-color="#EBF7FF"/>
<stop offset="0.746" stop-color="#DFEDFF"/>
<stop offset="1" stop-color="#EAF6FF"/>
</linearGradient>
<linearGradient id="paint90_linear" x1="244.657" y1="251.164" x2="241.507" y2="251.215" gradientUnits="userSpaceOnUse">
<stop offset="0.001" stop-color="#E7F3FF"/>
<stop offset="0.209" stop-color="#EBF7FF"/>
<stop offset="0.746" stop-color="#DFEDFF"/>
<stop offset="1" stop-color="#EAF6FF"/>
</linearGradient>
<linearGradient id="paint91_linear" x1="254.282" y1="240.876" x2="249.8" y2="240.8" gradientUnits="userSpaceOnUse">
<stop stop-color="#D6E6F9"/>
<stop offset="1" stop-color="#BAD0EF"/>
</linearGradient>
<linearGradient id="paint92_linear" x1="248.774" y1="269.346" x2="243.159" y2="266.438" gradientUnits="userSpaceOnUse">
<stop offset="0.001" stop-color="#E3EEFD"/>
<stop offset="1" stop-color="#D1E0F9"/>
</linearGradient>
<linearGradient id="paint93_linear" x1="1208.7" y1="534.822" x2="1208.7" y2="546.934" gradientUnits="userSpaceOnUse">
<stop offset="0.001" stop-color="#E7F3FF"/>
<stop offset="0.209" stop-color="#EBF7FF"/>
<stop offset="0.746" stop-color="#DFEDFF"/>
<stop offset="1" stop-color="#EAF6FF"/>
</linearGradient>
<linearGradient id="paint94_linear" x1="1218.66" y1="424.611" x2="1146.11" y2="128.205" gradientUnits="userSpaceOnUse">
<stop stop-color="#FAFCFF"/>
<stop offset="0.273" stop-color="#ECF1FD" stop-opacity="0.781"/>
<stop offset="0.791" stop-color="#C6D3F7" stop-opacity="0.367"/>
<stop offset="0.999" stop-color="#B5C6F5" stop-opacity="0.2"/>
</linearGradient>
</defs>
</svg>
