<svg width="30" height="30" viewBox="0 0 30 30" fill="none" xmlns="http://www.w3.org/2000/svg">
<path fill-rule="evenodd" clip-rule="evenodd" d="M9 18.75L8.475 18.675L6.6 21.525L5.85 20.775L7.65 18.075L7.5 17.925L4.35 19.275L3.6 18.525L7.05 17.025L0.9 15.825L0.0374999 14.9625L0.3 14.7L7.425 16.2L7.725 15.75L4.275 10.725L0.3 14.7L0 14.925L0.0374999 14.9625L0 15L15 29.85L16.5 28.35L9.75 18.6L9 18.75ZM5.025 9.975L8.625 15.225C8.89629 15.1611 9.17871 15.1611 9.45 15.225L12.825 9.975C12.4592 9.59836 12.317 9.05789 12.45 8.55L8.25 6.75L5.025 9.975ZM9 6L12.975 7.725C13.3975 7.3841 13.9711 7.29805 14.475 7.5L17.625 2.625L15 0L9 6ZM15.45 8.775V8.85L15.225 8.1L18.225 3.3L21 6L20.25 10.425L19.8 10.65L15.45 8.775ZM15.15 9.75C14.8495 10.2823 14.2561 10.579 13.65 10.5L10.275 15.675L19.275 11.85V11.475L15.225 9.75H15.15ZM18 19.35L10.575 17.85L10.5 18L17.175 27.75L17.55 27.3L18.75 20.25C18.3 20.1 18 19.725 18 19.35ZM24.525 9.525L21.825 6.825L21.225 10.575C21.375 10.575 21.525 10.725 21.6 10.8L24.525 9.6V9.525ZM19.05 17.625C18.6 17.7 18.225 18 18 18.375L10.65 16.875V16.575L19.65 12.675L19.8 12.825L19.05 17.625ZM25.275 10.275L22.125 11.625L30 15L25.35 10.275H25.275ZM18.75 26.1L19.725 20.25L20.325 19.875L24.3 20.625L18.75 26.1ZM20.1 18L20.85 13.05V13.125C21.225 13.05 21.525 12.9 21.75 12.6L29.25 15.75L25.05 19.8L20.55 18.9C20.55 18.525 20.325 18.225 20.1 18Z" fill="#D6DEF2"/>
</svg>
