<svg width="128" height="30" viewBox="0 0 128 30" fill="none" xmlns="http://www.w3.org/2000/svg">
<path fill-rule="evenodd" clip-rule="evenodd" d="M36.5842 9.4131C38.2428 9.52155 39.767 10.3634 40.7423 11.7099V11.7041C41.8453 13.242 42.093 15.2346 41.4002 16.9959C40.7074 18.7571 39.1687 20.0465 37.3139 20.4201C35.0933 20.8576 32.8287 19.9083 31.5833 18.0179C30.3379 16.1274 30.3589 13.6713 31.6364 11.8024L30.0581 10.6284L29.1215 17.4878L29.5955 18.5809C29.69 18.6928 30.0605 18.6796 30.4699 18.665C31.0125 18.6456 31.6235 18.6237 31.7521 18.8874C31.9197 19.2171 31.8214 19.4195 31.145 19.622C30.8766 19.7011 30.619 19.7802 30.3696 19.8568C30.0173 19.9651 29.681 20.0684 29.3527 20.1598C29.4436 20.635 29.2521 21.12 28.8611 21.4047C28.47 21.6894 27.9498 21.7227 27.5258 21.4901L27.1211 21.7561C27.9722 23.3103 28.0342 25.1766 27.2879 26.7838C26.5417 28.391 25.0761 29.5476 23.34 29.8995C20.7758 30.3917 18.2134 29.0392 17.1723 26.644C16.1311 24.2488 16.8896 21.4516 18.998 19.9111C19.9273 19.2355 21.0464 18.8711 22.1952 18.8701L22.386 16.7937L20.3393 15.3478L20.0214 15.6544C19.582 16.0708 18.0961 16.0477 18.0961 16.0477C17.9053 15.799 17.836 15.6891 18.0614 15.4751C18.3389 15.1975 18.9287 14.7405 19.4953 14.3183C18.7552 13.4624 18.7841 11.733 19.2177 9.98059C17.6799 10.8944 14.0144 10.825 12.7424 10.3276C14.2803 10.2524 20.1197 6.45256 22.6173 4.19693L22.5768 4.30682L22.6462 4.1738C22.1511 4.00874 21.7443 3.64974 21.5188 3.17901C20.9869 2.08011 20.9117 0.848192 22.4901 0.183071C23.3769 -0.180627 23.7075 0.0647211 24.0768 0.338825C24.0951 0.352408 24.1135 0.366062 24.132 0.379716C24.2046 0.4356 24.2706 0.49964 24.3286 0.570577C24.8085 0.483822 25.9532 0.321879 25.9648 0.368149C26.0052 0.489605 25.0802 1.21256 24.8374 1.38607C25.1438 2.01071 25.3577 2.76258 25.1553 3.21949C24.9935 3.57808 24.7853 3.84413 24.1898 4.13331C24.0536 4.19597 23.9098 4.24068 23.762 4.26634C23.7867 4.43893 23.9574 4.53269 24.1536 4.64039C24.3255 4.73479 24.5169 4.8399 24.6466 5.01821C24.7793 5.19946 24.8948 5.41574 25.014 5.63912C25.3362 6.2426 25.686 6.89788 26.4793 7.05406C26.7742 7.1119 27.4044 7.01357 28.1444 6.88055C28.7152 6.80327 29.2923 6.78197 29.8673 6.81693V6.81115H29.8731L30.2026 6.52196L33.4981 3.56073L34.4983 5.50982L32.3475 7.38373L32.0989 7.60351L30.9484 8.60408C31.2644 8.60881 31.5772 8.66749 31.8735 8.77759C32.4863 9.10148 31.012 9.69719 30.5437 9.87649L32.1625 11.1489C33.3048 9.9409 34.9255 9.30464 36.5842 9.4131ZM29.717 6.34845C28.9307 6.30218 28.2253 6.32532 27.9131 6.33689H27.8958L31.596 3.19636L33.0702 3.34095L29.717 6.34845ZM64.0418 19.1593C63.9051 19.7734 63.6498 20.355 63.2902 20.8712C62.98 21.3045 62.564 21.651 62.0818 21.8776C61.6078 22.1031 61.0701 22.213 60.4746 22.213C59.382 22.2624 58.3368 21.7635 57.6879 20.8828C57.023 19.9979 56.6935 18.6214 56.6935 16.7475C56.6935 14.8736 57.0288 13.4855 57.6995 12.5948C58.3514 11.7064 59.4028 11.2011 60.5035 11.2472C61.5995 11.2016 62.6464 11.7047 63.296 12.589C63.9666 13.4739 64.3019 14.8562 64.3019 16.7186C64.3019 17.6555 64.2152 18.471 64.0418 19.1593ZM54.4907 16.3253C54.1867 17.1435 53.5098 17.7669 52.6696 18.0025C52.2475 18.124 51.7792 18.1876 51.2762 18.1876H50.3569V22.0453H47.8709V11.4149H51.4554C51.9295 11.4149 52.3689 11.4728 52.7678 11.5884C53.1725 11.7041 53.5194 11.895 53.8085 12.1495C54.0976 12.4097 54.3288 12.751 54.5023 13.1674C54.6642 13.5896 54.7509 14.1101 54.7509 14.729C54.7509 15.3536 54.6642 15.8857 54.4907 16.3253ZM51.9931 13.7747C51.837 13.578 51.5826 13.4797 51.2242 13.4797H50.3569V16.1228H51.1837C51.5479 16.1228 51.8139 16.0187 51.9758 15.8163C52.1492 15.6197 52.2302 15.2726 52.2302 14.7868C52.2302 14.3126 52.1492 13.9771 51.9931 13.7747ZM61.3823 14.1217C61.5012 14.4521 61.5788 14.7959 61.6135 15.1454C61.6656 15.5734 61.6887 16.1055 61.6887 16.7475C61.6887 17.3895 61.6656 17.9216 61.6135 18.3495C61.5804 18.6963 61.5066 19.0379 61.3938 19.3675C61.2956 19.6104 61.1742 19.7897 61.0238 19.888C60.8677 19.9863 60.6943 20.0442 60.5035 20.0442C60.3011 20.0442 60.1277 19.9921 59.9774 19.8822C59.8328 19.7781 59.7114 19.5988 59.6131 19.3386C59.5091 19.0841 59.4339 18.7428 59.3819 18.3148C59.3298 17.8926 59.3067 17.3548 59.3067 16.7186C59.3067 16.0766 59.3241 15.5387 59.3703 15.1165C59.4166 14.6885 59.4917 14.3473 59.59 14.0986C59.6627 13.8909 59.7931 13.7084 59.9658 13.5722C60.1104 13.4681 60.2896 13.4219 60.4862 13.4219C60.6717 13.418 60.8537 13.4727 61.0065 13.578C61.1568 13.6879 61.284 13.8672 61.3823 14.1217ZM72.1417 21.3975C72.4539 21.1315 72.6909 20.8018 72.8644 20.4143C73.1663 19.612 73.2008 18.7335 72.9626 17.91C72.8586 17.5688 72.6851 17.2622 72.4539 16.973C72.2226 16.6896 71.922 16.4294 71.552 16.1922C71.1762 15.9493 70.731 15.718 70.1933 15.4866C69.9216 15.3652 69.6961 15.2553 69.5227 15.1512C69.3492 15.0471 69.2162 14.943 69.1122 14.8389C69.0139 14.7348 68.9445 14.6307 68.8982 14.515C68.8578 14.3993 68.8404 14.2779 68.8404 14.1333C68.8404 13.9308 68.9098 13.7515 69.037 13.6012C69.17 13.4508 69.355 13.3698 69.5978 13.3698C69.7442 13.3705 69.89 13.3899 70.0314 13.4277C70.1673 13.4677 70.2947 13.5324 70.4072 13.6185C70.5449 13.7242 70.6727 13.8423 70.7888 13.9713L71.2513 14.5092L73.0147 12.9303C72.795 12.6584 72.5695 12.4213 72.3498 12.2131C72.1243 12.0049 71.8873 11.8256 71.6271 11.681C71.367 11.5306 71.0779 11.4265 70.7599 11.3513C70.4419 11.2819 70.0777 11.2472 69.673 11.2472C69.17 11.2472 68.7075 11.3282 68.3027 11.4901C67.5307 11.7724 66.9149 12.3695 66.6088 13.1327C66.3359 13.8777 66.3095 14.6908 66.5336 15.4519C66.6319 15.7643 66.7938 16.0592 67.025 16.3195C67.2837 16.6095 67.5861 16.8573 67.9212 17.054C68.2912 17.2854 68.7364 17.5167 69.2683 17.748C69.5191 17.8531 69.7609 17.9789 69.991 18.124C70.1644 18.2397 70.3032 18.3553 70.3957 18.471C70.4939 18.5867 70.5575 18.7081 70.5864 18.8296C70.6154 18.9453 70.6327 19.0841 70.6327 19.2344C70.6327 19.5352 70.546 19.7492 70.3725 19.8822C70.2049 20.021 69.9852 20.0904 69.7192 20.0904C69.4591 20.0904 69.1758 19.9805 68.8867 19.7608C68.5918 19.5468 68.2681 19.2229 67.9154 18.8007L66.1809 20.3623C66.4006 20.6572 66.6319 20.9117 66.8632 21.1431C67.323 21.6163 67.9089 21.9475 68.5514 22.0974C69.378 22.2824 70.2383 22.2505 71.049 22.0048C71.471 21.8602 71.8353 21.6578 72.1417 21.3975ZM81.7448 11.4149V13.6301H79.5883V22.0453H77.056V13.6301H74.8995V11.4149H81.7448ZM90.2378 19.6971V22.0511H92.5273V11.4092H90.232L89.307 14.0118C89.0757 14.6711 88.8734 15.29 88.6884 15.8684C88.5033 16.4409 88.3704 16.9152 88.2952 17.2911C88.2201 16.9152 88.0986 16.4409 87.9136 15.8568C87.7286 15.2726 87.5205 14.6654 87.2892 14.0292L86.3526 11.4092H84.04V22.0511H86.3468V19.6971C86.3525 18.6673 86.3332 17.6375 86.289 16.6087C86.5113 17.3982 86.7562 18.1813 87.0233 18.9568L87.2892 19.7261L88.2952 22.3865L89.2954 19.7261L89.5556 18.951L89.8447 18.124L90.0933 17.3143L90.2956 16.6087C90.2565 17.6377 90.2373 18.6674 90.2378 19.6971ZM99.3148 17.6555C99.1991 16.9615 99.0835 16.3195 98.9737 15.7353C98.8696 15.157 98.7887 14.6191 98.7424 14.1333C98.6846 14.6191 98.6152 15.157 98.5227 15.7353C98.4244 16.3137 98.3088 16.9673 98.1758 17.6729L98.118 18.0083H99.3784L99.3205 17.6613L99.3148 17.6555ZM99.8004 20.0731L100.199 22.0511H102.807L100.078 11.4092H97.4647L94.7127 22.0511H97.3259L97.7075 20.0731H99.8004ZM110.433 11.4149V13.6301H108.276V22.0453H105.738V13.6301H103.582V11.4149H110.433ZM118.955 13.5838V11.4149H112.722V22.0453H119.059V19.8764H115.243V17.5688H117.66V15.3941H115.243V13.5838H118.955ZM127.742 20.4143C127.569 20.8018 127.332 21.1315 127.02 21.3975C126.698 21.6679 126.327 21.874 125.927 22.0048C125.117 22.2518 124.256 22.2837 123.429 22.0974C122.787 21.9481 122.201 21.6168 121.741 21.1431C121.51 20.9117 121.279 20.6572 121.065 20.3623L122.793 18.8007C123.14 19.2229 123.47 19.5468 123.765 19.7608C124.054 19.9805 124.337 20.0904 124.597 20.0904C124.863 20.0904 125.077 20.021 125.251 19.8822C125.424 19.7492 125.511 19.5352 125.511 19.2344C125.511 19.0841 125.499 18.9453 125.465 18.8296C125.436 18.7081 125.372 18.5867 125.274 18.471C125.175 18.3553 125.042 18.2397 124.869 18.124C124.69 18.0083 124.447 17.8811 124.146 17.748C123.614 17.5167 123.169 17.2854 122.799 17.054C122.464 16.8571 122.162 16.6093 121.903 16.3195C121.672 16.0592 121.516 15.7643 121.412 15.4519C121.183 14.6913 121.21 13.8769 121.487 13.1327C121.793 12.3695 122.409 11.7724 123.181 11.4901C123.62 11.3225 124.087 11.24 124.557 11.2472C124.962 11.2472 125.32 11.2819 125.644 11.3513C125.962 11.4265 126.251 11.5306 126.505 11.681C126.765 11.8256 127.008 12.0049 127.228 12.2131C127.448 12.4213 127.673 12.6584 127.899 12.9303L126.135 14.5092L125.661 13.9713C125.547 13.8424 125.421 13.7243 125.285 13.6185C125.055 13.4393 124.767 13.3527 124.476 13.3756C124.239 13.3756 124.048 13.4508 123.915 13.6069C123.782 13.7515 123.719 13.9308 123.719 14.1275C123.719 14.2779 123.742 14.3993 123.776 14.515C123.823 14.6307 123.892 14.7348 123.996 14.8389C124.094 14.943 124.227 15.0471 124.401 15.1512C124.574 15.2553 124.794 15.3652 125.071 15.4866C125.609 15.718 126.06 15.9493 126.43 16.1922C126.8 16.4294 127.101 16.6896 127.332 16.973C127.563 17.2622 127.737 17.5688 127.841 17.91C128.083 18.733 128.048 19.6128 127.742 20.4143ZM3.52672 21.7793L2.4398 19.8417L2.17963 22.0511L0 22.4849L2.02353 23.4102L1.76336 25.6254L3.26655 23.9886L5.29008 24.914L4.20316 22.9765L5.70635 21.3455L3.52672 21.7793ZM9.7245 23.1963L10.8114 25.1338L12.9911 24.7L11.4879 26.331L12.5748 28.2685L10.5513 27.3431L9.04806 28.9799L9.30823 26.7648L7.2847 25.8394L9.46433 25.4056L9.7245 23.1963ZM11.7885 15.7758L10.7016 13.8383L10.4414 16.0477L8.26178 16.4872L10.2853 17.4126L10.0251 19.622L11.5283 17.9852L13.5519 18.9106L12.4592 16.9788L13.9681 15.342L11.7885 15.7758ZM32.6135 17.5514C34.0473 19.5392 36.8174 19.9942 38.8113 18.5693C40.4879 17.3376 41.0884 15.1086 40.2575 13.2009C39.4265 11.2932 37.3857 10.2154 35.3424 10.6052C34.4713 10.7827 33.6736 11.2179 33.0529 11.8545L36.5334 14.5902C36.6479 14.672 36.6991 14.8167 36.6616 14.9524C36.6242 15.0881 36.506 15.186 36.3657 15.1975C36.2848 15.209 36.198 15.1917 36.1229 15.1338L32.5441 12.4733C31.5057 14.0147 31.5333 16.0391 32.6135 17.5514ZM26.965 12.161C25.9071 11.4019 23.7288 11.7636 22.3002 12.0009L22.2762 12.0049C22.4422 11.6548 22.6515 11.3007 22.8667 10.9368L22.8667 10.9368L22.8667 10.9368L22.8667 10.9367C23.2807 10.2363 23.7163 9.49952 23.9065 8.68505C24.0626 9.46585 26.6296 10.3507 26.6296 10.3507C26.6296 10.3507 27.7975 10.0905 28.8093 9.69719L28.8382 9.72611L29.2255 10.0153L26.9707 12.161H26.965ZM27.5084 13.7805L28.5144 16.0939L29.1908 11.1315L27.439 12.803C27.5238 13.1215 27.5474 13.4532 27.5084 13.7805ZM28.0924 19.1535C27.9131 19.1535 27.7281 19.2113 27.5547 19.2981C27.4622 19.1824 27.3119 19.0725 27.0459 18.899C27.0225 18.8843 26.9895 18.8639 26.9495 18.8392C26.6436 18.6504 25.9283 18.2089 25.959 18.1066C26.092 17.7018 26.3926 17.1118 26.8262 16.2674C27.2829 16.7706 27.7397 17.6208 28.1849 18.4826L28.0924 19.1535ZM22.9815 18.9163C24.4594 19.1164 25.7958 19.8994 26.6932 21.091H26.699L26.9881 20.9001C26.8609 20.6167 26.8551 20.3044 26.9476 20.021L26.9303 20.0095L24.7275 19.1535C24.3112 18.9915 24.2534 18.7197 24.3922 18.2165L23.1318 17.3201L22.9815 18.9163ZM24.8316 28.043C22.8392 29.469 20.0694 29.0167 18.6338 27.0308C17.6809 25.6985 17.5372 23.95 18.2599 22.48C18.9826 21.0099 20.4546 20.0562 22.0911 19.9979L21.6691 24.5149C21.66 24.6379 21.7083 24.7582 21.7999 24.8408C21.8915 24.9234 22.0161 24.9589 22.1374 24.9371C22.1871 24.9274 22.2343 24.9077 22.2762 24.8793L26.1671 22.3692C27.1959 24.3263 26.6291 26.7423 24.8374 28.0372L24.8316 28.043ZM25.7451 21.7041C25.0393 20.8001 24.0121 20.2035 22.8774 20.0384L22.5305 23.7804L25.7451 21.7041ZM25.693 14.4687C25.3589 15.6244 25.0247 16.4962 24.7719 17.1558C24.7185 17.2949 24.6688 17.4247 24.6234 17.5456L23.3804 16.6665L25.693 14.4687ZM24.6061 14.4109C23.3578 14.6125 22.1023 14.7668 20.8423 14.8736L22.7213 16.2038L24.6061 14.4109ZM26.2365 8.11825C27.0575 8.19344 27.9073 8.12404 28.6532 8.00836L28.9249 8.60986C28.3352 8.64457 27.7339 8.70819 27.1904 8.80072C26.751 8.87013 25.6294 7.75967 26.2365 8.11825Z" fill="#D6DEF2"/>
</svg>
