<svg width="138" height="118" viewBox="0 0 138 118" fill="none" xmlns="http://www.w3.org/2000/svg">
<path fill-rule="evenodd" clip-rule="evenodd" d="M93.9581 97.9283V83H39V97.9283C39.1258 100.312 38.6227 101.315 40.1319 102.319L65.2843 117.624C66.0389 118.125 66.9192 118.125 67.6738 117.624L92.8262 102.319C94.3354 101.315 93.9581 99.9355 93.9581 97.9283Z" fill="url(#paint0_linear)"/>
<path fill-rule="evenodd" clip-rule="evenodd" d="M136.953 73.8773L136.827 53L82 53.7546V73.8773C82.126 76.2669 81.6219 77.273 83.1343 78.2791L108.342 93.6227C109.098 94.1258 109.981 94.1258 110.737 93.6227L135.945 78.2791C137.331 77.273 136.953 75.8896 136.953 73.8773Z" fill="url(#paint1_linear)"/>
<path fill-rule="evenodd" clip-rule="evenodd" d="M54.9194 70V50H0V70C0.125962 72.375 -0.377886 73.375 1.13366 74.375L26.326 89.625C27.0818 90.125 27.9635 90.125 28.7193 89.625L53.9117 74.375C55.4232 73.5 54.9194 72 54.9194 70Z" fill="url(#paint2_linear)"/>
<path fill-rule="evenodd" clip-rule="evenodd" d="M93.9581 44.9467V18L39.1258 18.1253L39 44.9467C39.1258 47.328 38.6227 48.3307 40.1319 49.3333L65.2843 64.624C66.0389 65.1253 66.9192 65.1253 67.6738 64.624L92.8262 49.3333C94.3354 48.456 93.9581 46.952 93.9581 44.9467Z" fill="url(#paint3_linear)"/>
<path d="M66.45 35L66.55 65" stroke="url(#paint4_linear)" stroke-width="0.5"/>
<path fill-rule="evenodd" clip-rule="evenodd" d="M40.1513 15.2081L64.9948 0.332588C65.7515 -0.0456022 66.6342 -0.171666 67.3909 0.332588L92.865 15.2081C94.3783 16.0905 94.3783 18.3596 92.865 19.2421L67.6431 34.6218C66.8865 35.1261 66.0037 35.1261 65.247 34.6218L40.0252 19.2421C38.6379 18.3596 38.6379 16.0905 40.1513 15.2081Z" fill="url(#paint5_linear)"/>
<path d="M40.1513 15.2081L64.9948 0.332588C65.7515 -0.0456022 66.6342 -0.171666 67.3909 0.332588L92.865 15.2081C94.3783 16.0905 94.3783 18.3596 92.865 19.2421L67.6431 34.6218C66.8865 35.1261 66.0037 35.1261 65.247 34.6218L40.0252 19.2421C38.6379 18.3596 38.6379 16.0905 40.1513 15.2081" stroke="url(#paint6_linear)" stroke-width="0.5"/>
<path d="M81 41L90 46" stroke="url(#paint7_linear)" stroke-width="0.75"/>
<path d="M39 18V47.5101C39 47.5101 39 48.6355 40.1327 49.3857C41.2654 50.136 65.0526 64.5159 65.0526 64.5159C65.0526 64.5159 66.3112 65.5162 67.6957 64.6409C69.0801 63.7656 92.6156 49.5108 92.6156 49.5108L93.2449 49.1356C93.2449 49.1356 94 48.6355 94 47.135C94 45.6344 93.8741 18 93.8741 18" stroke="url(#paint8_linear)" stroke-width="0.5"/>
<path fill-rule="evenodd" clip-rule="evenodd" d="M1.15126 49.2081L25.9948 34.3326C26.7515 33.9544 27.6342 33.8283 28.3909 34.3326L53.865 49.2081C55.3783 50.0905 55.3783 52.3596 53.865 53.2421L28.6431 68.6218C27.8865 69.1261 27.0037 69.1261 26.247 68.6218L1.02515 53.2421C-0.362051 52.3596 -0.36205 50.2166 1.15126 49.2081Z" fill="url(#paint9_linear)"/>
<path d="M1.15126 49.2081L25.9948 34.3326C26.7515 33.9544 27.6342 33.8283 28.3909 34.3326L53.865 49.2081C55.3783 50.0905 55.3783 52.3596 53.865 53.2421L28.6431 68.6218C27.8865 69.1261 27.0037 69.1261 26.247 68.6218L1.02515 53.2421C-0.362051 52.3596 -0.36205 50.2166 1.15126 49.2081" stroke="url(#paint10_linear)" stroke-width="0.5"/>
<path d="M57 80L42 72" stroke="url(#paint11_linear)" stroke-width="0.75"/>
<path d="M0 51V72.5089C0 72.5089 0 73.6343 1.13272 74.3846C2.26545 75.1349 26.0526 89.5159 26.0526 89.5159C26.0526 89.5159 27.3112 90.5163 28.6957 89.6409C30.0801 88.7656 53.6156 74.5097 53.6156 74.5097L54.2449 74.1345C54.2449 74.1345 55 73.6343 55 72.1337C55 70.6331 55 51.1251 55 51.1251" stroke="url(#paint12_linear)" stroke-width="0.5"/>
<path d="M27.5 69V91" stroke="url(#paint13_linear)" stroke-width="0.5"/>
<path fill-rule="evenodd" clip-rule="evenodd" d="M83.1513 50.2081L107.995 35.3326C108.751 34.9544 109.634 34.8283 110.391 35.3326L135.865 50.2081C137.378 51.0905 137.378 53.3596 135.865 54.2421L110.643 69.6218C109.886 70.1261 109.004 70.1261 108.247 69.6218L83.0252 54.2421C81.6379 53.2336 81.6379 51.0905 83.1513 50.2081Z" fill="url(#paint14_linear)"/>
<path d="M83.1513 50.2081L107.995 35.3326C108.751 34.9544 109.634 34.8283 110.391 35.3326L135.865 50.2081C137.378 51.0905 137.378 53.3596 135.865 54.2421L110.643 69.6218C109.886 70.1261 109.004 70.1261 108.247 69.6218L83.0252 54.2421C81.6379 53.2336 81.6379 51.0905 83.1513 50.2081" stroke="url(#paint15_linear)" stroke-width="0.5"/>
<path d="M109.5 70V93" stroke="url(#paint16_linear)" stroke-width="0.5"/>
<path d="M82 52.7549V75.4019C82 75.4019 82 76.5342 83.1327 77.2891C84.2654 78.044 108.053 92.5129 108.053 92.5129C108.053 92.5129 109.311 93.5194 110.696 92.6387C112.08 91.758 135.616 77.4149 135.616 77.4149L136.245 77.0375C136.245 77.0375 137 76.5342 137 75.0244C137 73.5146 136.874 52 136.874 52" stroke="url(#paint17_linear)" stroke-width="0.5"/>
<path d="M95 72L82 80" stroke="url(#paint18_linear)" stroke-width="0.75"/>
<path d="M66.5 99V116" stroke="url(#paint19_linear)" stroke-width="0.5"/>
<path d="M39 82L39.1256 99.4453C39.1256 99.4453 39.1256 100.575 40.2557 101.328C41.3858 102.081 65.1187 116.514 65.1187 116.514C65.1187 116.514 66.3744 117.518 67.7557 116.64C69.137 115.761 92.6187 101.453 92.6187 101.453L93.2466 101.077C93.2466 101.077 94 100.575 94 99.0688C94 97.5627 93.8744 82 93.8744 82" stroke="url(#paint20_linear)" stroke-width="0.5"/>
<path fill-rule="evenodd" clip-rule="evenodd" d="M40.1513 82.2081L64.9948 67.3326C65.7515 66.9544 66.6342 66.8283 67.3909 67.3326L92.865 82.2081C94.3783 83.0905 94.3783 85.3596 92.865 86.2421L67.6431 101.622C66.8865 102.126 66.0037 102.126 65.247 101.622L40.0252 86.2421C38.6379 85.2336 38.6379 83.0905 40.1513 82.2081Z" fill="url(#paint21_linear)"/>
<path d="M40.1513 82.2081L64.9948 67.3326C65.7515 66.9544 66.6342 66.8283 67.3909 67.3326L92.865 82.2081C94.3783 83.0905 94.3783 85.3596 92.865 86.2421L67.6431 101.622C66.8865 102.126 66.0037 102.126 65.247 101.622L40.0252 86.2421C38.6379 85.2336 38.6379 83.0905 40.1513 82.2081" stroke="url(#paint22_linear)" stroke-width="0.5"/>
<defs>
<linearGradient id="paint0_linear" x1="39.0809" y1="117.906" x2="94.0499" y2="117.906" gradientUnits="userSpaceOnUse">
<stop stop-color="#AECFFA"/>
<stop offset="0.567" stop-color="#BFD9FB"/>
<stop offset="1" stop-color="#D7E7FC" stop-opacity="0.6355"/>
</linearGradient>
<linearGradient id="paint1_linear" x1="81.9316" y1="93.9714" x2="137.021" y2="93.9714" gradientUnits="userSpaceOnUse">
<stop stop-color="#AECFFA"/>
<stop offset="0.567" stop-color="#BFD9FB"/>
<stop offset="1" stop-color="#D7E7FC" stop-opacity="0.6355"/>
</linearGradient>
<linearGradient id="paint2_linear" x1="-0.0400559" y1="90.0348" x2="55.0164" y2="90.0348" gradientUnits="userSpaceOnUse">
<stop stop-color="#AECFFA"/>
<stop offset="0.567" stop-color="#BFD9FB"/>
<stop offset="1" stop-color="#D7E7FC" stop-opacity="0.6355"/>
</linearGradient>
<linearGradient id="paint3_linear" x1="39.0108" y1="65.0207" x2="93.9798" y2="65.0207" gradientUnits="userSpaceOnUse">
<stop stop-color="#AECFFA"/>
<stop offset="0.567" stop-color="#BFD9FB"/>
<stop offset="1" stop-color="#D7E7FC" stop-opacity="0.6355"/>
</linearGradient>
<linearGradient id="paint4_linear" x1="66.2631" y1="57.5273" x2="66.7631" y2="57.5273" gradientUnits="userSpaceOnUse">
<stop stop-color="#7CA9E7"/>
<stop offset="1" stop-color="#89B1E9"/>
</linearGradient>
<linearGradient id="paint5_linear" x1="39.0058" y1="35.0171" x2="94.0813" y2="35.0171" gradientUnits="userSpaceOnUse">
<stop stop-color="#AECFFA"/>
<stop offset="0.567" stop-color="#BFD9FB"/>
<stop offset="1" stop-color="#D7E7FC" stop-opacity="0.6355"/>
</linearGradient>
<linearGradient id="paint6_linear" x1="38.6905" y1="35.2177" x2="94.3966" y2="35.2177" gradientUnits="userSpaceOnUse">
<stop stop-color="#7CA9E7"/>
<stop offset="1" stop-color="#99BCEC"/>
</linearGradient>
<linearGradient id="paint7_linear" x1="80.8045" y1="46.0927" x2="90.237" y2="46.0927" gradientUnits="userSpaceOnUse">
<stop stop-color="#7CA9E7"/>
<stop offset="1" stop-color="#99BCEC"/>
</linearGradient>
<linearGradient id="paint8_linear" x1="38.7187" y1="65.3379" x2="94.3139" y2="65.3379" gradientUnits="userSpaceOnUse">
<stop stop-color="#7CA9E7"/>
<stop offset="1" stop-color="#99BCEC"/>
</linearGradient>
<linearGradient id="paint9_linear" x1="-0.00112523" y1="69.0457" x2="55.0744" y2="69.0457" gradientUnits="userSpaceOnUse">
<stop stop-color="#AECFFA"/>
<stop offset="0.567" stop-color="#BFD9FB"/>
<stop offset="1" stop-color="#D7E7FC" stop-opacity="0.6355"/>
</linearGradient>
<linearGradient id="paint10_linear" x1="-0.316399" y1="69.2464" x2="55.3897" y2="69.2464" gradientUnits="userSpaceOnUse">
<stop stop-color="#7CA9E7"/>
<stop offset="1" stop-color="#99BCEC"/>
</linearGradient>
<linearGradient id="paint11_linear" x1="41.7627" y1="80.1277" x2="57.2678" y2="80.1277" gradientUnits="userSpaceOnUse">
<stop stop-color="#7CA9E7"/>
<stop offset="1" stop-color="#99BCEC"/>
</linearGradient>
<linearGradient id="paint12_linear" x1="-0.332014" y1="90.3467" x2="55.263" y2="90.3467" gradientUnits="userSpaceOnUse">
<stop stop-color="#7CA9E7"/>
<stop offset="1" stop-color="#99BCEC"/>
</linearGradient>
<linearGradient id="paint13_linear" x1="27.2281" y1="85.5103" x2="27.7281" y2="85.5103" gradientUnits="userSpaceOnUse">
<stop stop-color="#7CA9E7"/>
<stop offset="1" stop-color="#89B1E9"/>
</linearGradient>
<linearGradient id="paint14_linear" x1="81.9705" y1="69.9555" x2="137.046" y2="69.9555" gradientUnits="userSpaceOnUse">
<stop stop-color="#AECFFA"/>
<stop offset="0.567" stop-color="#BFD9FB"/>
<stop offset="1" stop-color="#D7E7FC" stop-opacity="0.6355"/>
</linearGradient>
<linearGradient id="paint15_linear" x1="81.6552" y1="70.1561" x2="137.361" y2="70.1561" gradientUnits="userSpaceOnUse">
<stop stop-color="#7CA9E7"/>
<stop offset="1" stop-color="#99BCEC"/>
</linearGradient>
<linearGradient id="paint16_linear" x1="109.25" y1="87.2622" x2="109.75" y2="87.2622" gradientUnits="userSpaceOnUse">
<stop stop-color="#7CA9E7"/>
<stop offset="1" stop-color="#89B1E9"/>
</linearGradient>
<linearGradient id="paint17_linear" x1="81.6395" y1="93.4529" x2="137.235" y2="93.4529" gradientUnits="userSpaceOnUse">
<stop stop-color="#7CA9E7"/>
<stop offset="1" stop-color="#99BCEC"/>
</linearGradient>
<linearGradient id="paint18_linear" x1="82.7209" y1="80.9787" x2="96.1069" y2="77.407" gradientUnits="userSpaceOnUse">
<stop stop-color="#7CA9E7"/>
<stop offset="1" stop-color="#99BCEC"/>
</linearGradient>
<linearGradient id="paint19_linear" x1="66.2687" y1="111.789" x2="66.7687" y2="111.789" gradientUnits="userSpaceOnUse">
<stop stop-color="#7CA9E7"/>
<stop offset="1" stop-color="#89B1E9"/>
</linearGradient>
<linearGradient id="paint20_linear" x1="38.7018" y1="117.359" x2="94.3452" y2="117.359" gradientUnits="userSpaceOnUse">
<stop stop-color="#7CA9E7"/>
<stop offset="1" stop-color="#99BCEC"/>
</linearGradient>
<linearGradient id="paint21_linear" x1="38.994" y1="101.944" x2="94.0695" y2="101.944" gradientUnits="userSpaceOnUse">
<stop stop-color="#AECFFA"/>
<stop offset="0.567" stop-color="#BFD9FB"/>
<stop offset="1" stop-color="#D7E7FC" stop-opacity="0.6355"/>
</linearGradient>
<linearGradient id="paint22_linear" x1="38.6787" y1="102.145" x2="94.3848" y2="102.145" gradientUnits="userSpaceOnUse">
<stop stop-color="#7CA9E7"/>
<stop offset="1" stop-color="#99BCEC"/>
</linearGradient>
</defs>
</svg>
