<svg width="1440" height="722" viewBox="0 0 1440 722" fill="none" xmlns="http://www.w3.org/2000/svg">
<mask id="mask0" mask-type="alpha" maskUnits="userSpaceOnUse" x="0" y="0" width="1440" height="722">
<path d="M1440 0H0V722H1440V0Z" fill="#C4C4C4"/>
</mask>
<g mask="url(#mask0)">
<path opacity="0.350818" d="M-17.8655 -32C-17.8655 -32 -25.2516 262.477 372.923 262.477C559.542 262.477 793.408 194.424 1115.53 91.9865C1251.6 48.7155 1560 41.6311 1560 41.6311V870H-17.8655V-32Z" fill="url(#paint0_linear)"/>
<path opacity="0.139114" d="M-17.8655 0C-17.8655 0 -25.2516 294.477 372.923 294.477C559.542 294.477 793.408 226.424 1115.53 123.987C1317.96 59.6101 1560 73.6311 1560 73.6311V902H-17.8655V0Z" fill="url(#paint1_linear)"/>
<path opacity="0.203497" d="M1559.87 90C1559.87 90 1567.25 384.477 1169.08 384.477C982.458 384.477 748.592 316.424 426.472 213.987C290.404 170.716 -18 163.631 -18 163.631V992H1559.87V90Z" fill="url(#paint2_linear)"/>
<path d="M-723.809 207C-723.809 207 -734.288 590.701 -169.391 590.701C-59.3827 590.701 -17.1557 345.275 124.723 292.243C233.175 251.705 373.476 428.177 523.962 390.814C650.419 359.418 784.749 283.922 906.718 252.824C1363.72 136.305 1669 441.066 1669 441.066L1514.74 1233H-723.809V207Z" fill="url(#paint3_linear)"/>
</g>
<defs>
<linearGradient id="paint0_linear" x1="335.051" y1="-3.78273" x2="335.051" y2="494.602" gradientUnits="userSpaceOnUse">
<stop stop-color="#E9EEF3"/>
<stop offset="1" stop-color="white"/>
</linearGradient>
<linearGradient id="paint1_linear" x1="335.051" y1="28.2173" x2="335.051" y2="526.602" gradientUnits="userSpaceOnUse">
<stop stop-color="#2592FF"/>
<stop offset="1" stop-color="white"/>
</linearGradient>
<linearGradient id="paint2_linear" x1="1206.95" y1="118.217" x2="1206.95" y2="616.602" gradientUnits="userSpaceOnUse">
<stop stop-color="#BCDEFF"/>
<stop offset="1" stop-color="white"/>
</linearGradient>
<linearGradient id="paint3_linear" x1="-188.606" y1="239.096" x2="-188.606" y2="805.996" gradientUnits="userSpaceOnUse">
<stop stop-color="white"/>
<stop offset="1" stop-color="white"/>
</linearGradient>
</defs>
</svg>
