<svg width="1437" height="1613" viewBox="0 0 1437 1613" fill="none" xmlns="http://www.w3.org/2000/svg">
<mask id="mask0" mask-type="alpha" maskUnits="userSpaceOnUse" x="0" y="0" width="1437" height="1613">
<rect width="1437" height="1613" fill="#C4C4C4"/>
</mask>
<g mask="url(#mask0)">
<rect width="1437" height="1613" fill="white"/>
<path fill-rule="evenodd" clip-rule="evenodd" d="M549.225 485C274.875 485 6.45 543.425 -3 545.525V918.875H1437V531.95C1091.85 583.625 828.6 485 549.225 485Z" fill="url(#paint0_linear)"/>
<path fill-rule="evenodd" clip-rule="evenodd" d="M549.225 485C274.875 485 6.45 543.425 -3 545.525V918.875H1437V531.95C1091.85 583.625 828.6 485 549.225 485Z" fill="url(#paint1_linear)"/>
<path fill-rule="evenodd" clip-rule="evenodd" d="M1408.12 672.8C1149 615.275 772.875 584.525 329.1 676.7L288.375 757.85L1417.12 793.325L1408.12 672.8Z" fill="url(#paint2_linear)"/>
<path fill-rule="evenodd" clip-rule="evenodd" d="M800.025 695.75C465 636.8 185.7 624.8 -3 654.8V935.225H1437V665.675C1240.8 682.55 1135.28 754.7 800.025 695.75Z" fill="url(#paint3_linear)"/>
<path opacity="0.43" fill-rule="evenodd" clip-rule="evenodd" d="M800.025 695.75C465 636.8 185.7 624.8 -3 654.8V935.225H1437V665.675C1240.8 682.55 1135.28 754.7 800.025 695.75Z" fill="url(#paint4_linear)"/>
<path opacity="0.75" fill-rule="evenodd" clip-rule="evenodd" d="M605.55 813.05C576.825 805.85 547.725 800.525 518.4 796.55C489.075 792.5 459.6 790.175 430.05 789.125C400.5 788.075 370.875 788.3 341.325 790.325L319.2 792.2L297.15 794.825C282.525 796.775 267.9 797.975 253.2 798.2C223.8 798.65 194.325 795.725 165.15 791.525C135.975 787.4 106.95 781.85 77.625 777.725C62.925 775.7 48.225 773.975 33.375 773.45C25.95 773.075 18.525 773.225 11.1 773.675C6.375 773.975 1.65 774.5 -3 775.175V778.325C1.725 777.575 6.525 777.05 11.325 776.75C18.675 776.375 25.95 776.225 33.3 776.525C48 777.05 62.625 778.775 77.25 780.725C106.425 784.775 135.45 790.325 164.775 794.45C194.025 798.65 223.65 801.575 253.275 801.05C268.125 800.825 282.9 799.625 297.6 797.6L319.5 794.975L341.55 793.1C370.95 791.15 400.5 790.85 429.975 791.825C459.45 792.875 488.85 795.2 518.1 799.175C547.35 803.075 576.375 808.4 604.95 815.525C633.525 822.725 661.725 831.8 688.425 844.175L689.475 841.925C662.55 829.4 634.275 820.25 605.55 813.05Z" fill="url(#paint5_linear)"/>
<path fill-rule="evenodd" clip-rule="evenodd" d="M1194.6 783.425H1194.45C1163.02 778.7 1129.2 774.725 1093.12 772.1C1047.07 768.725 997.575 767.525 945.3 769.625C855.825 773.15 767.175 786.575 678.3 802.025C644.4 807.875 610.5 814.1 576.45 820.175C389.175 853.475 199.2 882.875 -3 836V1091H1437V846.2C1437 846.2 1343.92 806 1194.6 783.425Z" fill="url(#paint6_linear)"/>
<path fill-rule="evenodd" clip-rule="evenodd" d="M595.2 1033.78C492.075 1020.05 391.95 1019.08 303.9 1024.25C194.1 1030.7 103.275 1046.68 49.275 1059.35C20.55 1066.1 2.24995 1071.88 -2.92505 1074.73V836C3.29995 837.5 9.59995 838.85 15.75 840.125L21.15 841.25C23.175 841.625 25.2 842.075 27.15 842.45C29.85 842.975 32.625 843.5 35.325 844.025C37.0499 844.325 38.775 844.7 40.5 845C50.9249 846.875 61.35 848.6 71.7 850.1H71.7749C92.4749 853.1 113.175 855.425 133.65 857.075C145.425 858.05 157.2 858.725 168.9 859.25H169.5C308.775 865.475 443.4 843.8 576.525 820.1C612.6 812 646.575 806 678.375 801.95C848.925 780.275 956.025 814.775 982.95 880.55C1014.82 958.625 931.2 1078.55 595.2 1033.78Z" fill="url(#paint7_linear)"/>
<path fill-rule="evenodd" clip-rule="evenodd" d="M1437 1022.97V1031.52C1397.4 1028.22 1357.5 1027.1 1317.75 1027.25C1275 1027.55 1232.25 1029.5 1189.88 1034.3C1168.73 1036.7 1147.58 1039.77 1126.73 1043.67L1111.05 1046.75L1095.53 1050.2C1085.03 1052.6 1074.53 1055.07 1063.95 1057.17C1021.73 1066.02 979.05 1072.55 936.225 1077.65C893.475 1082.75 850.5 1086.05 807.6 1088.75C794.85 1089.5 782.175 1090.25 769.425 1090.92H518.175C528.675 1090.1 539.175 1089.27 549.675 1088.6C592.575 1085.75 635.475 1083.5 678.3 1081.32C764.025 1077.2 849.675 1073.3 934.65 1063.77C977.1 1058.97 1019.4 1052.82 1061.25 1044.27C1071.75 1042.25 1082.1 1039.85 1092.53 1037.52L1108.43 1034.07L1124.4 1031C1145.7 1027.17 1167.15 1024.32 1188.6 1022.15C1231.58 1017.87 1274.7 1016.22 1317.75 1016.6C1339.28 1016.9 1360.8 1017.57 1382.33 1018.77C1400.55 1019.82 1418.78 1021.17 1437 1022.97Z" fill="url(#paint8_linear)"/>
<path fill-rule="evenodd" clip-rule="evenodd" d="M1370.93 921.575C1370.33 923.75 1369.58 925.85 1368.45 927.8C1367.33 929.675 1366.2 931.325 1364.93 932.975C1359.6 939.425 1352.62 944 1345.43 947.15C1338.15 950.3 1330.65 952.25 1323.08 953.525C1315.5 954.875 1308 955.625 1300.43 956.075C1285.35 956.975 1270.35 956.675 1255.43 955.925C1225.58 954.425 1195.95 951.35 1166.4 948.35C1107.3 942.35 1048.28 936.2 989.175 935.15C989.175 935.15 984.9 938.225 981.225 940.025C977.625 941.75 974.025 943.325 970.35 944.9C963.075 947.975 955.725 950.825 948.3 953.45C933.45 958.7 918.45 963.35 903.3 967.4C888.15 971.45 872.85 975.05 857.475 978.125L846 980.45L834.45 982.475C830.55 983.15 826.725 983.9 822.9 984.5L811.2 986.075C780 990.05 748.8 991.625 717.6 992.525C686.4 993.575 655.275 993.725 624.075 993.8C561.75 993.725 499.5 992.525 437.25 991.4L343.875 989.825C321.225 989.6 293.25 989.375 267.75 989.6C259.875 989.675 239.775 989.825 232.575 989.975C232.425 987.575 232.35 985.25 232.425 983C242.1 982.7 264.975 982.55 275.775 982.475C299.1 982.25 323.625 982.4 343.95 982.475L437.325 983.6C499.575 984.425 561.75 985.325 624 985.1C655.125 984.875 686.175 984.575 717.225 983.375C748.275 982.325 779.25 980.6 809.85 976.55L821.25 974.975C825.075 974.375 828.9 973.55 832.65 972.875L844.05 970.775L855.45 968.375C870.6 965.225 885.6 961.475 900.525 957.35C915.45 953.3 930.225 949.175 944.7 943.85C951.975 941.225 959.1 938.375 966.075 935.3C969.6 933.725 973.05 932.15 976.5 930.5C979.875 928.85 989.175 923.525 989.175 923.525C989.175 923.525 1048.95 926.375 1078.65 929C1108.35 931.625 1137.9 934.925 1167.38 938.225C1196.93 941.45 1226.4 944.825 1255.88 946.55C1270.58 947.375 1285.35 947.825 1299.9 947.15C1307.18 946.775 1314.45 946.1 1321.58 944.9C1328.7 943.7 1335.6 941.975 1342.05 939.275C1348.43 936.575 1354.28 932.75 1358.55 927.65C1359.6 926.375 1360.58 925.025 1361.4 923.675C1362.22 922.4 1362.68 920.975 1363.12 919.55C1363.88 916.625 1363.95 913.4 1363.28 910.175C1362.08 903.65 1358.7 897.275 1354.65 891.5C1350.53 885.65 1345.58 880.25 1340.33 875.3C1329.68 865.325 1317.68 856.775 1305.08 849.2C1292.48 841.625 1279.2 835.025 1265.62 829.25C1238.47 817.625 1209.98 809.225 1181.03 803.075C1152.08 796.85 1122.6 793.025 1093.05 791.15L1093.2 788.6C1152.6 791.15 1212.22 801.35 1267.88 823.925C1281.75 829.625 1295.32 836.075 1308.38 843.65C1321.43 851.225 1333.95 859.775 1345.28 870.125C1350.9 875.3 1356.23 880.925 1360.8 887.225C1365.38 893.525 1369.43 900.65 1371.08 908.9C1371.98 912.725 1371.98 917.225 1370.93 921.575Z" fill="url(#paint9_linear)"/>
<path fill-rule="evenodd" clip-rule="evenodd" d="M740.175 1061C740.55 1065.13 748.275 1066.7 764.625 1066.4C780.975 1066.1 815.775 1060.78 819.15 1057.63C821.55 1055.45 823.2 1047.35 822.375 1040.23C822.225 1038.95 822 1037.75 821.7 1036.55C821.25 1034.83 820.65 1033.25 819.75 1031.98C815.025 1025 786.75 1015.85 762.375 1021.55C752.325 1023.95 746.7 1030.33 743.55 1037.38C742.35 1040.08 741.525 1042.85 741 1045.55C739.575 1052.9 740.025 1059.28 740.175 1061Z" fill="url(#paint10_linear)"/>
<path fill-rule="evenodd" clip-rule="evenodd" d="M740.175 1061C740.55 1065.13 748.275 1066.7 764.625 1066.4C771.15 1066.25 780.6 1065.35 789.75 1064.08C790.425 1064 791.1 1063.93 791.7 1063.78C804.9 1061.9 817.125 1059.43 819.15 1057.63C821.55 1055.45 823.2 1047.35 822.375 1040.23C822.225 1038.95 822 1037.75 821.7 1036.55C821.25 1034.83 820.65 1033.25 819.75 1031.98C815.025 1025 786.75 1015.85 762.375 1021.55C752.325 1023.95 746.7 1030.33 743.55 1037.38C742.35 1040.08 741.525 1042.85 741 1045.55C740.55 1047.88 740.25 1050.13 740.025 1052.15C739.95 1053.35 739.875 1054.48 739.875 1055.45C739.95 1058.23 740.1 1060.18 740.175 1061Z" fill="url(#paint11_linear)"/>
<path fill-rule="evenodd" clip-rule="evenodd" d="M741.075 1045.7C750.825 1047.8 766.35 1048.47 788.925 1045.85C789.6 1045.77 790.2 1045.7 790.875 1045.62C799.875 1044.5 810 1042.85 821.325 1040.6L822.45 1040.37C822.3 1039.1 822.075 1037.9 821.775 1036.7C821.1 1036.77 820.725 1036.85 820.725 1036.85C820.725 1036.85 767.925 1043.37 743.625 1037.6C742.5 1040.22 741.6 1043 741.075 1045.7H741.075Z" fill="url(#paint12_linear)"/>
<g opacity="0.75">
<path fill-rule="evenodd" clip-rule="evenodd" d="M789.825 1064.15C790.5 1064.07 791.175 1064 791.775 1063.85C791.625 1056.35 791.175 1049.22 790.875 1045.62C790.2 1045.7 789.6 1045.77 788.925 1045.85C789.225 1049.52 789.675 1056.65 789.825 1064.15Z" fill="url(#paint13_linear)"/>
</g>
<g opacity="0.75">
<path fill-rule="evenodd" clip-rule="evenodd" d="M740.025 1055.6C748.425 1057.33 755.4 1057.25 755.7 1057.25H755.85C756.675 1057.18 757.35 1056.5 757.35 1055.6C757.35 1054.7 756.6 1054.03 755.7 1054.03C755.625 1054.03 748.5 1054.03 740.25 1052.3C740.1 1053.5 740.025 1054.63 740.025 1055.6Z" fill="url(#paint14_linear)"/>
</g>
<path fill-rule="evenodd" clip-rule="evenodd" d="M1271.92 936.875C1271.85 939.275 1259.25 939.725 1249.72 939.35L1248.3 939.275C1247.92 939.275 1247.55 939.275 1247.25 939.2C1238.62 938.825 1231.27 938.15 1227.3 936.425C1226.55 936.125 1225.87 935.75 1225.42 935.3C1222.65 932.975 1222.42 928.025 1223.85 924.05C1224.15 923.3 1224.45 922.55 1224.82 921.875V921.8C1225.2 921.125 1225.95 920.45 1226.92 919.775C1232.1 916.1 1244.77 912.35 1256.55 914.375C1262.4 915.35 1266.07 919.025 1268.32 923.075C1269.07 924.425 1269.67 925.85 1270.12 927.2C1271.7 931.775 1271.92 935.825 1271.92 936.875Z" fill="url(#paint15_linear)"/>
<path opacity="0.78" fill-rule="evenodd" clip-rule="evenodd" d="M1271.92 936.875C1271.85 939.275 1259.25 939.725 1249.72 939.35L1248.3 939.275C1247.92 939.275 1247.55 939.275 1247.25 939.2C1242.9 939.05 1238.85 938.75 1235.47 938.3C1232.1 937.85 1229.32 937.25 1227.37 936.425C1226.62 936.125 1225.95 935.75 1225.5 935.3C1223.02 933.2 1222.57 929 1223.55 925.25C1223.7 924.8 1223.77 924.425 1223.92 924.05C1224.22 923.3 1224.52 922.55 1224.9 921.875V921.8C1225.27 921.125 1226.02 920.45 1227 919.775C1232.17 916.1 1244.85 912.35 1256.62 914.375C1262.47 915.35 1266.15 919.025 1268.4 923.075C1269.15 924.425 1269.75 925.85 1270.2 927.2C1270.65 928.475 1270.95 929.75 1271.25 930.875C1271.4 931.475 1271.47 932.075 1271.55 932.6C1271.85 934.775 1271.92 936.275 1271.92 936.875Z" fill="url(#paint16_linear)"/>
<path opacity="0.84" fill-rule="evenodd" clip-rule="evenodd" d="M1270.2 927.35C1264.95 927.65 1256.77 927.95 1248.52 927.8H1246.35C1237.35 927.5 1228.95 926.975 1223.92 924.275C1224.22 923.525 1224.52 922.775 1224.9 922.1C1231.5 925.175 1252.87 924.275 1268.4 923.3C1269.07 924.575 1269.67 926 1270.2 927.35Z" fill="url(#paint17_linear)"/>
<path opacity="0.82" fill-rule="evenodd" clip-rule="evenodd" d="M1271.55 932.75C1269.82 933.2 1268.55 933.2 1268.1 933.2H1268.02C1267.5 933.2 1267.2 932.75 1267.2 932.3C1267.2 931.775 1267.65 931.4 1268.1 931.475C1268.1 931.475 1269.37 931.55 1271.25 931.025C1271.32 931.625 1271.47 932.225 1271.55 932.75Z" fill="url(#paint18_linear)"/>
<path opacity="0.35" fill-rule="evenodd" clip-rule="evenodd" d="M1248.3 939.35C1247.92 939.35 1247.55 939.35 1247.25 939.275C1248 934.475 1247.62 929.075 1247.47 927.725H1248.52C1248.6 929.3 1249.05 934.55 1248.3 939.35Z" fill="url(#paint19_linear)"/>
<path opacity="0.8" fill-rule="evenodd" clip-rule="evenodd" d="M1235.4 938.375C1232.02 937.925 1229.25 937.325 1227.3 936.5C1226.55 936.2 1225.87 935.825 1225.42 935.375C1222.95 933.275 1222.5 929.075 1223.47 925.325C1224.3 925.775 1226.92 926.975 1229.7 927.575C1229.55 933.5 1231.8 937.1 1235.4 938.375Z" fill="url(#paint20_linear)"/>
<path fill-rule="evenodd" clip-rule="evenodd" d="M1301.18 1004.45C1301.18 1007.75 1307.18 1013.97 1320.08 1015.02C1325.4 1015.4 1333.2 1015.4 1340.78 1015.17C1349.63 1014.8 1358.18 1014.05 1362 1013.07C1362.9 1012.85 1363.58 1012.62 1363.88 1012.4C1365.83 1010.9 1367.78 1004.97 1367.78 999.425C1367.78 998.45 1367.78 997.55 1367.63 996.65C1367.4 995 1367.03 993.425 1366.35 992.225C1365.83 991.325 1365 990.275 1363.8 989.15L1363.73 989.075C1357.13 983.225 1341 975.875 1324.43 978.125C1317.68 979.025 1312.73 982.025 1309.28 985.775C1308 987.05 1306.95 988.475 1306.05 989.9C1304.33 992.6 1303.2 995.375 1302.38 997.775C1301.48 1000.92 1301.18 1003.47 1301.18 1004.45H1301.18Z" fill="url(#paint21_linear)"/>
<path fill-rule="evenodd" clip-rule="evenodd" d="M1301.18 1004.45C1301.18 1007.75 1307.18 1013.97 1320.08 1015.02C1325.25 1015.4 1332.83 1015.47 1340.25 1015.17H1341.75C1350.3 1014.8 1358.33 1014.05 1362.08 1013.15C1362.98 1012.92 1363.65 1012.7 1363.95 1012.47C1365.98 1010.97 1367.85 1005.05 1367.85 999.5C1367.85 998.525 1367.78 997.625 1367.7 996.725C1367.48 995.075 1367.1 993.5 1366.43 992.3C1365.9 991.4 1365.08 990.35 1363.88 989.225L1363.8 989.15C1357.2 983.3 1341.08 975.95 1324.5 978.2C1317.68 979.1 1312.8 982.1 1309.35 985.85C1308.08 987.2 1307.03 988.55 1306.13 989.975C1304.55 992.45 1303.43 995 1302.68 997.325C1302.6 997.55 1302.53 997.7 1302.45 997.925C1302.23 998.675 1302 999.425 1301.85 1000.1C1301.4 1002.05 1301.18 1003.7 1301.18 1004.45Z" fill="url(#paint22_linear)"/>
<path opacity="0.74" fill-rule="evenodd" clip-rule="evenodd" d="M1301.93 999.95C1303.58 1002.5 1307.03 1005.95 1314.15 1007.83C1314.23 1007.83 1314.3 1007.9 1314.38 1007.9C1314.98 1007.98 1315.58 1007.53 1315.73 1006.93C1315.95 1006.25 1315.5 1005.5 1314.83 1005.28C1306.5 1003.03 1303.65 998.975 1302.75 997.175C1302.68 997.4 1302.6 997.55 1302.53 997.775C1302.3 998.525 1302.08 999.275 1301.93 999.95Z" fill="url(#paint23_linear)"/>
<path opacity="0.79" fill-rule="evenodd" clip-rule="evenodd" d="M1306.13 989.9C1307.63 993.95 1314.38 1000.32 1341.08 1000.62H1342.5C1349.03 1000.62 1356.75 1000.32 1365.75 999.575C1366.43 999.575 1367.1 999.425 1367.85 999.35C1367.85 998.375 1367.78 997.475 1367.7 996.575C1367.7 996.575 1367.03 996.575 1365.75 996.65C1356.08 996.95 1314.23 997.55 1309.35 985.7C1308.15 987.05 1307.1 988.475 1306.13 989.9Z" fill="url(#paint24_linear)"/>
<g opacity="0.35">
<path fill-rule="evenodd" clip-rule="evenodd" d="M1340.33 1015.17H1341.83C1342.58 1009.17 1342.65 1003.55 1342.58 1000.7H1341.15C1341.15 1003.47 1341.08 1009.17 1340.33 1015.17H1340.33Z" fill="url(#paint25_linear)"/>
</g>
<path opacity="0.61" fill-rule="evenodd" clip-rule="evenodd" d="M843.75 1077.87C843.9 1081.32 818.175 1085.37 786.225 1086.95C754.275 1088.52 728.25 1087.02 728.025 1083.57C727.875 1080.12 753.6 1076.07 785.55 1074.5C817.575 1072.92 843.6 1074.42 843.75 1077.87Z" fill="url(#paint26_radial)"/>
<path opacity="0.44" fill-rule="evenodd" clip-rule="evenodd" d="M1282.2 951.5C1282.05 953.9 1266.45 955.025 1247.25 954.05C1228.05 953.075 1212.6 950.3 1212.75 947.9C1212.9 945.5 1228.5 944.375 1247.7 945.35C1266.82 946.4 1282.27 949.175 1282.2 951.5Z" fill="url(#paint27_radial)"/>
<path opacity="0.3" fill-rule="evenodd" clip-rule="evenodd" d="M203.1 797.075C203.025 798.35 194.85 798.65 184.8 797.75C174.825 796.85 166.8 795.125 166.95 793.925C167.025 792.65 175.2 792.35 185.25 793.25C195.15 794.15 203.175 795.875 203.1 797.075Z" fill="url(#paint28_radial)"/>
<path opacity="0.52" fill-rule="evenodd" clip-rule="evenodd" d="M1334.55 1029.35C1357.41 1029.35 1375.95 1026.5 1375.95 1022.98C1375.95 1019.45 1357.41 1016.6 1334.55 1016.6C1311.69 1016.6 1293.15 1019.45 1293.15 1022.98C1293.15 1026.5 1311.69 1029.35 1334.55 1029.35Z" fill="url(#paint29_radial)"/>
<path opacity="0.5" fill-rule="evenodd" clip-rule="evenodd" d="M460.35 993.05C481.392 993.05 498.45 991.203 498.45 988.925C498.45 986.647 481.392 984.8 460.35 984.8C439.308 984.8 422.25 986.647 422.25 988.925C422.25 991.203 439.308 993.05 460.35 993.05Z" fill="url(#paint30_radial)"/>
<rect x="-3" y="645" width="1440" height="446" fill="url(#paint31_linear)"/>
</g>
<defs>
<linearGradient id="paint0_linear" x1="239.546" y1="516.382" x2="239.546" y2="804.098" gradientUnits="userSpaceOnUse">
<stop stop-color="#FAFCFF"/>
<stop offset="0.868" stop-color="#ECF5FF" stop-opacity="0.305"/>
<stop offset="0.999" stop-color="#E9F4FF" stop-opacity="0.2"/>
</linearGradient>
<linearGradient id="paint1_linear" x1="-156.332" y1="503.146" x2="-156.332" y2="1029.42" gradientUnits="userSpaceOnUse">
<stop stop-color="#FAFCFF"/>
<stop offset="1" stop-color="#B8DDFE"/>
</linearGradient>
<linearGradient id="paint2_linear" x1="-904.771" y1="565.41" x2="-902.916" y2="1102.79" gradientUnits="userSpaceOnUse">
<stop stop-color="#FAFCFF"/>
<stop offset="1" stop-color="#BFE0FE"/>
</linearGradient>
<linearGradient id="paint3_linear" x1="-627.387" y1="589.379" x2="-625.839" y2="1136.78" gradientUnits="userSpaceOnUse">
<stop stop-color="#FAFCFF"/>
<stop offset="0.36" stop-color="#E2F1FF"/>
<stop offset="1" stop-color="#B8DDFE"/>
</linearGradient>
<linearGradient id="paint4_linear" x1="1216.08" y1="755.08" x2="1143.89" y2="459.564" gradientUnits="userSpaceOnUse">
<stop stop-color="#FAFCFF"/>
<stop offset="0.273" stop-color="#ECF1FD" stop-opacity="0.781"/>
<stop offset="0.791" stop-color="#C6D3F7" stop-opacity="0.367"/>
<stop offset="0.999" stop-color="#B5C6F5" stop-opacity="0.2"/>
</linearGradient>
<linearGradient id="paint5_linear" x1="-3" y1="844.116" x2="689.443" y2="844.116" gradientUnits="userSpaceOnUse">
<stop stop-color="#EBF5FF" stop-opacity="0.275"/>
<stop offset="0.585" stop-color="#FAFCFF" stop-opacity="0.8"/>
<stop offset="0.945" stop-color="#ECF5FF" stop-opacity="0.279"/>
<stop offset="0.999" stop-color="#E9F4FF" stop-opacity="0.2"/>
</linearGradient>
<linearGradient id="paint6_linear" x1="-881.18" y1="680.01" x2="-875.524" y2="1374.64" gradientUnits="userSpaceOnUse">
<stop stop-color="#FAFCFF"/>
<stop offset="1" stop-color="#B8DDFE"/>
</linearGradient>
<linearGradient id="paint7_linear" x1="-519.428" y1="660.116" x2="-527.044" y2="1249.92" gradientUnits="userSpaceOnUse">
<stop stop-color="#FAFCFF"/>
<stop offset="0.361" stop-color="#E8F3FF"/>
<stop offset="1" stop-color="#BFE0FE"/>
</linearGradient>
<linearGradient id="paint8_linear" x1="518.15" y1="1090.98" x2="1437" y2="1090.98" gradientUnits="userSpaceOnUse">
<stop stop-color="#FAFCFF" stop-opacity="0.8"/>
<stop offset="0.868" stop-color="#ECF5FF" stop-opacity="0.279"/>
<stop offset="0.999" stop-color="#E9F4FF" stop-opacity="0.2"/>
</linearGradient>
<linearGradient id="paint9_linear" x1="761.188" y1="722.684" x2="698.324" y2="1128.88" gradientUnits="userSpaceOnUse">
<stop stop-color="#EBF5FF" stop-opacity="0.275"/>
<stop offset="0.585" stop-color="#FAFCFF" stop-opacity="0.8"/>
<stop offset="0.945" stop-color="#ECF5FF" stop-opacity="0.279"/>
<stop offset="0.999" stop-color="#E9F4FF" stop-opacity="0.2"/>
</linearGradient>
<linearGradient id="paint10_linear" x1="729.058" y1="1010.94" x2="727.68" y2="1073.02" gradientUnits="userSpaceOnUse">
<stop offset="0.001" stop-color="#D5EAFF"/>
<stop offset="0.209" stop-color="#DFF0FF"/>
<stop offset="0.746" stop-color="#C8E1FF"/>
<stop offset="1" stop-color="#DBEEFF"/>
</linearGradient>
<linearGradient id="paint11_linear" x1="731.629" y1="1058.21" x2="787.266" y2="1098.16" gradientUnits="userSpaceOnUse">
<stop stop-color="#DFF0FF"/>
<stop offset="1" stop-color="#C8E1FF"/>
</linearGradient>
<linearGradient id="paint12_linear" x1="740.426" y1="1050.92" x2="797.213" y2="990.139" gradientUnits="userSpaceOnUse">
<stop stop-color="#C1DBF8" stop-opacity="0.5"/>
<stop offset="1" stop-color="#85B4F1"/>
</linearGradient>
<linearGradient id="paint13_linear" x1="781.348" y1="1066.27" x2="799.293" y2="1068.53" gradientUnits="userSpaceOnUse">
<stop stop-color="#C1DBF8" stop-opacity="0.718"/>
<stop offset="1" stop-color="#7EB0F1"/>
</linearGradient>
<linearGradient id="paint14_linear" x1="669.923" y1="1052.6" x2="675.903" y2="1094.17" gradientUnits="userSpaceOnUse">
<stop stop-color="#C1DBF8" stop-opacity="0.718"/>
<stop offset="1" stop-color="#7EB0F1"/>
</linearGradient>
<linearGradient id="paint15_linear" x1="1216.53" y1="912.341" x2="1217.1" y2="943.35" gradientUnits="userSpaceOnUse">
<stop offset="0.001" stop-color="#D4E7FD"/>
<stop offset="0.209" stop-color="#DCECFE"/>
<stop offset="0.746" stop-color="#C8DEF9"/>
<stop offset="1" stop-color="#D9EAFD"/>
</linearGradient>
<linearGradient id="paint16_linear" x1="1231.9" y1="935.971" x2="1269.29" y2="940.707" gradientUnits="userSpaceOnUse">
<stop stop-color="#E8F2FF"/>
<stop offset="1" stop-color="#CFE2F9"/>
</linearGradient>
<linearGradient id="paint17_linear" x1="1114.9" y1="909.306" x2="1115.03" y2="941.012" gradientUnits="userSpaceOnUse">
<stop stop-color="#E2F0FE" stop-opacity="0.6"/>
<stop offset="0.502" stop-color="#BED8F5"/>
<stop offset="1" stop-color="#9DC3F5"/>
</linearGradient>
<linearGradient id="paint18_linear" x1="1244.21" y1="927.362" x2="1245.46" y2="951.387" gradientUnits="userSpaceOnUse">
<stop stop-color="#BED8F5"/>
<stop offset="1" stop-color="#87B5F0"/>
</linearGradient>
<linearGradient id="paint19_linear" x1="1248.92" y1="943.442" x2="1256.45" y2="939.963" gradientUnits="userSpaceOnUse">
<stop stop-color="#E2F0FE" stop-opacity="0.6"/>
<stop offset="0.502" stop-color="#BED8F5"/>
<stop offset="1" stop-color="#87B5F0"/>
</linearGradient>
<linearGradient id="paint20_linear" x1="1218.14" y1="922.023" x2="1217.21" y2="946.172" gradientUnits="userSpaceOnUse">
<stop stop-color="#E2F0FE" stop-opacity="0.6"/>
<stop offset="0.502" stop-color="#BED8F5"/>
<stop offset="1" stop-color="#AED0FA"/>
</linearGradient>
<linearGradient id="paint21_linear" x1="1295.01" y1="972.334" x2="1293.24" y2="1020.86" gradientUnits="userSpaceOnUse">
<stop offset="0.001" stop-color="#D7EAFD"/>
<stop offset="0.209" stop-color="#E0F0FE"/>
<stop offset="0.746" stop-color="#CBE2FD"/>
<stop offset="1" stop-color="#DCEEFE"/>
</linearGradient>
<linearGradient id="paint22_linear" x1="1296.56" y1="1010.6" x2="1350.17" y2="1038.77" gradientUnits="userSpaceOnUse">
<stop stop-color="#E0F0FE"/>
<stop offset="1" stop-color="#CBE2FD"/>
</linearGradient>
<linearGradient id="paint23_linear" x1="1282.17" y1="988.783" x2="1273.64" y2="1035.43" gradientUnits="userSpaceOnUse">
<stop stop-color="#BED8F5"/>
<stop offset="1" stop-color="#87B5F0"/>
</linearGradient>
<linearGradient id="paint24_linear" x1="1250.05" y1="998.3" x2="1265.27" y2="1041.84" gradientUnits="userSpaceOnUse">
<stop stop-color="#C5DCF7" stop-opacity="0.5"/>
<stop offset="1" stop-color="#87B5F0"/>
</linearGradient>
<linearGradient id="paint25_linear" x1="1340.09" y1="995.537" x2="1328.89" y2="1004.21" gradientUnits="userSpaceOnUse">
<stop stop-color="#E2F0FE" stop-opacity="0.6"/>
<stop offset="0.502" stop-color="#BED8F5"/>
<stop offset="1" stop-color="#87B5F0"/>
</linearGradient>
<radialGradient id="paint26_radial" cx="0" cy="0" r="1" gradientUnits="userSpaceOnUse" gradientTransform="translate(785.933 1080.71) rotate(-2.81521) scale(56.8352 7.87052)">
<stop stop-color="#DBDFF2"/>
<stop offset="0.525" stop-color="#DEE4F6" stop-opacity="0.475"/>
<stop offset="1" stop-color="#E4EEFF" stop-opacity="0.01"/>
</radialGradient>
<radialGradient id="paint27_radial" cx="0" cy="0" r="1" gradientUnits="userSpaceOnUse" gradientTransform="translate(1247.5 949.712) rotate(2.99011) scale(34.1165 5.29138)">
<stop stop-color="#DBDFF2"/>
<stop offset="0.525" stop-color="#DEE4F6" stop-opacity="0.475"/>
<stop offset="1" stop-color="#E4EEFF" stop-opacity="0.01"/>
</radialGradient>
<radialGradient id="paint28_radial" cx="0" cy="0" r="1" gradientUnits="userSpaceOnUse" gradientTransform="translate(185.005 795.497) rotate(5.00346) scale(17.791 3.58787)">
<stop stop-color="#DBDFF2"/>
<stop offset="0.525" stop-color="#DEE4F6" stop-opacity="0.475"/>
<stop offset="1" stop-color="#E4EEFF" stop-opacity="0.01"/>
</radialGradient>
<radialGradient id="paint29_radial" cx="0" cy="0" r="1" gradientUnits="userSpaceOnUse" gradientTransform="translate(1334.56 1022.98) scale(40.6 6.25182)">
<stop stop-color="#DBDFF2"/>
<stop offset="0.525" stop-color="#DEE4F6" stop-opacity="0.475"/>
<stop offset="1" stop-color="#E4EEFF" stop-opacity="0.01"/>
</radialGradient>
<radialGradient id="paint30_radial" cx="0" cy="0" r="1" gradientUnits="userSpaceOnUse" gradientTransform="translate(460.35 988.901) scale(37.4137 4.0507)">
<stop stop-color="#DBDFF2"/>
<stop offset="0.525" stop-color="#DEE4F6" stop-opacity="0.475"/>
<stop offset="1" stop-color="#E4EEFF" stop-opacity="0.01"/>
</radialGradient>
<linearGradient id="paint31_linear" x1="-3" y1="645" x2="-3" y2="1091" gradientUnits="userSpaceOnUse">
<stop stop-color="white" stop-opacity="0.01"/>
<stop offset="1" stop-color="white"/>
</linearGradient>
</defs>
</svg>
