<svg width="136" height="120" viewBox="0 0 136 120" fill="none" xmlns="http://www.w3.org/2000/svg">
<path fill-rule="evenodd" clip-rule="evenodd" d="M32.5661 44.8665L66.013 24.4201C66.9765 23.86 68.2153 23.86 69.1788 24.4201L103.452 44.8665C105.516 46.1269 105.516 49.0678 103.452 50.3282L69.5917 71.4748C68.6282 72.1751 67.2518 72.1751 66.2883 71.4748L32.4285 50.3282C30.5015 49.0678 30.5015 46.1269 32.5661 44.8665" fill="#BCD8FA"/>
<path fill-rule="evenodd" clip-rule="evenodd" d="M32.5488 31.8665L66.0037 11.4201C66.9674 10.86 68.2065 10.86 69.1702 11.4201L103.451 31.8665C105.516 33.1269 105.516 36.0678 103.451 37.3282L69.7209 58.4748C68.7572 59.1751 67.3805 59.1751 66.4167 58.4748L32.5488 37.3282C30.4837 36.0678 30.4837 33.1269 32.5488 31.8665" fill="#F5F9FF"/>
<path fill-rule="evenodd" clip-rule="evenodd" d="M31 24H105L104.037 98.7371L68 105L32.1004 99.2938L31 24Z" fill="url(#paint0_linear)"/>
<path d="M104 96L69.5954 117.49C68.6243 118.192 67.237 118.192 65.9884 117.349L32 96.1405" stroke="#BCD8FA" stroke-linecap="round"/>
<path fill-rule="evenodd" clip-rule="evenodd" d="M32.5661 20.8665L66.013 0.420131C66.9765 -0.140044 68.2153 -0.140044 69.1788 0.420131L103.452 20.8665C105.516 22.1269 105.516 25.0678 103.452 26.3282L69.5917 47.4748C68.6282 48.1751 67.2518 48.1751 66.2883 47.4748L32.4285 26.3282C30.5015 25.2079 30.5015 22.1269 32.5661 20.8665" fill="#AECFFA"/>
<path fill-rule="evenodd" clip-rule="evenodd" d="M12.5 78C19.4036 78 25 76.433 25 74.5C25 72.567 19.4036 71 12.5 71C5.59644 71 0 72.567 0 74.5C0 76.433 5.59644 78 12.5 78Z" fill="#AECFFA"/>
<path fill-rule="evenodd" clip-rule="evenodd" d="M13 76C17.4183 76 21 75.1046 21 74C21 72.8954 17.4183 72 13 72C8.58172 72 5 72.8954 5 74C5 75.1046 8.58172 76 13 76Z" fill="#7CA9E7"/>
<rect x="5" y="19" width="16" height="55" fill="url(#paint1_linear)"/>
<path fill-rule="evenodd" clip-rule="evenodd" d="M4.43078 19.7667L12.5291 15.1C12.8036 14.9667 13.0781 14.9667 13.3526 15.1L21.5882 19.7667C22.1373 20.0333 22.1373 20.7 21.5882 21.1L13.3526 25.9C13.0781 26.0333 12.8036 26.0333 12.5291 25.9L4.29352 21.1C3.88174 20.7 3.88174 20.0333 4.43078 19.7667" fill="#AECFFA"/>
<path fill-rule="evenodd" clip-rule="evenodd" d="M123.5 80C130.404 80 136 78.433 136 76.5C136 74.567 130.404 73 123.5 73C116.596 73 111 74.567 111 76.5C111 78.433 116.596 80 123.5 80Z" fill="#AECFFA"/>
<path fill-rule="evenodd" clip-rule="evenodd" d="M124 78C128.418 78 132 77.1046 132 76C132 74.8954 128.418 74 124 74C119.582 74 116 74.8954 116 76C116 77.1046 119.582 78 124 78Z" fill="#7CA9E7"/>
<rect x="116" y="35" width="16" height="41" fill="url(#paint2_linear)"/>
<path fill-rule="evenodd" clip-rule="evenodd" d="M114.431 4.76667L122.529 0.1C122.804 -0.0333333 123.078 -0.0333333 123.353 0.1L131.588 4.76667C132.137 5.03333 132.137 5.7 131.588 6.1L123.353 10.9C123.078 11.0333 122.804 11.0333 122.529 10.9L114.294 6.1C113.882 5.83333 113.882 5.16667 114.431 4.76667" fill="#AECFFA"/>
<rect x="115" y="33" width="16" height="2" fill="white"/>
<path fill-rule="evenodd" clip-rule="evenodd" d="M68.5 120C88.6584 120 105 110.822 105 99.5C105 88.1782 88.6584 79 68.5 79C48.3416 79 32 88.1782 32 99.5C32 110.822 48.3416 120 68.5 120Z" fill="#AECFFA"/>
<defs>
<linearGradient id="paint0_linear" x1="105" y1="105.006" x2="105" y2="23.9399" gradientUnits="userSpaceOnUse">
<stop stop-color="#A8CAF8" stop-opacity="0.5"/>
<stop offset="0.9932" stop-color="white" stop-opacity="0.5"/>
<stop offset="1" stop-color="#8DB6F2"/>
</linearGradient>
<linearGradient id="paint1_linear" x1="20.9505" y1="74.0232" x2="20.9505" y2="18.9612" gradientUnits="userSpaceOnUse">
<stop stop-color="#7CA9E7"/>
<stop offset="0.9932" stop-color="white" stop-opacity="0.5"/>
<stop offset="1" stop-color="#7CA9E7"/>
</linearGradient>
<linearGradient id="paint2_linear" x1="131.952" y1="75.9576" x2="131.952" y2="34.9737" gradientUnits="userSpaceOnUse">
<stop stop-color="#7CA9E7"/>
<stop offset="0.9932" stop-color="white" stop-opacity="0.5"/>
<stop offset="1" stop-color="#7CA9E7"/>
</linearGradient>
</defs>
</svg>
