<?xml version="1.0" encoding="utf-8"?>
<svg width="166px" height="171px" viewBox="0 0 166 171" version="1.1" xmlns:xlink="http://www.w3.org/1999/xlink" xmlns="http://www.w3.org/2000/svg">
  <desc>Created with Lunacy</desc>
  <defs>
    <linearGradient x1="0.5" y1="0" x2="0.5" y2="1" id="gradient_1">
      <stop offset="0" stop-color="#EDEEEE" />
      <stop offset="1" stop-color="#EFEFF0" />
    </linearGradient>
    <filter filterUnits="userSpaceOnUse" color-interpolation-filters="sRGB" id="filter_1">
      <feFlood flood-opacity="0" result="BackgroundImageFix" />
      <feColorMatrix in="SourceAlpha" type="matrix" values="0 0 0 0 0 0 0 0 0 0 0 0 0 0 0 0 0 0 127 0" />
      <feOffset dx="0" dy="2" />
      <feGaussianBlur stdDeviation="5" />
      <feColorMatrix type="matrix" values="0 0 0 0 0 0 0 0 0 0 0 0 0 0 0 0 0 0 0.03137255 0" />
      <feBlend mode="normal" in2="BackgroundImageFix" result="effect0_dropShadow" />
      <feBlend mode="normal" in="SourceGraphic" in2="effect0_dropShadow" result="shape" />
    </filter>
    <path d="M11.999 0L153.001 0Q153.296 0 153.59 0.0144533Q153.884 0.0289066 154.177 0.0577785Q154.47 0.0866503 154.762 0.129871Q155.053 0.173092 155.342 0.230557Q155.631 0.288023 155.917 0.359595Q156.202 0.431167 156.484 0.516673Q156.766 0.602179 157.043 0.701413Q157.321 0.800647 157.593 0.913369Q157.865 1.02609 158.131 1.15203Q158.397 1.27797 158.657 1.41683Q158.917 1.55568 159.17 1.70711Q159.422 1.85855 159.667 2.0222Q159.912 2.18584 160.149 2.36131Q160.385 2.53678 160.613 2.72365Q160.841 2.91051 161.059 3.10833Q161.277 3.30614 161.486 3.51443Q161.694 3.72271 161.892 3.94096Q162.089 4.15922 162.276 4.38692Q162.463 4.61461 162.639 4.8512Q162.814 5.0878 162.978 5.33271Q163.141 5.57763 163.293 5.83028Q163.444 6.08293 163.583 6.34271Q163.722 6.60249 163.848 6.86877Q163.974 7.13504 164.087 7.40718Q164.199 7.67932 164.299 7.95666Q164.398 8.234 164.483 8.51587Q164.569 8.79775 164.64 9.08348Q164.712 9.36921 164.769 9.65811Q164.827 9.94701 164.87 10.2384Q164.913 10.5298 164.942 10.8229Q164.971 11.116 164.986 11.4102Q165 11.7044 165 11.999L165 158.001Q165 158.296 164.986 158.59Q164.971 158.884 164.942 159.177Q164.913 159.47 164.87 159.762Q164.827 160.053 164.769 160.342Q164.712 160.631 164.64 160.917Q164.569 161.202 164.483 161.484Q164.398 161.766 164.299 162.043Q164.199 162.321 164.087 162.593Q163.974 162.865 163.848 163.131Q163.722 163.398 163.583 163.657Q163.444 163.917 163.293 164.17Q163.141 164.422 162.978 164.667Q162.814 164.912 162.639 165.149Q162.463 165.385 162.276 165.613Q162.089 165.841 161.892 166.059Q161.694 166.277 161.486 166.486Q161.277 166.694 161.059 166.892Q160.841 167.089 160.613 167.276Q160.385 167.463 160.149 167.639Q159.912 167.814 159.667 167.978Q159.422 168.141 159.17 168.293Q158.917 168.444 158.657 168.583Q158.397 168.722 158.131 168.848Q157.865 168.974 157.593 169.087Q157.321 169.199 157.043 169.299Q156.766 169.398 156.484 169.483Q156.202 169.569 155.917 169.64Q155.631 169.712 155.342 169.769Q155.053 169.827 154.762 169.87Q154.47 169.913 154.177 169.942Q153.884 169.971 153.59 169.986Q153.296 170 153.001 170L11.999 170Q11.7044 170 11.4102 169.986Q11.116 169.971 10.8229 169.942Q10.5298 169.913 10.2384 169.87Q9.94701 169.827 9.65811 169.769Q9.36921 169.712 9.08348 169.64Q8.79775 169.569 8.51587 169.483Q8.234 169.398 7.95666 169.299Q7.67932 169.199 7.40718 169.087Q7.13504 168.974 6.86877 168.848Q6.60249 168.722 6.34271 168.583Q6.08293 168.444 5.83028 168.293Q5.57763 168.141 5.33271 167.978Q5.0878 167.814 4.8512 167.639Q4.61461 167.463 4.38691 167.276Q4.15922 167.089 3.94096 166.892Q3.72271 166.694 3.51443 166.486Q3.30614 166.277 3.10833 166.059Q2.91051 165.841 2.72365 165.613Q2.53678 165.385 2.36131 165.149Q2.18584 164.912 2.0222 164.667Q1.85855 164.422 1.70711 164.17Q1.55568 163.917 1.41683 163.657Q1.27797 163.398 1.15203 163.131Q1.02609 162.865 0.913369 162.593Q0.800647 162.321 0.701413 162.043Q0.602179 161.766 0.516673 161.484Q0.431167 161.202 0.359595 160.917Q0.288023 160.631 0.230557 160.342Q0.173092 160.053 0.129871 159.762Q0.0866503 159.47 0.0577785 159.177Q0.0289066 158.884 0.0144533 158.59Q0 158.296 0 158.001L0 11.999Q0 11.7044 0.0144533 11.4102Q0.0289066 11.116 0.0577785 10.8229Q0.0866503 10.5298 0.129871 10.2384Q0.173092 9.94701 0.230557 9.65811Q0.288023 9.36921 0.359595 9.08348Q0.431167 8.79775 0.516673 8.51587Q0.602179 8.234 0.701413 7.95666Q0.800647 7.67932 0.913369 7.40718Q1.02609 7.13504 1.15203 6.86877Q1.27797 6.60249 1.41683 6.34271Q1.55568 6.08293 1.70711 5.83028Q1.85855 5.57763 2.0222 5.33271Q2.18584 5.0878 2.36131 4.8512Q2.53678 4.61461 2.72365 4.38692Q2.91051 4.15922 3.10833 3.94096Q3.30614 3.72271 3.51443 3.51443Q3.72271 3.30614 3.94096 3.10833Q4.15922 2.91051 4.38692 2.72365Q4.61461 2.53678 4.8512 2.36131Q5.0878 2.18584 5.33271 2.0222Q5.57763 1.85855 5.83028 1.70711Q6.08293 1.55568 6.34271 1.41683Q6.60249 1.27797 6.86877 1.15203Q7.13504 1.02609 7.40718 0.913369Q7.67932 0.800647 7.95666 0.701413Q8.234 0.602179 8.51587 0.516673Q8.79775 0.431167 9.08348 0.359595Q9.36921 0.288023 9.65811 0.230557Q9.94701 0.173092 10.2384 0.129871Q10.5298 0.0866503 10.8229 0.0577785Q11.116 0.0289066 11.4102 0.0144533Q11.7044 0 11.999 0Z" id="path_1" />
    <clipPath id="mask_1">
      <use xlink:href="#path_1" />
    </clipPath>
  </defs>
  <g id="1/1-Cell-(index-0)-Copy" transform="translate(0.5 0.5)">
    <g filter="url(#filter_1)">
      <g id="Data-Box">
        <use stroke="none" fill="#FFFFFF" xlink:href="#path_1" />
        <g clip-path="url(#mask_1)">
          <use xlink:href="#path_1" fill="none" stroke="#EEEEEF" stroke-width="2" />
        </g>
      </g>
    </g>
    <g clip-path="url(#mask_1)">
      <g id="Success" fill="#4BB543" transform="translate(30 10)">
        <path d="M0.708984 11.8613L0.708984 10.7012Q0.908203 10.877 1.18652 11.0176Q1.46484 11.1582 1.77246 11.2549Q2.08008 11.3516 2.39063 11.4043Q2.70117 11.457 2.96484 11.457Q3.87305 11.457 4.32129 11.1201Q4.76953 10.7832 4.76953 10.1504Q4.76953 9.81055 4.62012 9.55859Q4.4707 9.30664 4.20703 9.09863Q3.94336 8.89063 3.58301 8.7002Q3.22266 8.50977 2.80664 8.29883Q2.36719 8.07617 1.98633 7.84766Q1.60547 7.61914 1.32422 7.34375Q1.04297 7.06836 0.881836 6.71973Q0.720703 6.37109 0.720703 5.90234Q0.720703 5.32813 0.972656 4.90332Q1.22461 4.47852 1.63477 4.20313Q2.04492 3.92774 2.56934 3.79297Q3.09375 3.6582 3.63867 3.6582Q4.88086 3.6582 5.44922 3.95703L5.44922 5.06445Q4.70508 4.54883 3.53906 4.54883Q3.2168 4.54883 2.89453 4.61621Q2.57227 4.68359 2.32031 4.83594Q2.06836 4.98828 1.91016 5.22852Q1.75195 5.46875 1.75195 5.81445Q1.75195 6.13672 1.87207 6.37109Q1.99219 6.60547 2.22656 6.79883Q2.46094 6.99219 2.79785 7.17383Q3.13477 7.35547 3.57422 7.57227Q4.02539 7.79492 4.42969 8.04102Q4.83398 8.28711 5.13867 8.58594Q5.44336 8.88477 5.62207 9.24805Q5.80078 9.61133 5.80078 10.0801Q5.80078 10.7012 5.55762 11.1318Q5.31445 11.5625 4.90137 11.832Q4.48828 12.1016 3.94922 12.2217Q3.41016 12.3418 2.8125 12.3418Q2.61328 12.3418 2.32031 12.3096Q2.02734 12.2773 1.72266 12.2158Q1.41797 12.1543 1.14551 12.0635Q0.873047 11.9727 0.708984 11.8613ZM16.9255 12.3418Q17.8748 12.3418 18.5662 11.9258L18.5662 11.0117Q17.8748 11.5332 17.0896 11.5332Q16.158 11.5332 15.6042 10.9238Q15.0505 10.3145 15.0505 9.25977Q15.0505 8.1875 15.6394 7.52832Q16.2283 6.86914 17.1482 6.86914Q17.9099 6.86914 18.5779 7.33789L18.5779 6.35352Q17.9744 6.06055 17.1833 6.06055Q15.7654 6.06055 14.9158 6.95996Q14.0662 7.85938 14.0662 9.3418Q14.0662 10.6719 14.8542 11.5068Q15.6423 12.3418 16.9255 12.3418ZM24.278 11.9258Q23.5865 12.3418 22.6373 12.3418Q21.3541 12.3418 20.566 11.5068Q19.778 10.6719 19.778 9.3418Q19.778 7.85938 20.6276 6.95996Q21.4772 6.06055 22.8951 6.06055Q23.6862 6.06055 24.2897 6.35352L24.2897 7.33789Q23.6217 6.86914 22.86 6.86914Q21.9401 6.86914 21.3512 7.52832Q20.7623 8.1875 20.7623 9.25977Q20.7623 10.3145 21.316 10.9238Q21.8698 11.5332 22.8014 11.5332Q23.5865 11.5332 24.278 11.0117L24.278 11.9258ZM26.4858 9.44141L30.7222 9.44141L30.7222 8.9375Q30.7222 7.58398 30.0776 6.82227Q29.4331 6.06055 28.2554 6.06055Q27.0776 6.06055 26.2837 6.94238Q25.4897 7.82422 25.4897 9.22461Q25.4897 10.707 26.2163 11.5244Q26.9429 12.3418 28.2144 12.3418Q29.5151 12.3418 30.3062 11.7676L30.3062 10.8652Q29.4565 11.5332 28.4429 11.5332Q27.5405 11.5332 27.0249 10.9883Q26.5093 10.4434 26.4858 9.44141ZM31.9808 11.9844L31.9808 10.9531Q32.766 11.5332 33.7094 11.5332Q34.975 11.5332 34.975 10.6895Q34.975 10.4492 34.8666 10.2822Q34.7582 10.1152 34.5736 9.98633Q34.389 9.85742 34.14 9.75488Q33.891 9.65234 33.6039 9.54102Q33.2054 9.38281 32.9037 9.22168Q32.6019 9.06055 32.3998 8.8584Q32.1976 8.65625 32.0951 8.39844Q31.9926 8.14063 31.9926 7.79492Q31.9926 7.37305 32.1859 7.04785Q32.3793 6.72266 32.7015 6.50293Q33.0238 6.2832 33.4369 6.17188Q33.85 6.06055 34.2894 6.06055Q35.0687 6.06055 35.684 6.33008L35.684 7.30273Q35.0219 6.86914 34.1605 6.86914Q33.891 6.86914 33.6742 6.93066Q33.4574 6.99219 33.3021 7.10352Q33.1469 7.21484 33.0619 7.37012Q32.9769 7.52539 32.9769 7.71289Q32.9769 7.94727 33.0619 8.10547Q33.1469 8.26367 33.3109 8.38672Q33.475 8.50977 33.7094 8.60938Q33.9437 8.70898 34.2426 8.82617Q34.641 8.97852 34.9574 9.13965Q35.2738 9.30078 35.4965 9.50293Q35.7191 9.70508 35.8392 9.96875Q35.9594 10.2324 35.9594 10.5957Q35.9594 11.041 35.7631 11.3691Q35.5668 11.6973 35.2386 11.9141Q34.9105 12.1309 34.4828 12.2363Q34.0551 12.3418 33.5863 12.3418Q32.6605 12.3418 31.9808 11.9844ZM37.2415 10.9531L37.2415 11.9844Q37.9211 12.3418 38.8469 12.3418Q39.3157 12.3418 39.7434 12.2363Q40.1711 12.1309 40.4993 11.9141Q40.8274 11.6973 41.0237 11.3691Q41.22 11.041 41.22 10.5957Q41.22 10.2324 41.0999 9.96875Q40.9797 9.70508 40.7571 9.50293Q40.5344 9.30078 40.218 9.13965Q39.9016 8.97852 39.5032 8.82617Q39.2043 8.70898 38.97 8.60938Q38.7356 8.50977 38.5715 8.38672Q38.4075 8.26367 38.3225 8.10547Q38.2376 7.94727 38.2376 7.71289Q38.2376 7.52539 38.3225 7.37012Q38.4075 7.21484 38.5627 7.10352Q38.718 6.99219 38.9348 6.93066Q39.1516 6.86914 39.4211 6.86914Q40.2825 6.86914 40.9446 7.30273L40.9446 6.33008Q40.3293 6.06055 39.5501 6.06055Q39.1106 6.06055 38.6975 6.17188Q38.2844 6.2832 37.9622 6.50293Q37.6399 6.72266 37.4465 7.04785Q37.2532 7.37305 37.2532 7.79492Q37.2532 8.14063 37.3557 8.39844Q37.4583 8.65625 37.6604 8.8584Q37.8626 9.06055 38.1643 9.22168Q38.4661 9.38281 38.8645 9.54102Q39.1516 9.65234 39.4006 9.75488Q39.6497 9.85742 39.8342 9.98633Q40.0188 10.1152 40.1272 10.2822Q40.2356 10.4492 40.2356 10.6895Q40.2356 11.5332 38.97 11.5332Q38.0266 11.5332 37.2415 10.9531ZM12.368 12.2012L11.4071 12.2012L11.4071 11.252L11.3837 11.252Q10.786 12.3418 9.5321 12.3418Q7.38757 12.3418 7.38757 9.78711L7.38757 6.20117L8.34265 6.20117L8.34265 9.63477Q8.34265 11.5332 9.79578 11.5332Q10.4989 11.5332 10.953 11.0146Q11.4071 10.4961 11.4071 9.6582L11.4071 6.20117L12.368 6.20117L12.368 12.2012ZM29.3364 7.33203Q29.7319 7.79492 29.7378 8.62695L26.4976 8.62695Q26.6089 7.8418 27.0835 7.35547Q27.5581 6.86914 28.2378 6.86914Q28.9409 6.86914 29.3364 7.33203Z" />
      </g>
      <path d="M2.5 5C3.88071 5 5 3.88071 5 2.5C5 1.11929 3.88071 0 2.5 0C1.11929 0 0 1.11929 0 2.5C0 3.88071 1.11929 5 2.5 5Z" transform="translate(20 15)" id="Oval" fill="#4BB543" stroke="none" />
      <g id="BEG-System" transform="translate(20 52)">
        <path d="M28.1975 19.3745Q30.6467 19.3745 32.6506 18.2427L32.6506 12.2124L28.1789 12.2124L28.1789 13.6226L31.092 13.6226L31.092 17.3521Q29.9509 17.9736 28.3923 17.9736Q26.1194 17.9736 24.7927 16.531Q23.466 15.0884 23.466 12.5649Q23.466 10.1157 24.8948 8.57568Q26.3235 7.03564 28.5593 7.03564Q30.7673 7.03565 32.3816 8.05615L32.3816 6.33057Q30.9065 5.62549 28.7356 5.62549Q25.739 5.62549 23.7861 7.6062Q21.8332 9.58691 21.8332 12.6763Q21.8332 15.7007 23.5913 17.5376Q25.3493 19.3745 28.1975 19.3745ZM40.5521 18.6138L40.5521 16.7769Q40.8675 17.0552 41.3082 17.2778Q41.7489 17.5005 42.2359 17.6536Q42.723 17.8066 43.2147 17.8901Q43.7064 17.9736 44.1239 17.9736Q45.5619 17.9736 46.2716 17.4402Q46.9813 16.9067 46.9813 15.9048Q46.9813 15.3667 46.7447 14.9678Q46.5082 14.5688 46.0907 14.2395Q45.6732 13.9102 45.1026 13.6086Q44.5321 13.3071 43.8734 12.9731Q43.1776 12.6206 42.5746 12.2588Q41.9715 11.897 41.5262 11.4609Q41.0809 11.0249 40.8258 10.4729Q40.5707 9.9209 40.5707 9.17871Q40.5707 8.26953 40.9696 7.59692Q41.3685 6.92432 42.0179 6.48828Q42.6673 6.05225 43.4977 5.83887Q44.328 5.62549 45.1908 5.62549Q47.1576 5.62549 48.0575 6.09863L48.0575 7.85205Q46.8792 7.03564 45.0331 7.03564Q44.5228 7.03564 44.0125 7.14233Q43.5023 7.24902 43.1034 7.49023Q42.7044 7.73145 42.454 8.11182Q42.2035 8.49219 42.2035 9.03955Q42.2035 9.54981 42.3937 9.9209Q42.5838 10.292 42.9549 10.5981Q43.326 10.9043 43.8595 11.1919Q44.3929 11.4795 45.0887 11.8228Q45.8031 12.1753 46.4432 12.5649Q47.0833 12.9546 47.5658 13.4277Q48.0482 13.9009 48.3312 14.4761Q48.6141 15.0513 48.6141 15.7935Q48.6141 16.7769 48.2291 17.4587Q47.8441 18.1406 47.19 18.5674Q46.536 18.9941 45.6825 19.1843Q44.829 19.3745 43.8827 19.3745Q43.5672 19.3745 43.1034 19.3235Q42.6395 19.2725 42.1571 19.175Q41.6747 19.0776 41.2433 18.9338Q40.8119 18.79 40.5521 18.6138ZM1.74414 19.1519L1.74414 5.84814L5.5293 5.84814Q7.25488 5.84814 8.26611 6.69238Q9.27734 7.53662 9.27734 8.89111Q9.27734 10.023 8.66504 10.8579Q8.05273 11.6929 6.97656 12.0454L6.97656 12.0825Q8.32178 12.2402 9.12891 13.0984Q9.93604 13.9565 9.93604 15.3296Q9.93604 17.0366 8.71143 18.0942Q7.48682 19.1519 5.62207 19.1519L1.74414 19.1519ZM19.9156 19.1519L12.8649 19.1519L12.8649 5.84814L19.6188 5.84814L19.6188 7.2583L14.4235 7.2583L14.4235 11.6836L19.2291 11.6836L19.2291 13.0845L14.4235 13.0845L14.4235 17.7417L19.9156 17.7417L19.9156 19.1519ZM71.9938 19.356Q72.8752 19.356 73.4133 19.0591L73.4133 17.7603Q72.9958 18.0757 72.4206 18.0757Q71.6691 18.0757 71.3444 17.6675Q71.0197 17.2593 71.0197 16.3037L71.0197 10.9507L73.4133 10.9507L73.4133 9.65186L71.0197 9.65186L71.0197 6.84082L69.4982 7.33252L69.4982 9.65186L67.8654 9.65186L67.8654 10.9507L69.4982 10.9507L69.4982 16.5728Q69.4982 19.356 71.9938 19.356ZM3.30273 7.2583L3.30273 11.5537L4.89844 11.5537Q6.17871 11.5537 6.91162 10.9368Q7.64453 10.3198 7.64453 9.19727Q7.64453 7.2583 5.09326 7.2583L3.30273 7.2583ZM60.1402 18.8086L60.1402 17.1758Q61.3834 18.0942 62.877 18.0942Q64.8809 18.0942 64.8809 16.7583Q64.8809 16.3779 64.7093 16.1135Q64.5377 15.8491 64.2454 15.645Q63.9532 15.4409 63.5589 15.2786Q63.1646 15.1162 62.71 14.9399Q62.0792 14.6895 61.6014 14.4343Q61.1236 14.1792 60.8035 13.8591Q60.4835 13.5391 60.3211 13.1309Q60.1588 12.7227 60.1588 12.1753Q60.1588 11.5073 60.4649 10.9924Q60.7711 10.4775 61.2813 10.1296Q61.7916 9.78174 62.4456 9.60547Q63.0997 9.4292 63.7955 9.4292Q65.0294 9.4292 66.0035 9.85596L66.0035 11.396Q64.9552 10.7095 63.5914 10.7095Q63.1646 10.7095 62.8214 10.8069Q62.4781 10.9043 62.2323 11.0806Q61.9864 11.2568 61.8519 11.5027Q61.7174 11.7485 61.7174 12.0454Q61.7174 12.4165 61.8519 12.667Q61.9864 12.9175 62.2462 13.1123Q62.5059 13.3071 62.877 13.4648Q63.2481 13.6226 63.7213 13.8081Q64.3521 14.0493 64.8531 14.3044Q65.3541 14.5596 65.7066 14.8796Q66.0592 15.1997 66.2493 15.6172Q66.4395 16.0347 66.4395 16.6099Q66.4395 17.3149 66.1287 17.8345Q65.8179 18.354 65.2984 18.6973Q64.7789 19.0405 64.1016 19.2075Q63.4244 19.3745 62.6822 19.3745Q61.2164 19.3745 60.1402 18.8086ZM83.3094 14.7822L76.6019 14.7822Q76.639 16.3687 77.4554 17.2314Q78.2718 18.0942 79.7005 18.0942Q81.3055 18.0942 82.6507 17.0366L82.6507 18.4653Q81.3983 19.3745 79.3387 19.3745Q77.3255 19.3745 76.1751 18.0803Q75.0247 16.7861 75.0247 14.439Q75.0247 12.2217 76.2818 10.8254Q77.5389 9.4292 79.4036 9.4292Q81.2684 9.4292 82.2889 10.6353Q83.3094 11.8413 83.3094 13.9844L83.3094 14.7822ZM97.8071 19.1519L99.3285 19.1519L99.3285 13.2979Q99.3285 9.4292 96.1928 9.4292Q94.0961 9.4292 93.0385 11.396Q92.7695 10.5146 92.0458 9.97192Q91.3222 9.4292 90.3481 9.4292Q88.4091 9.4292 87.3979 11.1548L87.3608 11.1548L87.3608 9.65186L85.8393 9.65186L85.8393 19.1519L87.3608 19.1519L87.3608 13.7339Q87.3608 12.3887 88.0102 11.5491Q88.6596 10.7095 89.6616 10.7095Q91.8232 10.7095 91.8232 13.5112L91.8232 19.1519L93.3447 19.1519L93.3447 13.7339Q93.3447 12.4907 94.0265 11.6001Q94.7084 10.7095 95.6825 10.7095Q96.8329 10.7095 97.32 11.4146Q97.8071 12.1196 97.8071 13.6968L97.8071 19.1519ZM54.4839 20.6733L58.8535 9.65186L57.2763 9.65186L54.5766 16.981Q54.4375 17.4634 54.3911 17.686L54.3354 17.686Q54.187 17.1016 54.1406 16.9624L51.5708 9.65186L49.8823 9.65186L53.5932 19.1333L52.8325 20.9331Q52.2573 22.3062 51.1069 22.3062Q50.6987 22.3062 50.207 22.1392L50.207 23.5029Q50.6059 23.6235 51.1997 23.6235Q53.3149 23.6235 54.4839 20.6733ZM81.7508 13.4927Q81.7415 12.1753 81.1153 11.4424Q80.4891 10.7095 79.3758 10.7095Q78.2996 10.7095 77.5482 11.4795Q76.7967 12.2495 76.6204 13.4927L81.7508 13.4927ZM3.30273 12.9546L3.30273 17.7417L5.41797 17.7417Q6.79102 17.7417 7.54712 17.0923Q8.30322 16.4429 8.30322 15.311Q8.30322 12.9546 5.09326 12.9546L3.30273 12.9546Z" />
      </g>
      <path d="M0 0.5L165 0.5" transform="translate(0 31.0332)" id="Path-2" fill="none" stroke="#E9E9E9" stroke-width="0.5" />
      <path d="M0 0L165 0L165 32L0 32L0 0Z" id="Rectangle" fill="url(#gradient_1)" stroke="none" />
      <path d="M0 3.83996C0 1.71934 1.71934 0 3.83996 0C5.0297 0 6.09249 0.541019 6.7968 1.39061L3.34059 4.84682L2.14185 3.64808C2.01673 3.52297 1.81447 3.52297 1.68936 3.64808C1.56424 3.7732 1.56424 3.97546 1.68936 4.10058L3.11434 5.52556C3.17418 5.58572 3.25579 5.61931 3.34059 5.61931C3.42571 5.61931 3.507 5.5854 3.56683 5.52556L7.16617 1.92685C7.49111 2.49058 7.67991 3.14256 7.67991 3.83996C7.67991 5.96057 5.96057 7.67991 3.83996 7.67991C1.71934 7.67991 0 5.96057 0 3.83996ZM6.7968 1.39061L7.45367 0.733742C7.57878 0.608623 7.78104 0.608623 7.90616 0.733742C8.03128 0.85886 8.03128 1.0608 7.90616 1.18624L7.16617 1.92623C7.05712 1.7376 6.93493 1.55719 6.7968 1.39061Z" transform="translate(20 13)" id="success_icon" fill="#26CF19" fill-rule="evenodd" stroke="none" />
      <path d="M20 10C20 15.5228 15.5228 20 10 20C4.47715 20 0 15.5228 0 10C0 4.47715 4.47715 0 10 0C15.5228 0 20 4.47715 20 10ZM11.2862 4L4 11.3438L7.72932 11.3438L7.72932 15L15 7.67189L11.2862 7.67189L11.2862 4Z" transform="translate(20 130)" id="logo" fill="#007AFF" fill-rule="evenodd" stroke="#2463E1" stroke-width="1" />
      <g id="Success" fill="#3C3C3C" transform="translate(32 10)">
        <path d="M0.59082 9.71777L0.59082 8.75098Q0.756836 8.89746 0.98877 9.01465Q1.2207 9.13184 1.47705 9.2124Q1.7334 9.29297 1.99219 9.33691Q2.25098 9.38086 2.4707 9.38086Q3.22754 9.38086 3.60107 9.1001Q3.97461 8.81934 3.97461 8.29199Q3.97461 8.00879 3.8501 7.79883Q3.72559 7.58887 3.50586 7.41553Q3.28613 7.24219 2.98584 7.0835Q2.68555 6.9248 2.33887 6.74902Q1.97266 6.56348 1.65527 6.37305Q1.33789 6.18262 1.10352 5.95313Q0.869141 5.72363 0.734863 5.43311Q0.600586 5.14258 0.600586 4.75195Q0.600586 4.27344 0.810547 3.91943Q1.02051 3.56543 1.3623 3.33594Q1.7041 3.10645 2.14111 2.99414Q2.57812 2.88184 3.03223 2.88184Q4.06738 2.88184 4.54102 3.13086L4.54102 4.05371Q3.9209 3.62402 2.94922 3.62402Q2.68066 3.62402 2.41211 3.68018Q2.14355 3.73633 1.93359 3.86328Q1.72363 3.99023 1.5918 4.19043Q1.45996 4.39063 1.45996 4.67871Q1.45996 4.94727 1.56006 5.14258Q1.66016 5.33789 1.85547 5.49902Q2.05078 5.66016 2.33154 5.81152Q2.6123 5.96289 2.97852 6.14355Q3.35449 6.3291 3.69141 6.53418Q4.02832 6.73926 4.28223 6.98828Q4.53613 7.2373 4.68506 7.54004Q4.83398 7.84277 4.83398 8.2334Q4.83398 8.75098 4.63135 9.10986Q4.42871 9.46875 4.08447 9.69336Q3.74023 9.91797 3.29102 10.0181Q2.8418 10.1182 2.34375 10.1182Q2.17773 10.1182 1.93359 10.0913Q1.68945 10.0645 1.43555 10.0132Q1.18164 9.96191 0.95459 9.88623Q0.727539 9.81055 0.59082 9.71777ZM14.0632 10.1182Q14.8543 10.1182 15.4304 9.77148L15.4304 9.00977Q14.8543 9.44434 14.2 9.44434Q13.4236 9.44434 12.9622 8.93652Q12.5007 8.42871 12.5007 7.5498Q12.5007 6.65625 12.9915 6.10693Q13.4822 5.55762 14.2488 5.55762Q14.8836 5.55762 15.4402 5.94824L15.4402 5.12793Q14.9373 4.88379 14.2781 4.88379Q13.0964 4.88379 12.3884 5.6333Q11.6804 6.38281 11.6804 7.61816Q11.6804 8.72656 12.3372 9.42236Q12.9939 10.1182 14.0632 10.1182ZM20.1696 9.77148Q19.5934 10.1182 18.8024 10.1182Q17.733 10.1182 17.0763 9.42236Q16.4196 8.72656 16.4196 7.61816Q16.4196 6.38281 17.1276 5.6333Q17.8356 4.88379 19.0172 4.88379Q19.6764 4.88379 20.1793 5.12793L20.1793 5.94824Q19.6227 5.55762 18.9879 5.55762Q18.2213 5.55762 17.7306 6.10693Q17.2399 6.65625 17.2399 7.5498Q17.2399 8.42871 17.7013 8.93652Q18.1627 9.44434 18.9391 9.44434Q19.5934 9.44434 20.1696 9.00977L20.1696 9.77148ZM21.9888 7.70117L25.5191 7.70117L25.5191 7.28125Q25.5191 6.15332 24.982 5.51855Q24.4448 4.88379 23.4634 4.88379Q22.482 4.88379 21.8203 5.61865Q21.1587 6.35352 21.1587 7.52051Q21.1587 8.75586 21.7642 9.43701Q22.3696 10.1182 23.4292 10.1182Q24.5132 10.1182 25.1724 9.63965L25.1724 8.8877Q24.4644 9.44434 23.6196 9.44434Q22.8677 9.44434 22.438 8.99023Q22.0083 8.53613 21.9888 7.70117ZM26.5473 9.82031L26.5473 8.96094Q27.2016 9.44434 27.9877 9.44434Q29.0424 9.44434 29.0424 8.74121Q29.0424 8.54102 28.952 8.40186Q28.8617 8.2627 28.7079 8.15527Q28.5541 8.04785 28.3466 7.9624Q28.1391 7.87695 27.8998 7.78418Q27.5678 7.65234 27.3163 7.51807Q27.0648 7.38379 26.8964 7.21533Q26.7279 7.04688 26.6425 6.83203Q26.557 6.61719 26.557 6.3291Q26.557 5.97754 26.7182 5.70654Q26.8793 5.43555 27.1479 5.25244Q27.4164 5.06934 27.7606 4.97656Q28.1049 4.88379 28.4711 4.88379Q29.1205 4.88379 29.6332 5.1084L29.6332 5.91895Q29.0814 5.55762 28.3637 5.55762Q28.1391 5.55762 27.9584 5.60889Q27.7777 5.66016 27.6483 5.75293Q27.5189 5.8457 27.4481 5.9751Q27.3773 6.10449 27.3773 6.26074Q27.3773 6.45605 27.4481 6.58789Q27.5189 6.71973 27.6557 6.82227Q27.7924 6.9248 27.9877 7.00781Q28.183 7.09082 28.432 7.18848Q28.7641 7.31543 29.0277 7.44971Q29.2914 7.58398 29.477 7.75244Q29.6625 7.9209 29.7626 8.14063Q29.8627 8.36035 29.8627 8.66309Q29.8627 9.03418 29.6991 9.30762Q29.5355 9.58105 29.2621 9.76172Q28.9887 9.94238 28.6322 10.0303Q28.2758 10.1182 27.8852 10.1182Q27.1137 10.1182 26.5473 9.82031ZM30.9104 8.96094L30.9104 9.82031Q31.4768 10.1182 32.2483 10.1182Q32.6389 10.1182 32.9954 10.0303Q33.3518 9.94238 33.6253 9.76172Q33.8987 9.58105 34.0623 9.30762Q34.2259 9.03418 34.2259 8.66309Q34.2259 8.36035 34.1258 8.14063Q34.0257 7.9209 33.8401 7.75244Q33.6546 7.58398 33.3909 7.44971Q33.1272 7.31543 32.7952 7.18848Q32.5462 7.09082 32.3509 7.00781Q32.1555 6.9248 32.0188 6.82227Q31.8821 6.71973 31.8113 6.58789Q31.7405 6.45605 31.7405 6.26074Q31.7405 6.10449 31.8113 5.9751Q31.8821 5.8457 32.0115 5.75293Q32.1409 5.66016 32.3216 5.60889Q32.5022 5.55762 32.7268 5.55762Q33.4446 5.55762 33.9964 5.91895L33.9964 5.1084Q33.4837 4.88379 32.8343 4.88379Q32.468 4.88379 32.1238 4.97656Q31.7796 5.06934 31.511 5.25244Q31.2425 5.43555 31.0813 5.70654Q30.9202 5.97754 30.9202 6.3291Q30.9202 6.61719 31.0056 6.83203Q31.0911 7.04688 31.2595 7.21533Q31.428 7.38379 31.6795 7.51807Q31.9309 7.65234 32.263 7.78418Q32.5022 7.87695 32.7097 7.9624Q32.9173 8.04785 33.0711 8.15527Q33.2249 8.2627 33.3152 8.40186Q33.4055 8.54102 33.4055 8.74121Q33.4055 9.44434 32.3509 9.44434Q31.5647 9.44434 30.9104 8.96094ZM10.286 10.001L9.48523 10.001L9.48523 9.20996L9.4657 9.20996Q8.96766 10.1182 7.92273 10.1182Q6.13562 10.1182 6.13562 7.98926L6.13562 5.00098L6.93152 5.00098L6.93152 7.8623Q6.93152 9.44434 8.14246 9.44434Q8.7284 9.44434 9.10682 9.01221Q9.48523 8.58008 9.48523 7.88184L9.48523 5.00098L10.286 5.00098L10.286 10.001ZM24.3643 5.94336Q24.6939 6.3291 24.6987 7.02246L21.9986 7.02246Q22.0913 6.36816 22.4868 5.96289Q22.8823 5.55762 23.4487 5.55762Q24.0347 5.55762 24.3643 5.94336Z" />
      </g>
    </g>
  </g>
</svg>