<?xml version="1.0" encoding="utf-8"?>
<svg width="166px" height="171px" viewBox="0 0 166 171" version="1.1" xmlns:xlink="http://www.w3.org/1999/xlink" xmlns="http://www.w3.org/2000/svg">
  <desc>Created with Lunacy</desc>
  <defs>
    <linearGradient x1="0.5" y1="0" x2="0.5" y2="1" id="gradient_1">
      <stop offset="0" stop-color="#EDEEEE" />
      <stop offset="1" stop-color="#EFEFF0" />
    </linearGradient>
    <filter filterUnits="userSpaceOnUse" color-interpolation-filters="sRGB" id="filter_1">
      <feFlood flood-opacity="0" result="BackgroundImageFix" />
      <feColorMatrix in="SourceAlpha" type="matrix" values="0 0 0 0 0 0 0 0 0 0 0 0 0 0 0 0 0 0 127 0" />
      <feOffset dx="0" dy="2" />
      <feGaussianBlur stdDeviation="5" />
      <feColorMatrix type="matrix" values="0 0 0 0 0 0 0 0 0 0 0 0 0 0 0 0 0 0 0.03137255 0" />
      <feBlend mode="normal" in2="BackgroundImageFix" result="effect0_dropShadow" />
      <feBlend mode="normal" in="SourceGraphic" in2="effect0_dropShadow" result="shape" />
    </filter>
    <path d="M11.999 0L153.001 0Q153.296 0 153.59 0.0144533Q153.884 0.0289066 154.177 0.0577785Q154.47 0.0866503 154.762 0.129871Q155.053 0.173092 155.342 0.230557Q155.631 0.288023 155.917 0.359595Q156.202 0.431167 156.484 0.516673Q156.766 0.602179 157.043 0.701413Q157.321 0.800647 157.593 0.913369Q157.865 1.02609 158.131 1.15203Q158.397 1.27797 158.657 1.41683Q158.917 1.55568 159.17 1.70711Q159.422 1.85855 159.667 2.0222Q159.912 2.18584 160.149 2.36131Q160.385 2.53678 160.613 2.72365Q160.841 2.91051 161.059 3.10833Q161.277 3.30614 161.486 3.51443Q161.694 3.72271 161.892 3.94096Q162.089 4.15922 162.276 4.38692Q162.463 4.61461 162.639 4.8512Q162.814 5.0878 162.978 5.33271Q163.141 5.57763 163.293 5.83028Q163.444 6.08293 163.583 6.34271Q163.722 6.60249 163.848 6.86877Q163.974 7.13504 164.087 7.40718Q164.199 7.67932 164.299 7.95666Q164.398 8.234 164.483 8.51587Q164.569 8.79775 164.64 9.08348Q164.712 9.36921 164.769 9.65811Q164.827 9.94701 164.87 10.2384Q164.913 10.5298 164.942 10.8229Q164.971 11.116 164.986 11.4102Q165 11.7044 165 11.999L165 158.001Q165 158.296 164.986 158.59Q164.971 158.884 164.942 159.177Q164.913 159.47 164.87 159.762Q164.827 160.053 164.769 160.342Q164.712 160.631 164.64 160.917Q164.569 161.202 164.483 161.484Q164.398 161.766 164.299 162.043Q164.199 162.321 164.087 162.593Q163.974 162.865 163.848 163.131Q163.722 163.398 163.583 163.657Q163.444 163.917 163.293 164.17Q163.141 164.422 162.978 164.667Q162.814 164.912 162.639 165.149Q162.463 165.385 162.276 165.613Q162.089 165.841 161.892 166.059Q161.694 166.277 161.486 166.486Q161.277 166.694 161.059 166.892Q160.841 167.089 160.613 167.276Q160.385 167.463 160.149 167.639Q159.912 167.814 159.667 167.978Q159.422 168.141 159.17 168.293Q158.917 168.444 158.657 168.583Q158.397 168.722 158.131 168.848Q157.865 168.974 157.593 169.087Q157.321 169.199 157.043 169.299Q156.766 169.398 156.484 169.483Q156.202 169.569 155.917 169.64Q155.631 169.712 155.342 169.769Q155.053 169.827 154.762 169.87Q154.47 169.913 154.177 169.942Q153.884 169.971 153.59 169.986Q153.296 170 153.001 170L11.999 170Q11.7044 170 11.4102 169.986Q11.116 169.971 10.8229 169.942Q10.5298 169.913 10.2384 169.87Q9.94701 169.827 9.65811 169.769Q9.36921 169.712 9.08348 169.64Q8.79775 169.569 8.51587 169.483Q8.234 169.398 7.95666 169.299Q7.67932 169.199 7.40718 169.087Q7.13504 168.974 6.86877 168.848Q6.60249 168.722 6.34271 168.583Q6.08293 168.444 5.83028 168.293Q5.57763 168.141 5.33271 167.978Q5.0878 167.814 4.8512 167.639Q4.61461 167.463 4.38691 167.276Q4.15922 167.089 3.94096 166.892Q3.72271 166.694 3.51443 166.486Q3.30614 166.277 3.10833 166.059Q2.91051 165.841 2.72365 165.613Q2.53678 165.385 2.36131 165.149Q2.18584 164.912 2.0222 164.667Q1.85855 164.422 1.70711 164.17Q1.55568 163.917 1.41683 163.657Q1.27797 163.398 1.15203 163.131Q1.02609 162.865 0.913369 162.593Q0.800647 162.321 0.701413 162.043Q0.602179 161.766 0.516673 161.484Q0.431167 161.202 0.359595 160.917Q0.288023 160.631 0.230557 160.342Q0.173092 160.053 0.129871 159.762Q0.0866503 159.47 0.0577785 159.177Q0.0289066 158.884 0.0144533 158.59Q0 158.296 0 158.001L0 11.999Q0 11.7044 0.0144533 11.4102Q0.0289066 11.116 0.0577785 10.8229Q0.0866503 10.5298 0.129871 10.2384Q0.173092 9.94701 0.230557 9.65811Q0.288023 9.36921 0.359595 9.08348Q0.431167 8.79775 0.516673 8.51587Q0.602179 8.234 0.701413 7.95666Q0.800647 7.67932 0.913369 7.40718Q1.02609 7.13504 1.15203 6.86877Q1.27797 6.60249 1.41683 6.34271Q1.55568 6.08293 1.70711 5.83028Q1.85855 5.57763 2.0222 5.33271Q2.18584 5.0878 2.36131 4.8512Q2.53678 4.61461 2.72365 4.38692Q2.91051 4.15922 3.10833 3.94096Q3.30614 3.72271 3.51443 3.51443Q3.72271 3.30614 3.94096 3.10833Q4.15922 2.91051 4.38692 2.72365Q4.61461 2.53678 4.8512 2.36131Q5.0878 2.18584 5.33271 2.0222Q5.57763 1.85855 5.83028 1.70711Q6.08293 1.55568 6.34271 1.41683Q6.60249 1.27797 6.86877 1.15203Q7.13504 1.02609 7.40718 0.913369Q7.67932 0.800647 7.95666 0.701413Q8.234 0.602179 8.51587 0.516673Q8.79775 0.431167 9.08348 0.359595Q9.36921 0.288023 9.65811 0.230557Q9.94701 0.173092 10.2384 0.129871Q10.5298 0.0866503 10.8229 0.0577785Q11.116 0.0289066 11.4102 0.0144533Q11.7044 0 11.999 0Z" id="path_1" />
    <clipPath id="mask_1">
      <use xlink:href="#path_1" />
    </clipPath>
  </defs>
  <g id="Group-3" transform="translate(0.5 0.5)">
    <g id="Group">
      <g id="1/1-Cell-(index-0)-Copy-2">
        <g filter="url(#filter_1)">
          <g id="Data-Box">
            <use stroke="none" fill="#FFFFFF" xlink:href="#path_1" />
            <g clip-path="url(#mask_1)">
              <use xlink:href="#path_1" fill="none" stroke="#EEEEEF" stroke-width="2" />
            </g>
          </g>
        </g>
        <g clip-path="url(#mask_1)">
          <g id="Success" fill="#4BB543" transform="translate(30 10)">
            <path d="M0.708984 11.8613L0.708984 10.7012Q0.908203 10.877 1.18652 11.0176Q1.46484 11.1582 1.77246 11.2549Q2.08008 11.3516 2.39063 11.4043Q2.70117 11.457 2.96484 11.457Q3.87305 11.457 4.32129 11.1201Q4.76953 10.7832 4.76953 10.1504Q4.76953 9.81055 4.62012 9.55859Q4.4707 9.30664 4.20703 9.09863Q3.94336 8.89063 3.58301 8.7002Q3.22266 8.50977 2.80664 8.29883Q2.36719 8.07617 1.98633 7.84766Q1.60547 7.61914 1.32422 7.34375Q1.04297 7.06836 0.881836 6.71973Q0.720703 6.37109 0.720703 5.90234Q0.720703 5.32813 0.972656 4.90332Q1.22461 4.47852 1.63477 4.20313Q2.04492 3.92774 2.56934 3.79297Q3.09375 3.6582 3.63867 3.6582Q4.88086 3.6582 5.44922 3.95703L5.44922 5.06445Q4.70508 4.54883 3.53906 4.54883Q3.2168 4.54883 2.89453 4.61621Q2.57227 4.68359 2.32031 4.83594Q2.06836 4.98828 1.91016 5.22852Q1.75195 5.46875 1.75195 5.81445Q1.75195 6.13672 1.87207 6.37109Q1.99219 6.60547 2.22656 6.79883Q2.46094 6.99219 2.79785 7.17383Q3.13477 7.35547 3.57422 7.57227Q4.02539 7.79492 4.42969 8.04102Q4.83398 8.28711 5.13867 8.58594Q5.44336 8.88477 5.62207 9.24805Q5.80078 9.61133 5.80078 10.0801Q5.80078 10.7012 5.55762 11.1318Q5.31445 11.5625 4.90137 11.832Q4.48828 12.1016 3.94922 12.2217Q3.41016 12.3418 2.8125 12.3418Q2.61328 12.3418 2.32031 12.3096Q2.02734 12.2773 1.72266 12.2158Q1.41797 12.1543 1.14551 12.0635Q0.873047 11.9727 0.708984 11.8613ZM16.9255 12.3418Q17.8748 12.3418 18.5662 11.9258L18.5662 11.0117Q17.8748 11.5332 17.0896 11.5332Q16.158 11.5332 15.6042 10.9238Q15.0505 10.3145 15.0505 9.25977Q15.0505 8.1875 15.6394 7.52832Q16.2283 6.86914 17.1482 6.86914Q17.9099 6.86914 18.5779 7.33789L18.5779 6.35352Q17.9744 6.06055 17.1833 6.06055Q15.7654 6.06055 14.9158 6.95996Q14.0662 7.85938 14.0662 9.3418Q14.0662 10.6719 14.8542 11.5068Q15.6423 12.3418 16.9255 12.3418ZM24.278 11.9258Q23.5865 12.3418 22.6373 12.3418Q21.3541 12.3418 20.566 11.5068Q19.778 10.6719 19.778 9.3418Q19.778 7.85938 20.6276 6.95996Q21.4772 6.06055 22.8951 6.06055Q23.6862 6.06055 24.2897 6.35352L24.2897 7.33789Q23.6217 6.86914 22.86 6.86914Q21.9401 6.86914 21.3512 7.52832Q20.7623 8.1875 20.7623 9.25977Q20.7623 10.3145 21.316 10.9238Q21.8698 11.5332 22.8014 11.5332Q23.5865 11.5332 24.278 11.0117L24.278 11.9258ZM26.4858 9.44141L30.7222 9.44141L30.7222 8.9375Q30.7222 7.58398 30.0776 6.82227Q29.4331 6.06055 28.2554 6.06055Q27.0776 6.06055 26.2837 6.94238Q25.4897 7.82422 25.4897 9.22461Q25.4897 10.707 26.2163 11.5244Q26.9429 12.3418 28.2144 12.3418Q29.5151 12.3418 30.3062 11.7676L30.3062 10.8652Q29.4565 11.5332 28.4429 11.5332Q27.5405 11.5332 27.0249 10.9883Q26.5093 10.4434 26.4858 9.44141ZM31.9808 11.9844L31.9808 10.9531Q32.766 11.5332 33.7094 11.5332Q34.975 11.5332 34.975 10.6895Q34.975 10.4492 34.8666 10.2822Q34.7582 10.1152 34.5736 9.98633Q34.389 9.85742 34.14 9.75488Q33.891 9.65234 33.6039 9.54102Q33.2054 9.38281 32.9037 9.22168Q32.6019 9.06055 32.3998 8.8584Q32.1976 8.65625 32.0951 8.39844Q31.9926 8.14063 31.9926 7.79492Q31.9926 7.37305 32.1859 7.04785Q32.3793 6.72266 32.7015 6.50293Q33.0238 6.2832 33.4369 6.17188Q33.85 6.06055 34.2894 6.06055Q35.0687 6.06055 35.684 6.33008L35.684 7.30273Q35.0219 6.86914 34.1605 6.86914Q33.891 6.86914 33.6742 6.93066Q33.4574 6.99219 33.3021 7.10352Q33.1469 7.21484 33.0619 7.37012Q32.9769 7.52539 32.9769 7.71289Q32.9769 7.94727 33.0619 8.10547Q33.1469 8.26367 33.3109 8.38672Q33.475 8.50977 33.7094 8.60938Q33.9437 8.70898 34.2426 8.82617Q34.641 8.97852 34.9574 9.13965Q35.2738 9.30078 35.4965 9.50293Q35.7191 9.70508 35.8392 9.96875Q35.9594 10.2324 35.9594 10.5957Q35.9594 11.041 35.7631 11.3691Q35.5668 11.6973 35.2386 11.9141Q34.9105 12.1309 34.4828 12.2363Q34.0551 12.3418 33.5863 12.3418Q32.6605 12.3418 31.9808 11.9844ZM37.2415 10.9531L37.2415 11.9844Q37.9211 12.3418 38.8469 12.3418Q39.3157 12.3418 39.7434 12.2363Q40.1711 12.1309 40.4993 11.9141Q40.8274 11.6973 41.0237 11.3691Q41.22 11.041 41.22 10.5957Q41.22 10.2324 41.0999 9.96875Q40.9797 9.70508 40.7571 9.50293Q40.5344 9.30078 40.218 9.13965Q39.9016 8.97852 39.5032 8.82617Q39.2043 8.70898 38.97 8.60938Q38.7356 8.50977 38.5715 8.38672Q38.4075 8.26367 38.3225 8.10547Q38.2376 7.94727 38.2376 7.71289Q38.2376 7.52539 38.3225 7.37012Q38.4075 7.21484 38.5627 7.10352Q38.718 6.99219 38.9348 6.93066Q39.1516 6.86914 39.4211 6.86914Q40.2825 6.86914 40.9446 7.30273L40.9446 6.33008Q40.3293 6.06055 39.5501 6.06055Q39.1106 6.06055 38.6975 6.17188Q38.2844 6.2832 37.9622 6.50293Q37.6399 6.72266 37.4465 7.04785Q37.2532 7.37305 37.2532 7.79492Q37.2532 8.14063 37.3557 8.39844Q37.4583 8.65625 37.6604 8.8584Q37.8626 9.06055 38.1643 9.22168Q38.4661 9.38281 38.8645 9.54102Q39.1516 9.65234 39.4006 9.75488Q39.6497 9.85742 39.8342 9.98633Q40.0188 10.1152 40.1272 10.2822Q40.2356 10.4492 40.2356 10.6895Q40.2356 11.5332 38.97 11.5332Q38.0266 11.5332 37.2415 10.9531ZM12.368 12.2012L11.4071 12.2012L11.4071 11.252L11.3837 11.252Q10.786 12.3418 9.5321 12.3418Q7.38757 12.3418 7.38757 9.78711L7.38757 6.20117L8.34265 6.20117L8.34265 9.63477Q8.34265 11.5332 9.79578 11.5332Q10.4989 11.5332 10.953 11.0146Q11.4071 10.4961 11.4071 9.6582L11.4071 6.20117L12.368 6.20117L12.368 12.2012ZM29.3364 7.33203Q29.7319 7.79492 29.7378 8.62695L26.4976 8.62695Q26.6089 7.8418 27.0835 7.35547Q27.5581 6.86914 28.2378 6.86914Q28.9409 6.86914 29.3364 7.33203Z" />
          </g>
          <path d="M2.5 5C3.88071 5 5 3.88071 5 2.5C5 1.11929 3.88071 0 2.5 0C1.11929 0 0 1.11929 0 2.5C0 3.88071 1.11929 5 2.5 5Z" transform="translate(20 15)" id="Oval" fill="#4BB543" stroke="none" />
          <g id="Push-Service" transform="translate(20 52)">
            <path d="M39.5687 19.1519L38.0472 19.1519L38.0472 13.6782Q38.0472 10.7095 35.8392 10.7095Q34.7259 10.7095 33.9652 11.5676Q33.2044 12.4258 33.2044 13.771L33.2044 19.1519L31.683 19.1519L31.683 5.0874L33.2044 5.0874L33.2044 11.229L33.2416 11.229Q34.3363 9.4292 36.3587 9.4292Q39.5687 9.4292 39.5687 13.2979L39.5687 19.1519ZM84.6054 6.96143Q84.893 7.23975 85.3012 7.23975Q85.7187 7.23975 86.0109 6.95215Q86.3032 6.66455 86.3032 6.25635Q86.3032 5.82959 86.0109 5.54663Q85.7187 5.26367 85.3012 5.26367Q84.893 5.26367 84.6054 5.54663Q84.3178 5.82959 84.3178 6.25635Q84.3178 6.68311 84.6054 6.96143ZM47.4516 16.7769L47.4516 18.6138Q47.7114 18.79 48.1428 18.9338Q48.5742 19.0776 49.0566 19.175Q49.539 19.2725 50.0029 19.3235Q50.4668 19.3745 50.7822 19.3745Q51.7285 19.3745 52.582 19.1843Q53.4355 18.9941 54.0896 18.5674Q54.7436 18.1406 55.1286 17.4587Q55.5136 16.7769 55.5136 15.7935Q55.5136 15.0513 55.2307 14.4761Q54.9477 13.9009 54.4653 13.4277Q53.9829 12.9546 53.3427 12.5649Q52.7026 12.1753 51.9882 11.8228Q51.2924 11.4795 50.759 11.1919Q50.2256 10.9043 49.8545 10.5981Q49.4834 10.292 49.2932 9.9209Q49.103 9.54981 49.103 9.03955Q49.103 8.49219 49.3535 8.11182Q49.604 7.73145 50.0029 7.49023Q50.4018 7.24902 50.9121 7.14233Q51.4223 7.03564 51.9326 7.03564Q53.7788 7.03564 54.957 7.85205L54.957 6.09863Q54.0571 5.62549 52.0903 5.62549Q51.2275 5.62549 50.3972 5.83887Q49.5669 6.05225 48.9174 6.48828Q48.268 6.92432 47.8691 7.59692Q47.4702 8.26953 47.4702 9.17871Q47.4702 9.9209 47.7253 10.4729Q47.9804 11.0249 48.4257 11.4609Q48.8711 11.897 49.4741 12.2588Q50.0771 12.6206 50.7729 12.9731Q51.4316 13.3071 52.0022 13.6086Q52.5727 13.9102 52.9902 14.2395Q53.4077 14.5688 53.6443 14.9678Q53.8808 15.3667 53.8808 15.9048Q53.8808 16.9067 53.1711 17.4402Q52.4614 17.9736 51.0234 17.9736Q50.6059 17.9736 50.1142 17.8901Q49.6225 17.8066 49.1355 17.6536Q48.6484 17.5005 48.2077 17.2778Q47.7671 17.0552 47.4516 16.7769ZM3.30273 14.1235L3.30273 19.1519L1.74414 19.1519L1.74414 5.84814L5.39941 5.84814Q7.5332 5.84814 8.70679 6.88721Q9.88037 7.92627 9.88037 9.81885Q9.88037 11.7114 8.5769 12.9175Q7.27344 14.1235 5.05615 14.1235L3.30273 14.1235ZM3.30273 7.2583L3.30273 12.7134L4.93555 12.7134Q6.5498 12.7134 7.39868 11.9758Q8.24756 11.2383 8.24756 9.89307Q8.24756 7.2583 5.13037 7.2583L3.30273 7.2583ZM22.8166 17.1758L22.8166 18.8086Q23.8928 19.3745 25.3586 19.3745Q26.1008 19.3745 26.7781 19.2075Q27.4553 19.0405 27.9748 18.6973Q28.4944 18.354 28.8052 17.8345Q29.1159 17.3149 29.1159 16.6099Q29.1159 16.0347 28.9258 15.6172Q28.7356 15.1997 28.383 14.8796Q28.0305 14.5596 27.5295 14.3044Q27.0285 14.0493 26.3977 13.8081Q25.9245 13.6226 25.5534 13.4648Q25.1824 13.3071 24.9226 13.1123Q24.6628 12.9175 24.5283 12.667Q24.3938 12.4165 24.3938 12.0454Q24.3938 11.7485 24.5283 11.5027Q24.6628 11.2568 24.9087 11.0806Q25.1545 10.9043 25.4978 10.8069Q25.841 10.7095 26.2678 10.7095Q27.6316 10.7095 28.6799 11.396L28.6799 9.85596Q27.7058 9.4292 26.4719 9.4292Q25.7761 9.4292 25.1221 9.60547Q24.468 9.78174 23.9577 10.1296Q23.4475 10.4775 23.1413 10.9924Q22.8352 11.5073 22.8352 12.1753Q22.8352 12.7227 22.9975 13.1309Q23.1599 13.5391 23.48 13.8591Q23.8 14.1792 24.2778 14.4343Q24.7556 14.6895 25.3865 14.9399Q25.841 15.1162 26.2353 15.2786Q26.6296 15.4409 26.9219 15.645Q27.2141 15.8491 27.3857 16.1135Q27.5574 16.3779 27.5574 16.7583Q27.5574 18.0942 25.5534 18.0942Q24.0598 18.0942 22.8166 17.1758ZM65.8272 14.7822L59.1197 14.7822Q59.1568 16.3687 59.9732 17.2314Q60.7896 18.0942 62.2183 18.0942Q63.8233 18.0942 65.1685 17.0366L65.1685 18.4653Q63.9161 19.3745 61.8565 19.3745Q59.8433 19.3745 58.693 18.0803Q57.5426 16.7861 57.5426 14.439Q57.5426 12.2217 58.7996 10.8254Q60.0567 9.4292 61.9215 9.4292Q63.7862 9.4292 64.8067 10.6353Q65.8272 11.8413 65.8272 13.9844L65.8272 14.7822ZM95.8282 18.7158Q94.7334 19.3745 93.2305 19.3745Q91.1988 19.3745 89.951 18.0525Q88.7032 16.7305 88.7032 14.6245Q88.7032 12.2773 90.0484 10.8533Q91.3936 9.4292 93.6387 9.4292Q94.8912 9.4292 95.8467 9.89307L95.8467 11.4517Q94.7891 10.7095 93.5831 10.7095Q92.1265 10.7095 91.1941 11.7532Q90.2618 12.7969 90.2618 14.4946Q90.2618 16.1646 91.1385 17.1294Q92.0152 18.0942 93.4903 18.0942Q94.7334 18.0942 95.8282 17.2686L95.8282 18.7158ZM99.2858 14.7822L105.993 14.7822L105.993 13.9844Q105.993 11.8413 104.973 10.6353Q103.952 9.4292 102.088 9.4292Q100.223 9.4292 98.9657 10.8254Q97.7087 12.2217 97.7087 14.439Q97.7087 16.7861 98.859 18.0803Q100.009 19.3745 102.023 19.3745Q104.082 19.3745 105.335 18.4653L105.335 17.0366Q103.989 18.0942 102.384 18.0942Q100.956 18.0942 100.139 17.2314Q99.3229 16.3687 99.2858 14.7822ZM72.1608 10.8857Q72.9123 10.8857 73.3112 11.1919L73.3112 9.61475Q72.9958 9.48486 72.402 9.48486Q71.5764 9.48486 70.9084 10.0461Q70.2404 10.6074 69.9157 11.6094L69.8786 11.6094L69.8786 9.65186L68.3571 9.65186L68.3571 19.1519L69.8786 19.1519L69.8786 14.3091Q69.8786 12.7227 70.5327 11.8042Q71.1867 10.8857 72.1608 10.8857ZM20.0919 19.1519L18.5704 19.1519L18.5704 17.6489L18.5333 17.6489Q17.587 19.3745 15.6017 19.3745Q12.2062 19.3745 12.2062 15.3296L12.2062 9.65186L13.7184 9.65186L13.7184 15.0884Q13.7184 18.0942 16.0192 18.0942Q17.1324 18.0942 17.8514 17.2732Q18.5704 16.4521 18.5704 15.1255L18.5704 9.65186L20.0919 9.65186L20.0919 19.1519ZM82.66 9.65186L78.8748 19.1519L77.3812 19.1519L73.7816 9.65186L75.4515 9.65186L77.8636 16.5542Q78.1326 17.3149 78.1976 17.8809L78.2347 17.8809Q78.3275 17.1665 78.5316 16.5913L81.055 9.65186L82.66 9.65186ZM84.5219 19.1519L86.0434 19.1519L86.0434 9.65186L84.5219 9.65186L84.5219 19.1519ZM64.2686 13.4927Q64.2594 12.1753 63.6331 11.4424Q63.0069 10.7095 61.8936 10.7095Q60.8175 10.7095 60.066 11.4795Q59.3145 12.2495 59.1383 13.4927L64.2686 13.4927ZM103.799 11.4424Q104.425 12.1753 104.435 13.4927L99.3044 13.4927Q99.4806 12.2495 100.232 11.4795Q100.984 10.7095 102.06 10.7095Q103.173 10.7095 103.799 11.4424Z" />
          </g>
          <path d="M0 0.5L165 0.5" transform="translate(0 31.0332)" id="Path-2" fill="none" stroke="#E9E9E9" stroke-width="0.5" />
          <path d="M0 0L165 0L165 32L0 32L0 0Z" id="Rectangle" fill="url(#gradient_1)" stroke="none" />
          <path d="M3.43209 0.378005C3.52494 0.155915 3.74413 0 4 0C4.25587 0 4.47506 0.155915 4.56791 0.378005L7.90204 6.12861L7.90264 6.12921L7.90745 6.13762C7.96783 6.23488 7.99988 6.34706 8 6.46154C8 6.80141 7.72448 7.07692 7.38462 7.07692C7.37017 7.07663 7.35574 7.07583 7.34135 7.07452L7.34014 7.07692L0.659856 7.07692L0.658654 7.07512C0.644256 7.07623 0.629824 7.07683 0.615385 7.07692C0.275517 7.07692 0 6.80141 0 6.46154C0.000231433 6.34726 0.0322776 6.23531 0.0925481 6.13822L0.0925481 6.13762L3.43209 0.378005ZM4.3732 2.57212L4.3113 4.5637L3.6887 4.5637L3.6268 2.57212L4.3732 2.57212ZM4.40565 5.54086C4.40565 5.30856 4.25413 5.17248 4.0012 5.17248C3.74612 5.17248 3.59375 5.30856 3.59375 5.54086C3.59375 5.76887 3.74643 5.90445 4.0012 5.90445C4.25413 5.90445 4.40565 5.76887 4.40565 5.54086Z" transform="translate(20 12.92308)" id="warning_icon" fill="#FF4948" fill-rule="evenodd" stroke="none" />
          <g id="Warning" fill="#3C3C3C" transform="translate(32 10)">
            <path d="M24.8989 3.58496Q25.0503 3.73145 25.2652 3.73145Q25.4849 3.73145 25.6387 3.58008Q25.7925 3.42871 25.7925 3.21387Q25.7925 2.98926 25.6387 2.84033Q25.4849 2.69141 25.2652 2.69141Q25.0503 2.69141 24.8989 2.84033Q24.7476 2.98926 24.7476 3.21387Q24.7476 3.43848 24.8989 3.58496ZM9.21875 2.99902L7.24121 10.001L6.2793 10.001L4.83887 4.88379Q4.74609 4.55664 4.72656 4.1709L4.70703 4.1709Q4.67773 4.53223 4.58008 4.87402L3.12988 10.001L2.17773 10.001L0.126953 2.99902L1.03027 2.99902L2.51953 8.37012Q2.6123 8.70703 2.63672 9.07324L2.66113 9.07324Q2.68555 8.81445 2.8125 8.37012L4.36035 2.99902L5.14648 2.99902L6.63086 8.40918Q6.70898 8.6875 6.74805 9.06348L6.76758 9.06348Q6.78711 8.80957 6.89941 8.38965L8.33008 2.99902L9.21875 2.99902ZM13.8505 10.001L13.0497 10.001L13.0497 9.21973L13.0302 9.21973Q12.5077 10.1182 11.4921 10.1182Q10.745 10.1182 10.3226 9.72266Q9.90027 9.32715 9.90027 8.67285Q9.90027 7.27148 11.5507 7.04199L13.0497 6.83203Q13.0497 5.55762 12.0194 5.55762Q11.1161 5.55762 10.3886 6.17285L10.3886 5.35254Q11.1259 4.88379 12.0878 4.88379Q13.8505 4.88379 13.8505 6.74902L13.8505 10.001ZM23.2262 10.001L22.4254 10.001L22.4254 7.14941Q22.4254 5.55762 21.2633 5.55762Q20.6627 5.55762 20.2697 6.00928Q19.8766 6.46094 19.8766 7.14941L19.8766 10.001L19.0758 10.001L19.0758 5.00098L19.8766 5.00098L19.8766 5.83105L19.8961 5.83105Q20.4625 4.88379 21.5368 4.88379Q22.3571 4.88379 22.7916 5.41357Q23.2262 5.94336 23.2262 6.94434L23.2262 10.001ZM31.5473 10.001L30.7465 10.001L30.7465 7.14941Q30.7465 5.55762 29.5844 5.55762Q28.9838 5.55762 28.5907 6.00928Q28.1977 6.46094 28.1977 7.14941L28.1977 10.001L27.3969 10.001L27.3969 5.00098L28.1977 5.00098L28.1977 5.83105L28.2172 5.83105Q28.7836 4.88379 29.8578 4.88379Q30.6781 4.88379 31.1127 5.41357Q31.5473 5.94336 31.5473 6.94434L31.5473 10.001ZM34.8069 12.3545Q37.4436 12.3545 37.4436 9.60059L37.4436 5.00098L36.6428 5.00098L36.6428 5.69434L36.6233 5.69434Q36.135 4.88379 35.1243 4.88379Q34.0598 4.88379 33.447 5.63574Q32.8343 6.3877 32.8343 7.66211Q32.8343 8.78516 33.4031 9.45166Q33.972 10.1182 34.9046 10.1182Q36.052 10.1182 36.6233 9.16113L36.6428 9.16113L36.6428 9.70801Q36.6428 11.6709 34.7971 11.6709Q34.0305 11.6709 33.1858 11.2021L33.1858 12.0029Q33.8792 12.3545 34.8069 12.3545ZM17.4812 5.65039Q17.8767 5.65039 18.0867 5.81152L18.0867 4.98145Q17.9207 4.91309 17.6082 4.91309Q17.1736 4.91309 16.822 5.2085Q16.4705 5.50391 16.2996 6.03125L16.28 6.03125L16.28 5.00098L15.4793 5.00098L15.4793 10.001L16.28 10.001L16.28 7.45215Q16.28 6.61719 16.6243 6.13379Q16.9685 5.65039 17.4812 5.65039ZM24.855 10.001L25.6558 10.001L25.6558 5.00098L24.855 5.00098L24.855 10.001ZM36.6428 7.00293L36.6428 7.74023Q36.6428 8.4873 36.2205 8.96582Q35.7981 9.44434 35.1243 9.44434Q34.4602 9.44434 34.0574 8.94385Q33.6546 8.44336 33.6546 7.6084Q33.6546 6.63672 34.0745 6.09717Q34.4944 5.55762 35.2366 5.55762Q35.8372 5.55762 36.24 5.98242Q36.6428 6.40723 36.6428 7.00293ZM13.0497 7.47168L11.8436 7.6377Q11.287 7.71582 11.0038 7.91357Q10.7206 8.11133 10.7206 8.61426Q10.7206 8.98047 10.9818 9.2124Q11.243 9.44434 11.6776 9.44434Q12.2733 9.44434 12.6615 9.02686Q13.0497 8.60938 13.0497 7.96973L13.0497 7.47168Z" />
          </g>
          <path d="M20 10C20 15.5228 15.5228 20 10 20C4.47715 20 0 15.5228 0 10C0 4.47715 4.47715 0 10 0C15.5228 0 20 4.47715 20 10ZM11.2862 4L4 11.3438L7.72932 11.3438L7.72932 15L15 7.67189L11.2862 7.67189L11.2862 4Z" transform="translate(20 130)" id="logo-copy" fill="#007AFF" fill-rule="evenodd" stroke="#2463E1" stroke-width="1" />
        </g>
      </g>
      <g id="Final-link-not-reach" transform="translate(20 81)">
        <g id="Final-link-not" fill="#BEBEBE">
          <path d="M8.81 2.115Q8.63 2.31 8.63 2.58Q8.63 2.84 8.81 3.02Q8.99 3.2 9.27 3.2Q9.56 3.2 9.755 3.02Q9.95 2.84 9.95 2.58Q9.95 2.31 9.755 2.115Q9.56 1.92 9.27 1.92Q8.99 1.92 8.81 2.115ZM45.23 2.58Q45.23 2.31 45.41 2.115Q45.59 1.92 45.87 1.92Q46.16 1.92 46.355 2.115Q46.55 2.31 46.55 2.58Q46.55 2.84 46.355 3.02Q46.16 3.2 45.87 3.2Q45.59 3.2 45.41 3.02Q45.23 2.84 45.23 2.58ZM5.18 2L1.17 2L1.17 9L2 9L2 5.87L4.98 5.87L4.98 5.13L2 5.13L2 2.74L5.18 2.74L5.18 2ZM25.18 2L26.85 2L26.85 7.32Q26.85 7.93 27.055 8.18Q27.26 8.43 27.66 8.43Q27.94 8.43 28.23 8.32Q28.52 8.21 28.76 8.01L29.12 8.54Q28.9595 8.68 28.7689 8.79Q28.5783 8.9 28.3776 8.975Q28.1769 9.05 27.9762 9.09Q27.7756 9.13 27.605 9.13Q27.2339 9.13 26.9429 9.035Q26.6519 8.94 26.4562 8.73Q26.2606 8.52 26.1603 8.175Q26.06 7.83 26.06 7.32L26.06 2.67L25.18 2.67L25.18 2ZM38.97 2L37.3 2L37.3 2.67L38.18 2.67L38.18 7.32Q38.18 7.83 38.2803 8.175Q38.3806 8.52 38.5762 8.73Q38.7719 8.94 39.0629 9.035Q39.3539 9.13 39.725 9.13Q39.8956 9.13 40.0962 9.09Q40.2969 9.05 40.4976 8.975Q40.6983 8.9 40.8889 8.79Q41.0795 8.68 41.24 8.54L40.88 8.01Q40.64 8.21 40.35 8.32Q40.06 8.43 39.78 8.43Q39.38 8.43 39.175 8.18Q38.97 7.93 38.97 7.32L38.97 2ZM55.2 2L56.82 2L56.82 6.14L57.37 6.14L59.34 4L60.28 4L58.07 6.37L59.89 8.33L60.54 8.33L60.54 9L59.51 9L57.37 6.74L56.82 6.74L56.82 9L56.05 9L56.05 2.67L55.2 2.67L55.2 2ZM80.82 4L79.63 4L79.63 4.67L80.82 4.67L80.82 7.15Q80.82 7.67 80.98 8.045Q81.14 8.42 81.41 8.66Q81.68 8.9 82.035 9.015Q82.39 9.13 82.79 9.13Q83.3 9.13 83.785 8.96Q84.27 8.79 84.62 8.51L84.3609 7.92Q84.0917 8.12 83.7578 8.29Q83.4239 8.46 82.9755 8.46Q82.3177 8.46 81.9638 8.11Q81.61 7.76 81.61 7.03L81.61 4.67L84.28 4.67L84.28 4L81.61 4L81.61 2.79L80.82 3.01L80.82 4ZM13.17 5.75Q13.17 5.66 13.165 5.515Q13.16 5.37 13.15 5.215Q13.14 5.06 13.125 4.91Q13.11 4.76 13.09 4.65L12.42 4.65L12.42 4L13.76 4L13.85 4.81L13.9 4.81Q14 4.64 14.165 4.475Q14.33 4.31 14.55 4.175Q14.77 4.04 15.04 3.96Q15.31 3.88 15.61 3.88Q16.07 3.88 16.425 3.98Q16.78 4.08 17.015 4.335Q17.25 4.59 17.37 5.025Q17.49 5.46 17.49 6.13L17.49 9L16.7 9L16.7 6.28625Q16.7 5.45813 16.4309 5.03906Q16.1619 4.62 15.4545 4.62Q15.1955 4.62 14.9513 4.72477Q14.7072 4.82953 14.5079 4.99914Q14.3086 5.16875 14.1591 5.3932Q14.0097 5.61766 13.94 5.86719L13.94 9L13.17 9L13.17 5.75ZM49.765 5.515Q49.77 5.66 49.77 5.75L49.77 9L50.54 9L50.54 5.86719Q50.6097 5.61766 50.7591 5.3932Q50.9086 5.16875 51.1079 4.99914Q51.3072 4.82953 51.5513 4.72477Q51.7955 4.62 52.0545 4.62Q52.7619 4.62 53.0309 5.03906Q53.3 5.45813 53.3 6.28625L53.3 9L54.09 9L54.09 6.13Q54.09 5.46 53.97 5.025Q53.85 4.59 53.615 4.335Q53.38 4.08 53.025 3.98Q52.67 3.88 52.21 3.88Q51.91 3.88 51.64 3.96Q51.37 4.04 51.15 4.175Q50.93 4.31 50.765 4.475Q50.6 4.64 50.5 4.81L50.45 4.81L50.36 4L49.02 4L49.02 4.65L49.69 4.65Q49.71 4.76 49.725 4.91Q49.74 5.06 49.75 5.215Q49.76 5.37 49.765 5.515ZM68.005 5.515Q68.01 5.66 68.01 5.75L68.01 9L68.78 9L68.78 5.86719Q68.8497 5.61766 68.9991 5.3932Q69.1486 5.16875 69.3479 4.99914Q69.5472 4.82953 69.7913 4.72477Q70.0355 4.62 70.2945 4.62Q71.0019 4.62 71.2709 5.03906Q71.54 5.45813 71.54 6.28625L71.54 9L72.33 9L72.33 6.13Q72.33 5.46 72.21 5.025Q72.09 4.59 71.855 4.335Q71.62 4.08 71.265 3.98Q70.91 3.88 70.45 3.88Q70.15 3.88 69.88 3.96Q69.61 4.04 69.39 4.175Q69.17 4.31 69.005 4.475Q68.84 4.64 68.74 4.81L68.69 4.81L68.6 4L67.26 4L67.26 4.65L67.93 4.65Q67.95 4.76 67.965 4.91Q67.98 5.06 67.99 5.215Q68 5.37 68.005 5.515ZM73.77 6.5Q73.77 5.29 74.4 4.585Q75.03 3.88 76.2 3.88Q76.83 3.88 77.285 4.085Q77.74 4.29 78.04 4.64Q78.34 4.99 78.485 5.47Q78.63 5.95 78.63 6.5Q78.63 7.1 78.47 7.585Q78.31 8.07 78 8.41Q77.69 8.75 77.235 8.935Q76.78 9.12 76.2 9.12Q75.58 9.12 75.12 8.915Q74.66 8.71 74.36 8.36Q74.06 8.01 73.915 7.53Q73.77 7.05 73.77 6.5ZM20.41 4.03Q19.87 4.14 19.44 4.39L19.6909 4.97Q20.012 4.84 20.4234 4.715Q20.8348 4.59 21.2864 4.59Q21.6175 4.59 21.8433 4.665Q22.0691 4.74 22.1945 4.92Q22.32 5.1 22.355 5.405Q22.39 5.71 22.34 6.17Q21.5977 6.06 21.0009 6.09Q20.4041 6.12 19.9827 6.3Q19.5614 6.48 19.3357 6.82Q19.11 7.16 19.11 7.67Q19.11 8.33 19.5413 8.71Q19.9727 9.09 20.7148 9.09Q21.0961 9.09 21.377 8.99Q21.6578 8.89 21.8534 8.755Q22.0489 8.62 22.1693 8.48Q22.2897 8.34 22.3498 8.25L22.4 8.25L22.4894 9L23.81 9L23.81 8.35L23.14 8.35Q23.08 7.9 23.08 7.4Q23.09 6.97 23.11 6.54Q23.13 6.11 23.13 5.73Q23.13 5.4 23.065 5.075Q23 4.75 22.815 4.495Q22.63 4.24 22.305 4.08Q21.98 3.92 21.47 3.92Q20.95 3.92 20.41 4.03ZM7.17 8.33L7.17 9L11.4 9L11.4 8.33L9.7 8.33L9.7 4L7.17 4L7.17 4.67L8.91 4.67L8.91 8.33L7.17 8.33ZM43.77 9L43.77 8.33L45.51 8.33L45.51 4.67L43.77 4.67L43.77 4L46.3 4L46.3 8.33L48 8.33L48 9L43.77 9ZM74.6 6.5Q74.6 6.85 74.6848 7.2Q74.7695 7.55 74.9589 7.83Q75.1483 8.11 75.4523 8.28Q75.7564 8.45 76.195 8.45Q76.9925 8.45 77.3962 7.955Q77.8 7.46 77.8 6.5Q77.8 6.14 77.7152 5.795Q77.6305 5.45 77.4361 5.17Q77.2417 4.89 76.9377 4.72Q76.6336 4.55 76.195 4.55Q75.3975 4.55 74.9987 5.04Q74.6 5.53 74.6 6.5ZM21.44 8.33Q21.2 8.42 20.92 8.42Q20.39 8.42 20.165 8.175Q19.94 7.93 19.94 7.6Q19.94 7.28 20.12 7.08Q20.3 6.88 20.62 6.785Q20.94 6.69 21.38 6.69Q21.82 6.69 22.34 6.78L22.34 7.48Q22.28 7.63 22.16 7.795Q22.04 7.96 21.86 8.1Q21.68 8.24 21.44 8.33Z" />
        </g>
        <g id="reached" fill="#BEBEBE">
          <path d="M26.08 13.001L24.52 13.001L24.52 13.671L25.31 13.671L25.31 20.001L26.08 20.001L26.08 16.821Q26.1398 16.541 26.2943 16.306Q26.4487 16.071 26.663 15.906Q26.8772 15.741 27.1363 15.646Q27.3955 15.551 27.6645 15.551Q28.0531 15.551 28.3023 15.661Q28.5514 15.771 28.6959 15.986Q28.8403 16.201 28.8902 16.521Q28.94 16.841 28.94 17.271L28.94 20.001L29.73 20.001L29.73 17.121Q29.73 16.451 29.62 16.016Q29.51 15.581 29.285 15.331Q29.06 15.081 28.705 14.981Q28.35 14.881 27.87 14.881Q27.26 14.881 26.85 15.076Q26.44 15.271 26.13 15.621L26.08 15.621L26.08 13.001ZM41.83 13.001L40.2 13.001L40.2 13.671L41.04 13.671L41.04 15.091Q40.8905 15.051 40.7658 15.016Q40.6411 14.981 40.5015 14.961Q40.3619 14.941 40.1973 14.931Q40.0327 14.921 39.8233 14.921Q39.2448 14.921 38.7761 15.091Q38.3073 15.261 37.9732 15.586Q37.6391 15.911 37.4595 16.396Q37.28 16.881 37.28 17.511Q37.28 18.851 37.8136 19.486Q38.3472 20.121 39.4744 20.121Q40.043 20.121 40.4768 19.866Q40.9106 19.611 41.1302 19.231L41.17 19.231L41.2706 20.001L42.61 20.001L42.61 19.351L41.94 19.351Q41.92 19.241 41.9 19.096Q41.88 18.951 41.865 18.801Q41.85 18.651 41.84 18.516Q41.83 18.381 41.83 18.291L41.83 13.001ZM11.41 19.371Q11.23 19.531 10.985 19.671Q10.74 19.811 10.45 19.911Q10.16 20.011 9.845 20.066Q9.53 20.121 9.21 20.121Q8.61 20.121 8.15 19.936Q7.69 19.751 7.38 19.406Q7.07 19.061 6.91 18.581Q6.75 18.101 6.75 17.501Q6.75 16.871 6.925 16.381Q7.1 15.891 7.43 15.561Q7.76 15.231 8.23 15.056Q8.7 14.881 9.28 14.881Q9.7 14.881 10.11 14.991Q10.52 15.101 10.835 15.406Q11.15 15.711 11.32 16.246Q11.49 16.781 11.44 17.631L7.58 17.631Q7.58 18.531 8.06375 18.976Q8.5475 19.421 9.35531 19.421Q9.62469 19.421 9.88898 19.356Q10.1533 19.291 10.3927 19.201Q10.632 19.111 10.8166 19.001Q11.0011 18.891 11.1008 18.801L11.41 19.371ZM22.75 15.771Q22.52 15.691 22.255 15.636Q21.99 15.581 21.73 15.581Q20.75 15.581 20.27 16.0422Q19.79 16.5035 19.79 17.506Q19.79 17.9472 19.93 18.2932Q20.07 18.6391 20.33 18.8797Q20.59 19.1204 20.955 19.2507Q21.32 19.381 21.76 19.381Q22.23 19.381 22.675 19.2182Q23.12 19.0555 23.42 18.791L23.77 19.371Q23.63 19.491 23.42 19.621Q23.21 19.751 22.935 19.866Q22.66 19.981 22.325 20.051Q21.99 20.121 21.6 20.121Q20.95 20.121 20.455 19.936Q19.96 19.751 19.63 19.406Q19.3 19.061 19.13 18.576Q18.96 18.091 18.96 17.501Q18.96 16.871 19.135 16.381Q19.31 15.891 19.64 15.561Q19.97 15.231 20.44 15.056Q20.91 14.881 21.49 14.881Q22.23 14.881 22.695 15.011Q23.16 15.141 23.48 15.301L23.47 15.331L23.47 16.721L22.75 16.721L22.75 15.771ZM35.89 19.371Q35.71 19.531 35.465 19.671Q35.22 19.811 34.93 19.911Q34.64 20.011 34.325 20.066Q34.01 20.121 33.69 20.121Q33.09 20.121 32.63 19.936Q32.17 19.751 31.86 19.406Q31.55 19.061 31.39 18.581Q31.23 18.101 31.23 17.501Q31.23 16.871 31.405 16.381Q31.58 15.891 31.91 15.561Q32.24 15.231 32.71 15.056Q33.18 14.881 33.76 14.881Q34.18 14.881 34.59 14.991Q35 15.101 35.315 15.406Q35.63 15.711 35.8 16.246Q35.97 16.781 35.92 17.631L32.06 17.631Q32.06 18.531 32.5437 18.976Q33.0275 19.421 33.8353 19.421Q34.1047 19.421 34.369 19.356Q34.6333 19.291 34.8727 19.201Q35.112 19.111 35.2966 19.001Q35.4811 18.891 35.5808 18.801L35.89 19.371ZM0.66 20.001L0.66 19.331L2.01 19.331L2.01 15.671L0.66 15.671L0.66 15.001L2.53 15.001L2.69 15.651L2.74 15.651Q3.08 15.341 3.5 15.121Q3.92 14.901 4.5 14.901Q4.84 14.901 5.045 15.031Q5.25 15.161 5.365 15.411Q5.48 15.661 5.52 16.016Q5.56 16.371 5.56 16.821L4.86 16.831Q4.86 16.1961 4.735 15.8986Q4.61 15.601 4.28 15.601Q3.97 15.601 3.72 15.6907Q3.47 15.7805 3.285 15.9101Q3.1 16.0397 2.97 16.1694Q2.84 16.2991 2.78 16.3888L2.78 19.331L4.7 19.331L4.7 20.001L0.66 20.001ZM14.29 15.031Q13.75 15.141 13.32 15.391L13.5709 15.971Q13.892 15.841 14.3034 15.716Q14.7148 15.591 15.1664 15.591Q15.4975 15.591 15.7233 15.666Q15.9491 15.741 16.0745 15.921Q16.2 16.101 16.235 16.406Q16.27 16.711 16.22 17.171Q15.4777 17.061 14.8809 17.091Q14.2841 17.121 13.8627 17.301Q13.4414 17.481 13.2157 17.821Q12.99 18.161 12.99 18.671Q12.99 19.331 13.4213 19.711Q13.8527 20.091 14.5948 20.091Q14.9761 20.091 15.257 19.991Q15.5378 19.891 15.7334 19.756Q15.9289 19.621 16.0493 19.481Q16.1697 19.341 16.2298 19.251L16.28 19.251L16.3694 20.001L17.69 20.001L17.69 19.351L17.02 19.351Q16.96 18.901 16.96 18.401Q16.97 17.971 16.99 17.541Q17.01 17.111 17.01 16.731Q17.01 16.401 16.945 16.076Q16.88 15.751 16.695 15.496Q16.51 15.241 16.185 15.081Q15.86 14.921 15.35 14.921Q14.83 14.921 14.29 15.031ZM9.30453 15.541Q8.97563 15.541 8.68156 15.611Q8.3875 15.681 8.1632 15.846Q7.93891 16.011 7.79437 16.276Q7.64984 16.541 7.61 16.931L10.71 16.931Q10.6602 16.271 10.2863 15.906Q9.9125 15.541 9.30453 15.541ZM33.7845 15.541Q33.4556 15.541 33.1616 15.611Q32.8675 15.681 32.6432 15.846Q32.4189 16.011 32.2744 16.276Q32.1298 16.541 32.09 16.931L35.19 16.931Q35.1402 16.271 34.7663 15.906Q34.3925 15.541 33.7845 15.541ZM40.5616 19.136Q40.2128 19.451 39.6048 19.451Q39.1862 19.451 38.8973 19.301Q38.6083 19.151 38.4339 18.891Q38.2595 18.631 38.1848 18.276Q38.11 17.921 38.11 17.511Q38.11 16.511 38.5684 16.046Q39.0269 15.581 39.8242 15.581Q40.2727 15.581 40.5467 15.651Q40.8208 15.721 41.04 15.871L41.04 18.191Q40.9105 18.821 40.5616 19.136ZM15.32 19.331Q15.08 19.421 14.8 19.421Q14.27 19.421 14.045 19.176Q13.82 18.931 13.82 18.601Q13.82 18.281 14 18.081Q14.18 17.881 14.5 17.786Q14.82 17.691 15.26 17.691Q15.7 17.691 16.22 17.781L16.22 18.481Q16.16 18.631 16.04 18.796Q15.92 18.961 15.74 19.101Q15.56 19.241 15.32 19.331Z" />
        </g>
      </g>
    </g>
    <path d="M0 1.38462C0 0.619846 0.619846 0 1.38462 0C2.14938 0 2.76923 0.619846 2.76923 1.38462C2.76923 2.14938 2.14938 2.76923 1.38462 2.76923C0.619846 2.76923 0 2.14938 0 1.38462ZM6 0C5.23523 0 4.61538 0.619846 4.61538 1.38462C4.61538 2.14938 5.23523 2.76923 6 2.76923C6.76477 2.76923 7.38462 2.14938 7.38462 1.38462C7.38462 0.619846 6.76477 0 6 0ZM9.23077 1.38462C9.23077 0.619846 9.85062 0 10.6154 0C11.3802 0 12 0.619846 12 1.38462C12 2.14938 11.3802 2.76923 10.6154 2.76923C9.85062 2.76923 9.23077 2.14938 9.23077 1.38462Z" transform="translate(133 16)" id="more_icon" fill="#000000" fill-rule="evenodd" stroke="none" />
  </g>
</svg>