<svg width="66" height="30" viewBox="0 0 66 30" fill="none" xmlns="http://www.w3.org/2000/svg">
<path fill-rule="evenodd" clip-rule="evenodd" d="M41.5292 3.46844H43.9785C44.0354 3.70844 44.0582 3.95987 44.0468 4.20559C44.0582 4.42845 44.0354 4.6513 43.9785 4.86845H41.5235L43.2551 6.6056C43.1184 6.79417 42.9589 6.97132 42.788 7.13703C42.6456 7.3256 42.4633 7.4856 42.2583 7.59989L40.5324 5.86845V8.33704C40.316 8.39989 40.0938 8.41704 39.866 8.39989C39.6438 8.41132 39.416 8.39418 39.1996 8.33704V5.86845L37.4737 7.59989C37.0807 7.33703 36.7389 6.99989 36.4769 6.6056L38.2711 4.80559H35.8105C35.7535 4.58845 35.7307 4.36559 35.7478 4.13702C35.7478 3.93702 35.8105 3.46844 35.8105 3.46844H38.2028L36.4769 1.737C36.5438 1.63489 36.6285 1.55065 36.7136 1.46603C36.7951 1.38492 36.8771 1.30346 36.944 1.20557C37.0864 1.017 37.2686 0.851286 37.4737 0.737L39.2679 2.53701V0.0684252C39.4787 0.0112821 39.7065 -0.0115752 39.9343 0.00556779C40.1565 -0.000146524 40.3843 0.0112821 40.5951 0.0684252V2.46844L42.3209 0.737C42.4842 0.909824 42.6635 1.06672 42.8564 1.20557C42.9254 1.31106 42.9945 1.39746 43.0645 1.48492C43.1271 1.56328 43.1905 1.64249 43.2551 1.737L41.5292 3.46844ZM40.9311 4.13702C40.9233 4.43126 40.8773 4.72324 40.7944 5.00559C40.521 5.10845 40.2248 5.15416 39.9343 5.13702C39.6413 5.13128 39.3502 5.0871 39.0685 5.00559C38.9613 4.72938 38.9165 4.4327 38.9375 4.13702C38.9433 3.843 38.9873 3.551 39.0685 3.26844C39.342 3.15987 39.6381 3.11415 39.9343 3.13701C40.2191 3.14273 40.5153 3.18844 40.7944 3.26844C40.8742 3.55416 40.914 3.83987 40.9311 4.13702ZM18.734 13.3999C19.2741 13.945 19.5436 14.7035 19.4688 15.4685H19.5998V15.9999C19.4735 15.9999 19.3485 15.986 19.2165 15.9712C19.0685 15.9546 18.9116 15.9371 18.734 15.9371C18.2954 15.8742 17.8511 15.8514 17.4068 15.8685C16.7119 15.8514 16.017 15.9428 15.3506 16.1371C14.7354 16.3199 14.1544 16.5942 13.619 16.9371C13.1054 17.2616 12.6914 17.7224 12.4229 18.2685C12.0927 18.8316 11.9325 19.4787 11.9615 20.1314C11.9442 20.7772 12.0809 21.4178 12.3602 22C12.5997 22.5066 12.9644 22.9433 13.4197 23.2685C13.9143 23.631 14.482 23.8806 15.0829 24C15.8063 24.1428 16.5354 24.2057 17.2758 24.2C18.1188 24.2 18.9618 24.1314 19.7991 24C20.5117 23.891 21.2203 23.7576 21.9237 23.6V15.5371C21.9237 13.8685 21.4624 12.5999 20.5966 11.8685C19.5086 11.0513 18.1644 10.6513 16.8088 10.737C16.1423 10.7142 15.4759 10.7542 14.8152 10.8685C14.1829 10.9313 13.5564 11.0628 12.9583 11.2685C12.9214 11.9654 13.0814 12.6587 13.4197 13.2685C13.8981 13.1199 14.388 13.0056 14.8835 12.9371C15.4303 12.8571 15.9885 12.8113 16.541 12.7999C17.3186 12.7458 18.0915 12.9573 18.734 13.3999ZM0 23.6L6.77819 13.0685H0.797434C0.741882 12.7382 0.718987 12.4033 0.729082 12.0685C0.71769 11.7313 0.740474 11.3999 0.797434 11.0685H10.4236L10.5603 11.3999L3.71946 21.9314H10.0989C10.1559 22.2628 10.1787 22.6 10.1673 22.9314C10.1807 23.2454 10.1578 23.5599 10.0989 23.8685H0.0683514L0 23.6ZM19.4688 17.8685C19.1555 17.8514 18.8422 17.8114 18.5346 17.7371C18.3155 17.7371 18.117 17.7164 17.9382 17.6977L17.9382 17.6977C17.7917 17.6824 17.6584 17.6685 17.5378 17.6685C16.698 17.6179 15.8629 17.8274 15.1455 18.2685C14.6151 18.6809 14.3194 19.3276 14.3538 20C14.2762 20.7521 14.6406 21.4811 15.2879 21.8685C15.5727 22.0228 15.8917 22.1142 16.2164 22.1314C16.524 22.1885 16.8372 22.2114 17.1448 22.2C17.5435 22.2114 17.9423 22.1885 18.341 22.1314C18.7397 22.0685 19.1384 22 19.4061 21.9314V17.8685H19.4688ZM27.1127 21.8685C27.8548 22.1447 28.6473 22.2577 29.4367 22.2C30.0006 22.2171 30.5645 22.1257 31.0942 21.9314C31.5841 21.76 32.0227 21.4628 32.3587 21.0685C32.7346 20.6114 33.0308 20.0971 33.2188 19.5371C33.4466 18.8228 33.5606 18.0799 33.5549 17.3371C33.5947 16.2228 33.3441 15.1199 32.8201 14.1371C32.3024 13.3271 31.3842 12.8666 30.4278 12.9371C30.0234 12.9371 29.619 13.0056 29.2316 13.1371C28.8557 13.2799 28.5139 13.5085 28.2405 13.7999C27.9216 14.1256 27.6709 14.5142 27.5058 14.9371C27.3064 15.4677 27.2172 16.0335 27.2437 16.5999V21.8685H27.1127ZM24.917 11.0342C24.8344 11.0513 24.7518 11.0685 24.6521 11.0685V11.0742H24.7831V29.9314C24.8828 29.9314 24.9825 29.9486 25.0821 29.9657C25.1818 29.9829 25.2815 30 25.3812 30H26.5773C26.721 30 26.845 29.9802 26.9599 29.9619L26.9599 29.9619L26.9601 29.9619L26.9602 29.9619C27.0592 29.9461 27.1515 29.9314 27.2437 29.9314V24C27.5058 24.0685 27.8418 24.1314 28.2405 24.2C28.6108 24.2571 28.9924 24.28 29.3683 24.2685C31.5613 24.2685 33.2188 23.6685 34.415 22.4C35.6738 20.9714 36.3174 19.1028 36.2092 17.1999C36.2263 16.2285 36.0953 15.2628 35.8105 14.3371C35.5939 13.6062 35.2336 12.9261 34.751 12.3371C34.3021 11.8073 33.7312 11.3954 33.0878 11.1371C31.5985 10.5242 29.9126 10.6209 28.5026 11.3999C28.1893 11.5885 27.8988 11.8113 27.6425 12.0685L27.0444 12.8685C26.9988 12.7656 26.976 12.6513 26.976 12.5371C26.976 12.4371 26.959 12.3371 26.9419 12.2371C26.9248 12.1371 26.9077 12.0371 26.9077 11.9371C26.9077 11.8371 26.892 11.7528 26.8764 11.6685L26.8764 11.6685L26.8764 11.6685C26.8607 11.5842 26.845 11.4999 26.845 11.3999C26.8336 11.2856 26.8109 11.1771 26.7767 11.0685C26.677 11.0685 26.5944 11.0513 26.5118 11.0342C26.4292 11.017 26.3466 10.9999 26.247 10.9999H25.1818C25.0821 10.9999 24.9995 11.017 24.917 11.0342ZM39.1996 12.9999H37.542C37.4851 12.8513 37.4566 12.6913 37.4737 12.5371V11.4685C37.4737 11.3591 37.4941 11.2702 37.5127 11.1897C37.528 11.123 37.542 11.062 37.542 10.9999H41.5919V23.9314C41.4922 23.9314 41.3925 23.9485 41.2928 23.9657C41.1931 23.9828 41.0935 24 40.9938 24H39.7976C39.698 24 39.5983 23.9828 39.4986 23.9657C39.3989 23.9485 39.2992 23.9314 39.1996 23.9314V12.9999ZM53.1546 14.9371C53.2913 15.3656 53.354 15.8114 53.354 16.2685H47.0429C47.1037 15.3203 47.4514 14.4132 48.0397 13.6685C48.6418 13.0328 49.4906 12.6926 50.3636 12.7371C50.8208 12.7142 51.2766 12.8044 51.6908 12.9999C52.0592 13.1912 52.3788 13.4649 52.6249 13.7999C52.8414 14.1599 53.0179 14.5371 53.1546 14.9371ZM46.9745 18.1371C47.0429 19.5371 47.3732 20.6 48.0397 21.2C48.8869 21.9228 49.9836 22.282 51.0927 22.2C52.2493 22.2071 53.3975 22.0038 54.4818 21.6C54.6413 21.8914 54.7552 22.2057 54.8122 22.5314C54.8919 22.8857 54.9375 23.24 54.9489 23.6C54.3793 23.8571 53.7698 24.0343 53.1546 24.1314C52.4313 24.2743 51.6965 24.3371 50.9617 24.3314C49.9444 24.3729 48.9288 24.2157 47.9713 23.8685C47.202 23.5067 46.5036 23.0093 45.9094 22.4C45.3577 21.7875 44.9491 21.0593 44.7132 20.2685C44.4455 19.4057 44.3145 18.5085 44.3145 17.5999C44.3202 16.7028 44.4284 15.8056 44.6506 14.9371C44.8784 14.1542 45.2601 13.4285 45.7784 12.7999C46.3082 12.2057 46.9388 11.7104 47.641 11.3371C48.5124 10.9199 49.4637 10.7085 50.432 10.737C52.7196 10.6442 54.7748 12.1304 55.4102 14.3371C55.6609 15.1085 55.7748 15.9199 55.7463 16.7371V17.4685C55.7463 17.6127 55.7266 17.7371 55.7084 17.8523L55.7083 17.8524C55.6926 17.9518 55.6779 18.0445 55.6779 18.1371H46.9745ZM58.8022 11.0342C58.7196 11.0513 58.637 11.0685 58.5373 11.0685H58.469V24C58.5686 24 58.6854 24.0171 58.8022 24.0343C58.9189 24.0514 59.0357 24.0685 59.1354 24.0685H60.3315C60.4312 24.0685 60.5309 24.0514 60.6306 24.0343C60.7303 24.0171 60.8299 24 60.9296 24V17.5999C60.8967 16.8797 60.9852 16.1591 61.1916 15.4685C61.3457 14.9663 61.6194 14.5093 61.9891 14.1371C62.308 13.8285 62.6954 13.5999 63.1169 13.4685C63.527 13.3313 63.9542 13.2685 64.3814 13.2685H64.7117C64.7808 13.2685 64.8484 13.286 64.9153 13.3033C64.9808 13.3203 65.0456 13.3371 65.1105 13.3371C65.1105 13.2371 65.1275 13.1371 65.1446 13.0371C65.1617 12.9371 65.1788 12.8371 65.1788 12.7371C65.2358 12.5371 65.2585 12.3371 65.2472 12.1371V11.5999C65.2472 11.5342 65.2301 11.4513 65.213 11.3685C65.1959 11.2856 65.1788 11.2028 65.1788 11.1371C65.0763 11.0742 64.9624 11.0513 64.8484 11.0685H64.4497C63.6753 11.0432 62.9112 11.2523 62.2568 11.6685C61.6787 12.0359 61.1994 12.5402 60.8613 13.1371C60.867 12.7771 60.8499 12.4228 60.7929 12.0685C60.7929 11.7313 60.7473 11.3942 60.6619 11.0685C60.5622 11.0685 60.4796 11.0513 60.397 11.0342C60.3145 11.017 60.2319 10.9999 60.1322 10.9999H59.067C58.9674 10.9999 58.8848 11.017 58.8022 11.0342Z" fill="#D6DEF2"/>
</svg>
