<svg width="320" height="143" viewBox="0 0 320 143" fill="none" xmlns="http://www.w3.org/2000/svg">
<path fill-rule="evenodd" clip-rule="evenodd" d="M92.3116 92.473H63.5474V77.9913H77.9176V63.6211H92.3116V92.473ZM63.5474 70.8054H70.7316V63.6211H63.5474V70.8054ZM49.2036 70.8064V49.2051H70.7275V56.437H56.3581V70.8064H49.2036ZM77.915 56.4357V42.0195H42.02V77.991H56.3596V99.6578H99.4941V56.4357H77.915Z" fill="#FFFFFE"/>
<path fill-rule="evenodd" clip-rule="evenodd" d="M128.265 69.5608H136.302V63.1914H128.265V69.5608ZM128.262 76.1779V85.1604H121.32V56.5781H143.24V76.1779H128.262Z" fill="#FFFFFE"/>
<path fill-rule="evenodd" clip-rule="evenodd" d="M160.686 63.1914H155.664V69.1533H160.686C163.095 69.1533 164.239 68.1734 164.239 66.2128C164.239 64.2121 163.014 63.1914 160.686 63.1914ZM157.825 75.238H155.661V85.1604H148.719V56.5781H161.458C167.502 56.5781 171.258 60.1703 171.258 66.1322C171.258 70.7059 169.053 73.4415 165.542 74.5856L173.055 85.1604H164.562L157.825 75.238Z" fill="#FFFFFE"/>
<path fill-rule="evenodd" clip-rule="evenodd" d="M189.571 76.0137V85.1604H182.63V76.0954L172.708 56.5781H180.506L186.1 68.2145L191.694 56.5781H199.452L189.571 76.0137Z" fill="#FFFFFE"/>
<path fill-rule="evenodd" clip-rule="evenodd" d="M224.188 63.1925H216.388V85.1604H209.447V63.1925H201.688V56.5781H224.188V63.1925Z" fill="#FFFFFE"/>
<path fill-rule="evenodd" clip-rule="evenodd" d="M234.219 63.1925V67.4387H245.816V74.0539H234.219V78.546H246.959V85.1604H227.278V56.5781H246.959V63.1925H234.219Z" fill="#FFFFFE"/>
<path fill-rule="evenodd" clip-rule="evenodd" d="M268.372 85.1604L258.816 72.2166V85.1604H251.875V56.5781H258.816V68.7453L267.759 56.5781H276.293L266.004 70.3784L277.029 85.1604H268.372Z" fill="#FFFFFE"/>
</svg>
